<?xml version="1.0" encoding="utf-8"?>
<!-- Generator: Adobe Illustrator 24.3.0, SVG Export Plug-In . SVG Version: 6.00 Build 0)  -->
<svg version="1.1" xmlns="http://www.w3.org/2000/svg" xmlns:xlink="http://www.w3.org/1999/xlink" x="0px" y="0px"
	 viewBox="0 0 1400 980" style="enable-background:new 0 0 1400 980;" xml:space="preserve">
<style type="text/css">
	.st0{fill:#001B44;}
	.star{fill:#F9F0DF;}
	.st2{fill:#E72828;}
	.st3{fill:#1D98D5;}
	.st4{fill:#FCE699;}
	.st5{fill:#EB6229;}
	.st6{fill:#2DAEE4;}
	.st7{fill:#FFF1C5;}
	.st8{fill:#292C6A;}
	.st9{fill:#413B89;}
	.st10{fill:#4C4C9A;}
	.st11{fill:#67C0EC;}
	.st12{fill:#94D9F7;}
</style>
<g id="_x31_">
	<rect x="0.93" y="-0.51" class="st0" width="1400.33" height="980.51"/>
	<path class="st0" d="M321.68,171.19"/>
	<g>
		<path class="star" d="M1021.7,306.74c4.7-0.25,5.54,1.97,1.89,4.93l-14.01,11.35c-3.65,2.96-5.26,8.97-3.58,13.36l6.47,16.83
			c1.69,4.39-0.16,5.89-4.1,3.33l-15.14-9.82c-3.95-2.56-10.16-2.22-13.81,0.73l-14.01,11.35c-3.66,2.96-5.65,1.67-4.44-2.88
			l4.66-17.42c1.21-4.54-1.02-10.36-4.96-12.92l-15.13-9.81c-3.95-2.56-3.33-4.86,1.36-5.11l18.02-0.95
			c4.7-0.25,9.53-4.17,10.75-8.71l4.67-17.43c1.22-4.54,3.59-4.66,5.28-0.27l6.47,16.83c1.69,4.39,6.92,7.78,11.6,7.53
			L1021.7,306.74z"/>
		<path class="star" d="M761.83,327.36c3.55-3.08,5.59-1.86,4.52,2.73l-4.06,17.56c-1.06,4.58,1.36,10.32,5.4,12.74l15.45,9.3
			c4.03,2.42,3.5,4.74-1.18,5.15l-17.98,1.57c-4.68,0.4-9.38,4.49-10.44,9.07l-4.07,17.57c-1.05,4.58-3.43,4.79-5.26,0.46
			l-7.04-16.6c-1.84-4.33-7.17-7.54-11.86-7.12l-17.97,1.56c-4.68,0.41-5.62-1.78-2.06-4.86l13.62-11.83
			c3.55-3.08,4.95-9.15,3.12-13.47l-7.04-16.62c-1.83-4.33-0.04-5.89,4-3.47l15.45,9.3c4.03,2.42,10.23,1.88,13.79-1.2
			L761.83,327.36z"/>
		<path class="star" d="M1030.92,457.6c3.59-2.3,6.23-0.71,5.88,3.54l-0.9,10.85c-0.35,4.25,2.06,9.93,5.35,12.63l8.43,6.89
			c3.3,2.71,2.59,5.71-1.54,6.68l-10.61,2.5c-4.14,0.97-8.81,5.03-10.35,8.99l-3.96,10.15c-1.55,3.97-4.62,4.24-6.83,0.6l-5.65-9.32
			c-2.21-3.64-7.5-6.83-11.75-7.07l-10.88-0.63c-4.25-0.25-5.46-3.08-2.68-6.31l7.12-8.25c2.78-3.23,4.17-9.24,3.09-13.37
			l-2.76-10.53c-1.09-4.12,1.24-6.15,5.18-4.5l10.04,4.21c3.93,1.65,10.08,1.11,13.66-1.19L1030.92,457.6z"/>
		<path class="star" d="M520.08,167.74c4.41-1.62,5.88,0.25,3.27,4.16l-10.04,14.99c-2.62,3.9-2.38,10.13,0.53,13.82l11.15,14.18
			c2.91,3.69,1.59,5.67-2.94,4.39l-17.36-4.91c-4.53-1.28-10.37,0.87-12.99,4.78l-10.04,14.99c-2.62,3.91-4.9,3.26-5.08-1.44
			l-0.69-18.03c-0.18-4.7-4.03-9.59-8.55-10.87l-17.35-4.92c-4.52-1.28-4.62-3.65-0.21-5.28l16.93-6.23
			c4.41-1.62,7.88-6.8,7.7-11.49l-0.68-18.03c-0.18-4.7,2.05-5.52,4.96-1.82l11.15,14.17c2.91,3.7,8.9,5.39,13.31,3.77
			L520.08,167.74z"/>
		<polygon class="star" points="422.72,296.29 424.09,282.8 408.51,271.02 427,271.17 432.15,258.62 438.97,270.34 452.49,271.36 
			443.46,281.46 446.66,294.64 434.26,289.17 		"/>
		<path class="star" d="M396.47,370.02c3.92-4.66,8.2-3.6,9.51,2.34l3.33,15.19c1.31,5.94,6.99,12.68,12.62,14.96l14.41,5.86
			c5.63,2.29,5.95,6.69,0.71,9.76L423.64,426c-5.25,3.07-9.89,10.56-10.33,16.62l-1.12,15.51c-0.43,6.07-4.51,7.73-9.07,3.69
			L391.5,451.5c-4.55-4.03-13.11-6.14-19.01-4.69l-15.1,3.73c-5.91,1.46-8.74-1.91-6.31-7.48l6.22-14.26
			c2.44-5.57,1.8-14.36-1.41-19.53l-8.22-13.2c-3.21-5.17-0.88-8.91,5.17-8.32l15.48,1.52c6.05,0.59,14.21-2.73,18.13-7.38
			L396.47,370.02z"/>
		<path class="star" d="M573.44,309.16c2.75-3.26,5.74-2.52,6.66,1.64l2.34,10.64c0.92,4.17,4.9,8.88,8.85,10.48l10.09,4.1
			c3.95,1.6,4.17,4.68,0.5,6.83l-9.4,5.52c-3.67,2.15-6.93,7.4-7.23,11.65l-0.79,10.87c-0.3,4.25-3.16,5.41-6.35,2.58l-8.15-7.23
			c-3.19-2.83-9.18-4.3-13.32-3.28l-10.57,2.61c-4.14,1.02-6.13-1.34-4.43-5.24l4.37-9.98c1.71-3.9,1.25-10.06-0.99-13.68
			l-5.76-9.25c-2.25-3.62-0.62-6.24,3.62-5.83l10.84,1.06c4.24,0.41,9.96-1.92,12.71-5.17L573.44,309.16z"/>
	</g>
	<g class="rocket">
		<path class="st2" d="M914.3,784.3l22.1-38.2c5.2-9,14.4-15.1,24.8-16.5l107.2-14c4.1-0.5,7,4,4.8,7.5l-3.1,4.9l-29.4,11.2
			l-54.8,45.2h-71.6V784.3z"/>
		<polygon class="st3" points="1036.9,820.1 1085.9,820.1 1085.9,765 1036.9,783.5 		"/>
		<path class="st2" d="M774.2,820.1h82.3c0,0,3.9-18.5-17.9-49.4C807.3,777.8,782.5,792.6,774.2,820.1z"/>
		<path class="st4" d="M856.4,820.1h180.5v-36.6c0,0-119.7-30.8-198.4-12.9C860.3,801.6,856.4,820.1,856.4,820.1z"/>
		<path class="st5" d="M914.3,855.9l22.1,38.2c5.2,9,14.4,15.1,24.8,16.5l107.2,14c4.1,0.5,7-4,4.8-7.5l-3.1-4.9l-29.4-11.2
			l-54.8-45.2h-71.6V855.9z"/>
		<polygon class="st6" points="1036.9,820.1 1085.9,820.1 1085.9,875.1 1036.9,856.6 		"/>
		<path class="st5" d="M774.2,820.1h82.3c0,0,3.9,18.5-17.9,49.4C807.3,862.4,782.5,847.5,774.2,820.1z"/>
		<path class="st7" d="M856.4,820.1h180.5v36.6c0,0-119.7,30.8-198.4,12.9C860.3,838.5,856.4,820.1,856.4,820.1z"/>
		<g>
			<circle class="st8" cx="914.1" cy="820.1" r="30.4"/>
			<circle class="st9" cx="914.1" cy="820.1" r="27.7"/>
			<g>
				<g>
					<path class="st10" d="M909.1,842.5c0,0.3-0.1,0.6-0.2,1c-0.5,1.5-2.2,2.3-3.7,1.8c-10.7-3.8-17.8-13.9-17.8-25.2
						c0-6.6,2.4-13,6.9-17.9c1.1-1.2,2.9-1.3,4.1-0.2c1.2,1.1,1.3,2.9,0.2,4.1c-3.5,3.8-5.4,8.8-5.4,14c0,8.8,5.6,16.7,13.9,19.7
						C908.4,840.1,909.1,841.3,909.1,842.5z"/>
				</g>
			</g>
			<circle class="st8" cx="914.1" cy="820.1" r="19.8"/>
			<circle class="st11" cx="914.1" cy="820.1" r="17.5"/>
			<circle class="st12" cx="906.8" cy="823.7" r="9.1"/>
		</g>
	</g>
</g>
<g id="Designed_by_Vecteezy">
</g>
</svg>
