<?xml version="1.0" encoding="utf-8"?>
<!-- Generator: Adobe Illustrator 24.3.0, SVG Export Plug-In . SVG Version: 6.00 Build 0)  -->
<svg version="1.1" xmlns="http://www.w3.org/2000/svg" xmlns:xlink="http://www.w3.org/1999/xlink" x="0px" y="0px"
	 viewBox="0 0 1400 980" style="enable-background:new 0 0 1400 980;" xml:space="preserve">
<style type="text/css">
	.xrocket0{fill:#001B44;}
	.xrocket1{fill:#F9F0DF;}
	.xrocket2{fill:#E72828;}
	.xrocket3{fill:#1D98D5;}
	.xrocket4{fill:#FCE699;}
	.xrocket5{fill:#EB6229;}
	.xrocket6{fill:#2DAEE4;}
	.xrocket7{fill:#FFF1C5;}
	.xrocket8{fill:#292C6A;}
	.xrocket9{fill:#413B89;}
	.xrocket10{fill:#4C4C9A;}
	.xrocket11{fill:#67C0EC;}
	.xrocket12{fill:#94D9F7;}
	.xrocket13{fill:url(#SVGID_1_);}
	.xrocket14{fill:url(#SVGID_2_);}
	.xrocket15{fill:url(#SVGID_3_);}
	.xrocket16{fill:url(#SVGID_4_);}
	.xrocket17{fill:#D7D1D1;}
	.xrocket18{fill:#FBF9FB;}
	.xrocket19{fill:#BCB8B7;}
	.xrocket20{fill:#FFFFFF;}
	.xrocket21{fill:#DDDBDA;}
	.xrocket22{fill:url(#SVGID_5_);}
	.xrocket23{fill:url(#SVGID_6_);}
	.xrocket24{fill:url(#SVGID_7_);}
	.xrocket25{fill:url(#SVGID_8_);}
	.xrocket26{fill:url(#SVGID_9_);}
	.xrocket27{fill:url(#SVGID_10_);}
	.xrocket28{fill:url(#SVGID_11_);}
	.xrocket29{fill:url(#SVGID_12_);}
	.xrocket30{fill:#CCCCCC;stroke:#B3B3B3;stroke-width:0.1848;}
	.xrocket31{fill:#CCCCCC;stroke:#B3B3B3;stroke-width:0.1835;}
	.xrocket32{fill:#CCCCCC;stroke:#B3B3B3;stroke-width:0.2377;}
	.xrocket33{fill:url(#SVGID_13_);stroke:#C1282D;}
	.xrocket34{fill:#CCCCCC;stroke:#B3B3B3;stroke-width:0.1768;}
	.xrocket35{fill:#CCCCCC;stroke:#B3B3B3;stroke-width:0.2274;}
	.xrocket36{fill:url(#SVGID_14_);stroke:#C1282D;}
	.xrocket37{fill:url(#SVGID_15_);}
	.xrocket38{fill:url(#SVGID_16_);}
</style>
<g id="_x31_">
	<rect x="0.93" y="-0.51" class="xrocket0" width="100%" height="100%"/>
	<path class="xrocket0" d="M321.68,171.19"/>
	<g>
		<path class="star" d="M1021.7,306.74c4.7-0.25,5.54,1.97,1.89,4.93l-14.01,11.35c-3.65,2.96-5.26,8.97-3.58,13.36l6.47,16.83
			c1.69,4.39-0.16,5.89-4.1,3.33l-15.14-9.82c-3.95-2.56-10.16-2.22-13.81,0.73l-14.01,11.35c-3.66,2.96-5.65,1.67-4.44-2.88
			l4.66-17.42c1.21-4.54-1.02-10.36-4.96-12.92l-15.13-9.81c-3.95-2.56-3.33-4.86,1.36-5.11l18.02-0.95
			c4.7-0.25,9.53-4.17,10.75-8.71l4.67-17.43c1.22-4.54,3.59-4.66,5.28-0.27l6.47,16.83c1.69,4.39,6.92,7.78,11.6,7.53
			L1021.7,306.74z"/>
		<path class="star" d="M761.83,327.36c3.55-3.08,5.59-1.86,4.52,2.73l-4.06,17.56c-1.06,4.58,1.36,10.32,5.4,12.74l15.45,9.3
			c4.03,2.42,3.5,4.74-1.18,5.15l-17.98,1.57c-4.68,0.4-9.38,4.49-10.44,9.07l-4.07,17.57c-1.05,4.58-3.43,4.79-5.26,0.46
			l-7.04-16.6c-1.84-4.33-7.17-7.54-11.86-7.12l-17.97,1.56c-4.68,0.41-5.62-1.78-2.06-4.86l13.62-11.83
			c3.55-3.08,4.95-9.15,3.12-13.47l-7.04-16.62c-1.83-4.33-0.04-5.89,4-3.47l15.45,9.3c4.03,2.42,10.23,1.88,13.79-1.2
			L761.83,327.36z"/>
		<path class="star" d="M1030.92,457.6c3.59-2.3,6.23-0.71,5.88,3.54l-0.9,10.85c-0.35,4.25,2.06,9.93,5.35,12.63l8.43,6.89
			c3.3,2.71,2.59,5.71-1.54,6.68l-10.61,2.5c-4.14,0.97-8.81,5.03-10.35,8.99l-3.96,10.15c-1.55,3.97-4.62,4.24-6.83,0.6l-5.65-9.32
			c-2.21-3.64-7.5-6.83-11.75-7.07l-10.88-0.63c-4.25-0.25-5.46-3.08-2.68-6.31l7.12-8.25c2.78-3.23,4.17-9.24,3.09-13.37
			l-2.76-10.53c-1.09-4.12,1.24-6.15,5.18-4.5l10.04,4.21c3.93,1.65,10.08,1.11,13.66-1.19L1030.92,457.6z"/>
		<path class="star" d="M520.08,167.74c4.41-1.62,5.88,0.25,3.27,4.16l-10.04,14.99c-2.62,3.9-2.38,10.13,0.53,13.82l11.15,14.18
			c2.91,3.69,1.59,5.67-2.94,4.39l-17.36-4.91c-4.53-1.28-10.37,0.87-12.99,4.78l-10.04,14.99c-2.62,3.91-4.9,3.26-5.08-1.44
			l-0.69-18.03c-0.18-4.7-4.03-9.59-8.55-10.87l-17.35-4.92c-4.52-1.28-4.62-3.65-0.21-5.28l16.93-6.23
			c4.41-1.62,7.88-6.8,7.7-11.49l-0.68-18.03c-0.18-4.7,2.05-5.52,4.96-1.82l11.15,14.17c2.91,3.7,8.9,5.39,13.31,3.77
			L520.08,167.74z"/>
		<polygon class="star" points="422.72,296.29 424.09,282.8 408.51,271.02 427,271.17 432.15,258.62 438.97,270.34 452.49,271.36 
			443.46,281.46 446.66,294.64 434.26,289.17 		"/>
		<path class="star" d="M396.47,370.02c3.92-4.66,8.2-3.6,9.51,2.34l3.33,15.19c1.31,5.94,6.99,12.68,12.62,14.96l14.41,5.86
			c5.63,2.29,5.95,6.69,0.71,9.76L423.64,426c-5.25,3.07-9.89,10.56-10.33,16.62l-1.12,15.51c-0.43,6.07-4.51,7.73-9.07,3.69
			L391.5,451.5c-4.55-4.03-13.11-6.14-19.01-4.69l-15.1,3.73c-5.91,1.46-8.74-1.91-6.31-7.48l6.22-14.26
			c2.44-5.57,1.8-14.36-1.41-19.53l-8.22-13.2c-3.21-5.17-0.88-8.91,5.17-8.32l15.48,1.52c6.05,0.59,14.21-2.73,18.13-7.38
			L396.47,370.02z"/>
		<path class="star" d="M573.44,309.16c2.75-3.26,5.74-2.52,6.66,1.64l2.34,10.64c0.92,4.17,4.9,8.88,8.85,10.48l10.09,4.1
			c3.95,1.6,4.17,4.68,0.5,6.83l-9.4,5.52c-3.67,2.15-6.93,7.4-7.23,11.65l-0.79,10.87c-0.3,4.25-3.16,5.41-6.35,2.58l-8.15-7.23
			c-3.19-2.83-9.18-4.3-13.32-3.28l-10.57,2.61c-4.14,1.02-6.13-1.34-4.43-5.24l4.37-9.98c1.71-3.9,1.25-10.06-0.99-13.68
			l-5.76-9.25c-2.25-3.62-0.62-6.24,3.62-5.83l10.84,1.06c4.24,0.41,9.96-1.92,12.71-5.17L573.44,309.16z"/>
	</g>
	<g class="rocket">
		<path class="xrocket2" d="M914.3,784.3l22.1-38.2c5.2-9,14.4-15.1,24.8-16.5l107.2-14c4.1-0.5,7,4,4.8,7.5l-3.1,4.9l-29.4,11.2
			l-54.8,45.2h-71.6V784.3z"/>
		<polygon class="xrocket3" points="1036.9,820.1 1085.9,820.1 1085.9,765 1036.9,783.5 		"/>
		<path class="xrocket2" d="M774.2,820.1h82.3c0,0,3.9-18.5-17.9-49.4C807.3,777.8,782.5,792.6,774.2,820.1z"/>
		<path class="xrocket4" d="M856.4,820.1h180.5v-36.6c0,0-119.7-30.8-198.4-12.9C860.3,801.6,856.4,820.1,856.4,820.1z"/>
		<path class="xrocket5" d="M914.3,855.9l22.1,38.2c5.2,9,14.4,15.1,24.8,16.5l107.2,14c4.1,0.5,7-4,4.8-7.5l-3.1-4.9l-29.4-11.2
			l-54.8-45.2h-71.6V855.9z"/>
		<polygon class="xrocket6" points="1036.9,820.1 1085.9,820.1 1085.9,875.1 1036.9,856.6 		"/>
		<path class="xrocket5" d="M774.2,820.1h82.3c0,0,3.9,18.5-17.9,49.4C807.3,862.4,782.5,847.5,774.2,820.1z"/>
		<path class="xrocket7" d="M856.4,820.1h180.5v36.6c0,0-119.7,30.8-198.4,12.9C860.3,838.5,856.4,820.1,856.4,820.1z"/>
		<g>
			<circle class="xrocket8" cx="914.1" cy="820.1" r="30.4"/>
			<circle class="xrocket9" cx="914.1" cy="820.1" r="27.7"/>
			<g>
				<g>
					<path class="xrocket10" d="M909.1,842.5c0,0.3-0.1,0.6-0.2,1c-0.5,1.5-2.2,2.3-3.7,1.8c-10.7-3.8-17.8-13.9-17.8-25.2
						c0-6.6,2.4-13,6.9-17.9c1.1-1.2,2.9-1.3,4.1-0.2c1.2,1.1,1.3,2.9,0.2,4.1c-3.5,3.8-5.4,8.8-5.4,14c0,8.8,5.6,16.7,13.9,19.7
						C908.4,840.1,909.1,841.3,909.1,842.5z"/>
				</g>
			</g>
			<circle class="xrocket8" cx="914.1" cy="820.1" r="19.8"/>
			<circle class="xrocket11" cx="914.1" cy="820.1" r="17.5"/>
			<circle class="xrocket12" cx="906.8" cy="823.7" r="9.1"/>
		</g>
	</g>
	<g>
		
			<linearGradient id="SVGID_1_" gradientUnits="userSpaceOnUse" x1="467.3051" y1="155.6452" x2="527.1085" y2="155.6452" gradientTransform="matrix(0.9579 -0.287 0.287 0.9579 -28.2483 152.114)">
			<stop  offset="0" style="stop-color:#EE2A24"/>
			<stop  offset="0.6099" style="stop-color:#EE2A24"/>
			<stop  offset="0.6324" style="stop-color:#E72A25"/>
			<stop  offset="0.7169" style="stop-color:#D92A26"/>
			<stop  offset="0.8209" style="stop-color:#D22A26"/>
			<stop  offset="1" style="stop-color:#D02A27"/>
			<stop  offset="1" style="stop-color:#C62825"/>
			<stop  offset="1" style="stop-color:#9D201D"/>
			<stop  offset="1" style="stop-color:#771816"/>
			<stop  offset="1" style="stop-color:#571110"/>
			<stop  offset="1" style="stop-color:#3B0C0B"/>
			<stop  offset="1" style="stop-color:#250807"/>
			<stop  offset="1" style="stop-color:#140404"/>
			<stop  offset="1" style="stop-color:#090202"/>
			<stop  offset="1" style="stop-color:#020000"/>
			<stop  offset="1" style="stop-color:#000000"/>
		</linearGradient>
		<path class="xrocket13" d="M464.07,167.09c0.14-4.61,10.56-28.29,14.05-29.33c3.49-1.05,42.61,10.08,44.07,14.96
			c1.47,4.89-2.31,22.77-5.11,23.61C514.29,177.17,464.07,167.09,464.07,167.09z"/>
		
			<linearGradient id="SVGID_2_" gradientUnits="userSpaceOnUse" x1="506.3678" y1="157.7873" x2="522.1999" y2="173.6194" gradientTransform="matrix(0.9579 -0.287 0.287 0.9579 -28.2483 152.114)">
			<stop  offset="0" style="stop-color:#EF4629"/>
			<stop  offset="0.3297" style="stop-color:#EF3F23"/>
			<stop  offset="1" style="stop-color:#7E1416"/>
		</linearGradient>
		<path class="xrocket14" d="M522.52,156.05c-4.77-1.63-15.77-4.87-16.84-4.55c-1.31,0.39,2.88,6.88,1.92,11.86
			c-0.96,4.98,0.32,5.82,1.46,8.94c0.52,1.43,1.31,2.6,2.32,3.52c3.09,0.45,5.2,0.66,5.71,0.51
			C519.42,175.63,522.44,163.02,522.52,156.05z"/>
		
			<linearGradient id="SVGID_3_" gradientUnits="userSpaceOnUse" x1="489.1839" y1="165.0977" x2="549.8456" y2="165.0977" gradientTransform="matrix(0.9579 -0.287 0.287 0.9579 -28.2483 152.114)">
			<stop  offset="0" style="stop-color:#EE2A24"/>
			<stop  offset="0.4341" style="stop-color:#EE2A24"/>
			<stop  offset="0.4447" style="stop-color:#EC2A24"/>
			<stop  offset="0.5971" style="stop-color:#DB2A26"/>
			<stop  offset="0.7689" style="stop-color:#D22A26"/>
			<stop  offset="1" style="stop-color:#D02A27"/>
			<stop  offset="1" style="stop-color:#C62825"/>
			<stop  offset="1" style="stop-color:#9D201D"/>
			<stop  offset="1" style="stop-color:#771816"/>
			<stop  offset="1" style="stop-color:#571110"/>
			<stop  offset="1" style="stop-color:#3B0C0B"/>
			<stop  offset="1" style="stop-color:#250807"/>
			<stop  offset="1" style="stop-color:#140404"/>
			<stop  offset="1" style="stop-color:#090202"/>
			<stop  offset="1" style="stop-color:#020000"/>
			<stop  offset="1" style="stop-color:#000000"/>
		</linearGradient>
		<path class="xrocket15" d="M478.12,137.76c1.77-2.77,22.92-18.96,28.16-18.56c8.68-2.6,29.53,6.52,33.72,17.87
			c4.19,11.35,15.49,39.88,14.11,57.63c-1.77,7.23-24.44-32.65-30.72-34.14C517.12,159.08,478.12,137.76,478.12,137.76z"/>
		
			<linearGradient id="SVGID_4_" gradientUnits="userSpaceOnUse" x1="536.9324" y1="136.405" x2="536.9324" y2="208.5628" gradientTransform="matrix(0.9579 -0.287 0.287 0.9579 -28.2483 152.114)">
			<stop  offset="0" style="stop-color:#EF4629"/>
			<stop  offset="0.4121" style="stop-color:#EF3F23"/>
			<stop  offset="0.6598" style="stop-color:#B22920"/>
			<stop  offset="0.8817" style="stop-color:#8C1A19"/>
			<stop  offset="1" style="stop-color:#7E1416"/>
		</linearGradient>
		<path class="xrocket16" d="M540,137.07c-1.39-3.77-4.63-7.29-8.64-10.22c-1.15,1.33-1.45,7-1.63,8.7c-0.18,1.78,0.43,5.75,0.83,8.5
			c0.39,2.75,0.68,6.1,1.19,7.81c0.51,1.71-1.49,4.6-4.28,6.3c-2.79,1.7-3.08,1.21-6.51,1.23c0,0,0.09,0.15,0.23,0.41
			c0.93,0.37,1.68,0.64,2.2,0.76c6.28,1.48,28.94,41.37,30.72,34.14C555.5,176.95,544.19,148.42,540,137.07z"/>
		<path class="xrocket17" d="M499.14,194.64c-9.62,1.33-10.87,1.71-14.1-3.01c-3.23-4.71-1-4.87-10.48-3.06
			c-9.47,1.81-16.47-1.78-18.58-5.8c-2.11-4.02-5.37-13.37-1.9-16.99c3.47-3.62,3.99-9.46,15.44-7.72
			c11.45,1.74,9.52,5.93,17.32,4.62c7.8-1.3,10.23,9.85,17.18,4.15c6.94-5.7,2.13,7.11,10.33,2.59c8.2-4.52,14.51,0.02,15.38,5.96
			c0.87,5.94,0.07,15.24-2.79,16.99c-2.86,1.75-10.62,3.38-15.4-0.41C506.76,188.17,499.14,194.64,499.14,194.64z"/>
		<path class="xrocket18" d="M498.23,191.73c-8.76,1.32-9.91,1.66-12.75-2.27c-2.84-3.93-0.81-4.11-9.46-2.39
			c-8.64,1.72-14.92-1.18-16.77-4.54c-1.84-3.36-4.61-11.23-1.39-14.37c3.22-3.14,3.82-8.1,14.18-6.86
			c10.36,1.24,8.53,4.84,15.64,3.57c7.11-1.26,9.1,8.14,15.52,3.18c6.42-4.97,1.79,5.98,9.34,1.99c7.54-4,13.18-0.27,13.85,4.74
			c0.67,5.02-0.24,12.92-2.87,14.46c-2.63,1.54-9.72,3.07-13.98-0.04C505.29,186.09,498.23,191.73,498.23,191.73z"/>
		<path class="xrocket19" d="M564.15,195.61c1.82,6.09-2.36,12.72-9.35,14.82c-6.99,2.09-14.13-1.15-15.96-7.24
			c-1.82-6.09,2.36-12.72,9.35-14.82C555.18,186.28,562.33,189.52,564.15,195.61z"/>
		<path class="xrocket20" d="M563.79,195.71c1.59,5.29-1.99,11.04-7.98,12.83c-5.99,1.79-12.13-1.04-13.72-6.33
			c-1.59-5.29,1.99-11.04,7.98-12.83S562.2,190.42,563.79,195.71z"/>
		<path class="xrocket21" d="M557.3,205.22c0.73-1.09,3.18-2.17,3.92-3.68c1.11-2.27,1.06-3.92,0.07-6.46c-0.99-2.54-6.65-3.21-6.65-3.21
			s3.08,4.05,3.42,6.47C558.24,199.71,557.3,205.22,557.3,205.22z"/>
	</g>
	<g>
		
			<linearGradient id="SVGID_5_" gradientUnits="userSpaceOnUse" x1="889.7106" y1="584.4542" x2="949.514" y2="584.4542" gradientTransform="matrix(0.9579 -0.287 0.287 0.9579 -28.2483 152.114)">
			<stop  offset="0" style="stop-color:#EE2A24"/>
			<stop  offset="0.6099" style="stop-color:#EE2A24"/>
			<stop  offset="0.6324" style="stop-color:#E72A25"/>
			<stop  offset="0.7169" style="stop-color:#D92A26"/>
			<stop  offset="0.8209" style="stop-color:#D22A26"/>
			<stop  offset="1" style="stop-color:#D02A27"/>
			<stop  offset="1" style="stop-color:#C62825"/>
			<stop  offset="1" style="stop-color:#9D201D"/>
			<stop  offset="1" style="stop-color:#771816"/>
			<stop  offset="1" style="stop-color:#571110"/>
			<stop  offset="1" style="stop-color:#3B0C0B"/>
			<stop  offset="1" style="stop-color:#250807"/>
			<stop  offset="1" style="stop-color:#140404"/>
			<stop  offset="1" style="stop-color:#090202"/>
			<stop  offset="1" style="stop-color:#020000"/>
			<stop  offset="1" style="stop-color:#000000"/>
		</linearGradient>
		<path class="xrocket22" d="M991.77,456.63c0.14-4.61,10.56-28.29,14.05-29.33c3.49-1.05,42.61,10.08,44.07,14.96
			c1.47,4.89-2.31,22.77-5.11,23.61C1041.99,466.71,991.77,456.63,991.77,456.63z"/>
		
			<linearGradient id="SVGID_6_" gradientUnits="userSpaceOnUse" x1="928.7732" y1="586.5963" x2="944.6053" y2="602.4283" gradientTransform="matrix(0.9579 -0.287 0.287 0.9579 -28.2483 152.114)">
			<stop  offset="0" style="stop-color:#EF4629"/>
			<stop  offset="0.3297" style="stop-color:#EF3F23"/>
			<stop  offset="1" style="stop-color:#7E1416"/>
		</linearGradient>
		<path class="xrocket23" d="M1050.22,445.59c-4.77-1.63-15.77-4.87-16.84-4.55c-1.31,0.39,2.88,6.88,1.92,11.86
			c-0.96,4.98,0.32,5.82,1.46,8.94c0.52,1.43,1.31,2.6,2.32,3.52c3.09,0.45,5.2,0.66,5.71,0.51
			C1047.13,465.17,1050.15,452.56,1050.22,445.59z"/>
		
			<linearGradient id="SVGID_7_" gradientUnits="userSpaceOnUse" x1="911.5894" y1="593.9066" x2="972.251" y2="593.9066" gradientTransform="matrix(0.9579 -0.287 0.287 0.9579 -28.2483 152.114)">
			<stop  offset="0" style="stop-color:#EE2A24"/>
			<stop  offset="0.4341" style="stop-color:#EE2A24"/>
			<stop  offset="0.4447" style="stop-color:#EC2A24"/>
			<stop  offset="0.5971" style="stop-color:#DB2A26"/>
			<stop  offset="0.7689" style="stop-color:#D22A26"/>
			<stop  offset="1" style="stop-color:#D02A27"/>
			<stop  offset="1" style="stop-color:#C62825"/>
			<stop  offset="1" style="stop-color:#9D201D"/>
			<stop  offset="1" style="stop-color:#771816"/>
			<stop  offset="1" style="stop-color:#571110"/>
			<stop  offset="1" style="stop-color:#3B0C0B"/>
			<stop  offset="1" style="stop-color:#250807"/>
			<stop  offset="1" style="stop-color:#140404"/>
			<stop  offset="1" style="stop-color:#090202"/>
			<stop  offset="1" style="stop-color:#020000"/>
			<stop  offset="1" style="stop-color:#000000"/>
		</linearGradient>
		<path class="xrocket24" d="M1005.82,427.3c1.77-2.77,22.92-18.96,28.16-18.56c8.68-2.6,29.53,6.52,33.72,17.87
			c4.19,11.35,15.49,39.88,14.11,57.63c-1.77,7.23-24.44-32.65-30.72-34.14C1044.83,448.62,1005.82,427.3,1005.82,427.3z"/>
		
			<linearGradient id="SVGID_8_" gradientUnits="userSpaceOnUse" x1="959.3378" y1="565.2139" x2="959.3378" y2="637.3717" gradientTransform="matrix(0.9579 -0.287 0.287 0.9579 -28.2483 152.114)">
			<stop  offset="0" style="stop-color:#EF4629"/>
			<stop  offset="0.4121" style="stop-color:#EF3F23"/>
			<stop  offset="0.6598" style="stop-color:#B22920"/>
			<stop  offset="0.8817" style="stop-color:#8C1A19"/>
			<stop  offset="1" style="stop-color:#7E1416"/>
		</linearGradient>
		<path class="xrocket25" d="M1067.71,426.61c-1.39-3.77-4.63-7.29-8.64-10.22c-1.15,1.33-1.45,7-1.63,8.7c-0.18,1.78,0.43,5.75,0.83,8.5
			c0.39,2.75,0.68,6.1,1.19,7.81c0.51,1.71-1.49,4.6-4.28,6.3c-2.79,1.7-3.08,1.21-6.51,1.23c0,0,0.08,0.15,0.23,0.41
			c0.93,0.37,1.68,0.64,2.2,0.76c6.28,1.48,28.94,41.37,30.72,34.14C1083.2,466.49,1071.9,437.96,1067.71,426.61z"/>
		<path class="xrocket17" d="M1026.84,484.18c-9.62,1.33-10.87,1.71-14.1-3.01c-3.23-4.71-1-4.87-10.48-3.06
			c-9.47,1.81-16.47-1.78-18.58-5.8c-2.11-4.02-5.37-13.37-1.9-16.99c3.47-3.62,3.99-9.46,15.44-7.72
			c11.45,1.74,9.52,5.93,17.32,4.62c7.8-1.3,10.23,9.85,17.18,4.15c6.94-5.7,2.13,7.11,10.33,2.59c8.2-4.52,14.51,0.02,15.38,5.96
			c0.87,5.94,0.07,15.24-2.79,16.99c-2.86,1.75-10.62,3.38-15.4-0.41C1034.47,477.71,1026.84,484.18,1026.84,484.18z"/>
		<path class="xrocket18" d="M1025.94,481.27c-8.76,1.32-9.91,1.66-12.75-2.27c-2.84-3.93-0.81-4.11-9.46-2.39
			c-8.64,1.72-14.92-1.18-16.77-4.54c-1.84-3.36-4.61-11.23-1.39-14.37c3.22-3.14,3.82-8.1,14.18-6.86
			c10.36,1.24,8.53,4.84,15.64,3.57c7.11-1.26,9.1,8.14,15.52,3.18c6.42-4.97,1.79,5.98,9.34,1.99c7.54-4,13.18-0.27,13.85,4.74
			c0.67,5.02-0.24,12.92-2.87,14.46c-2.63,1.54-9.72,3.07-13.98-0.04C1032.99,475.63,1025.94,481.27,1025.94,481.27z"/>
		<path class="xrocket19" d="M1091.85,485.14c1.82,6.09-2.36,12.72-9.35,14.82c-6.99,2.09-14.13-1.15-15.96-7.24
			c-1.82-6.09,2.36-12.72,9.35-14.82C1082.89,475.81,1090.03,479.05,1091.85,485.14z"/>
		<path class="xrocket20" d="M1091.49,485.25c1.59,5.29-1.99,11.04-7.98,12.83s-12.13-1.04-13.72-6.33c-1.59-5.29,1.99-11.04,7.98-12.83
			S1089.91,479.96,1091.49,485.25z"/>
		<path class="xrocket21" d="M1085,494.76c0.73-1.09,3.18-2.17,3.92-3.68c1.11-2.27,1.06-3.92,0.07-6.46c-0.99-2.54-6.65-3.21-6.65-3.21
			s3.08,4.05,3.42,6.47C1085.94,489.25,1085,494.76,1085,494.76z"/>
	</g>
	<g>
		
			<linearGradient id="SVGID_9_" gradientUnits="userSpaceOnUse" x1="905.9342" y1="424.2152" x2="965.7376" y2="424.2152" gradientTransform="matrix(0.9579 -0.287 0.287 0.9579 -28.2483 152.114)">
			<stop  offset="0" style="stop-color:#EE2A24"/>
			<stop  offset="0.6099" style="stop-color:#EE2A24"/>
			<stop  offset="0.6324" style="stop-color:#E72A25"/>
			<stop  offset="0.7169" style="stop-color:#D92A26"/>
			<stop  offset="0.8209" style="stop-color:#D22A26"/>
			<stop  offset="1" style="stop-color:#D02A27"/>
			<stop  offset="1" style="stop-color:#C62825"/>
			<stop  offset="1" style="stop-color:#9D201D"/>
			<stop  offset="1" style="stop-color:#771816"/>
			<stop  offset="1" style="stop-color:#571110"/>
			<stop  offset="1" style="stop-color:#3B0C0B"/>
			<stop  offset="1" style="stop-color:#250807"/>
			<stop  offset="1" style="stop-color:#140404"/>
			<stop  offset="1" style="stop-color:#090202"/>
			<stop  offset="1" style="stop-color:#020000"/>
			<stop  offset="1" style="stop-color:#000000"/>
		</linearGradient>
		<path class="xrocket26" d="M961.32,298.48c0.14-4.61,10.56-28.29,14.05-29.33c3.49-1.05,42.61,10.08,44.07,14.96
			c1.47,4.89-2.31,22.77-5.11,23.61C1011.55,308.56,961.32,298.48,961.32,298.48z"/>
		
			<linearGradient id="SVGID_10_" gradientUnits="userSpaceOnUse" x1="944.9968" y1="426.3572" x2="960.8289" y2="442.1893" gradientTransform="matrix(0.9579 -0.287 0.287 0.9579 -28.2483 152.114)">
			<stop  offset="0" style="stop-color:#EF4629"/>
			<stop  offset="0.3297" style="stop-color:#EF3F23"/>
			<stop  offset="1" style="stop-color:#7E1416"/>
		</linearGradient>
		<path class="xrocket27" d="M1019.77,287.43c-4.77-1.63-15.77-4.87-16.84-4.55c-1.31,0.39,2.88,6.88,1.92,11.86
			c-0.96,4.98,0.32,5.82,1.46,8.94c0.52,1.43,1.31,2.6,2.32,3.52c3.09,0.45,5.2,0.66,5.71,0.51
			C1016.68,307.02,1019.7,294.41,1019.77,287.43z"/>
		
			<linearGradient id="SVGID_11_" gradientUnits="userSpaceOnUse" x1="927.813" y1="433.6676" x2="988.4746" y2="433.6676" gradientTransform="matrix(0.9579 -0.287 0.287 0.9579 -28.2483 152.114)">
			<stop  offset="0" style="stop-color:#EE2A24"/>
			<stop  offset="0.4341" style="stop-color:#EE2A24"/>
			<stop  offset="0.4447" style="stop-color:#EC2A24"/>
			<stop  offset="0.5971" style="stop-color:#DB2A26"/>
			<stop  offset="0.7689" style="stop-color:#D22A26"/>
			<stop  offset="1" style="stop-color:#D02A27"/>
			<stop  offset="1" style="stop-color:#C62825"/>
			<stop  offset="1" style="stop-color:#9D201D"/>
			<stop  offset="1" style="stop-color:#771816"/>
			<stop  offset="1" style="stop-color:#571110"/>
			<stop  offset="1" style="stop-color:#3B0C0B"/>
			<stop  offset="1" style="stop-color:#250807"/>
			<stop  offset="1" style="stop-color:#140404"/>
			<stop  offset="1" style="stop-color:#090202"/>
			<stop  offset="1" style="stop-color:#020000"/>
			<stop  offset="1" style="stop-color:#000000"/>
		</linearGradient>
		<path class="xrocket28" d="M975.37,269.14c1.77-2.77,22.92-18.96,28.16-18.56c8.68-2.6,29.53,6.52,33.72,17.87
			c4.19,11.35,15.49,39.88,14.11,57.63c-1.77,7.23-24.44-32.65-30.72-34.14C1014.38,290.46,975.37,269.14,975.37,269.14z"/>
		
			<linearGradient id="SVGID_12_" gradientUnits="userSpaceOnUse" x1="975.5615" y1="404.9749" x2="975.5615" y2="477.1327" gradientTransform="matrix(0.9579 -0.287 0.287 0.9579 -28.2483 152.114)">
			<stop  offset="0" style="stop-color:#EF4629"/>
			<stop  offset="0.4121" style="stop-color:#EF3F23"/>
			<stop  offset="0.6598" style="stop-color:#B22920"/>
			<stop  offset="0.8817" style="stop-color:#8C1A19"/>
			<stop  offset="1" style="stop-color:#7E1416"/>
		</linearGradient>
		<path class="xrocket29" d="M1037.26,268.45c-1.39-3.77-4.63-7.29-8.64-10.22c-1.15,1.33-1.45,7-1.63,8.7c-0.18,1.78,0.43,5.75,0.83,8.5
			c0.39,2.75,0.68,6.1,1.19,7.81c0.51,1.71-1.49,4.6-4.28,6.3c-2.79,1.7-3.08,1.21-6.51,1.23c0,0,0.09,0.15,0.23,0.41
			c0.93,0.37,1.68,0.64,2.2,0.76c6.28,1.48,28.94,41.37,30.72,34.14C1052.75,308.33,1041.45,279.81,1037.26,268.45z"/>
		<path class="xrocket17" d="M996.4,326.03c-9.62,1.33-10.87,1.71-14.1-3.01c-3.23-4.71-1-4.87-10.48-3.06
			c-9.47,1.81-16.47-1.78-18.58-5.8c-2.11-4.02-5.37-13.37-1.9-16.99c3.47-3.62,3.99-9.46,15.44-7.72
			c11.45,1.74,9.52,5.93,17.32,4.62c7.8-1.3,10.23,9.85,17.18,4.15c6.94-5.7,2.13,7.11,10.33,2.59c8.2-4.52,14.51,0.02,15.38,5.96
			c0.87,5.94,0.07,15.24-2.79,16.99c-2.86,1.75-10.62,3.38-15.4-0.41C1004.02,319.56,996.4,326.03,996.4,326.03z"/>
		<path class="xrocket18" d="M995.49,323.12c-8.76,1.32-9.91,1.66-12.75-2.27c-2.84-3.93-0.81-4.11-9.46-2.39
			c-8.64,1.72-14.92-1.18-16.77-4.54c-1.84-3.36-4.61-11.23-1.39-14.37c3.22-3.14,3.82-8.1,14.18-6.86
			c10.36,1.24,8.53,4.84,15.64,3.57c7.11-1.26,9.1,8.14,15.52,3.18c6.42-4.97,1.79,5.98,9.34,1.99c7.54-4,13.18-0.27,13.85,4.74
			c0.67,5.02-0.24,12.92-2.87,14.46c-2.63,1.54-9.72,3.07-13.98-0.04C1002.55,317.48,995.49,323.12,995.49,323.12z"/>
		<path class="xrocket19" d="M1061.41,326.99c1.82,6.09-2.36,12.72-9.35,14.82c-6.99,2.09-14.13-1.15-15.96-7.24
			c-1.82-6.09,2.36-12.72,9.35-14.82C1052.44,317.66,1059.58,320.9,1061.41,326.99z"/>
		<path class="xrocket20" d="M1061.05,327.1c1.59,5.29-1.99,11.04-7.98,12.83s-12.13-1.04-13.72-6.33c-1.59-5.29,1.99-11.04,7.98-12.83
			S1059.46,321.81,1061.05,327.1z"/>
		<path class="xrocket21" d="M1054.56,336.6c0.73-1.09,3.18-2.17,3.92-3.68c1.11-2.27,1.06-3.92,0.07-6.46
			c-0.99-2.54-6.65-3.21-6.65-3.21s3.08,4.05,3.42,6.47C1055.5,331.09,1054.56,336.6,1054.56,336.6z"/>
	</g>
	<g class="scarf">
		<g>
			<path class="xrocket30" d="M1082.5,841.78c-0.34-0.48-0.76-0.93-1.24-1.31c-3.44-0.1-7.94-0.9-9.32-0.9c-1.22,0-7.16,0.9-10.1,1.07
				c-0.13,0.36-0.04,0.78,0.12,1.21C1066.38,841.71,1077.19,840.05,1082.5,841.78z"/>
			<g>
				<path class="xrocket19" d="M1081.21,833.19c4.52,0,8.19,4.07,8.19,9.08c0,5.02-3.66,9.08-8.19,9.08c-4.52,0-8.19-4.07-8.19-9.08
					C1073.03,837.25,1076.69,833.19,1081.21,833.19z"/>
				<path class="xrocket20" d="M1081.21,833.45c3.93,0,7.11,3.49,7.11,7.79c0,4.3-3.19,7.78-7.11,7.78c-3.93,0-7.11-3.49-7.11-7.78
					C1074.1,836.93,1077.28,833.45,1081.21,833.45z"/>
				<path class="xrocket21" d="M1086.36,839.6c-0.59-0.7-0.83-2.52-1.71-3.31c-1.32-1.18-2.45-1.47-4.38-1.32
					c-1.93,0.15-3.55,3.75-3.55,3.75s3.39-1.23,5.1-0.97C1082.8,837.89,1086.36,839.6,1086.36,839.6z"/>
			</g>
		</g>
		<g>
			<path class="xrocket31" d="M1079.09,803.32c-0.38-0.42-0.85-0.81-1.4-1.14c-3.88-0.09-8.95-0.79-10.5-0.79
				c-1.37,0-8.07,0.79-11.39,0.94c-0.14,0.32-0.05,0.68,0.14,1.06C1060.91,803.26,1073.1,801.81,1079.09,803.32z"/>
			<g>
				<path class="xrocket19" d="M1085.09,793.03c4.52,0,8.19,4.07,8.19,9.08c0,5.02-3.66,9.08-8.19,9.08c-4.52,0-8.19-4.07-8.19-9.08
					C1076.91,797.1,1080.57,793.03,1085.09,793.03z"/>
				<path class="xrocket20" d="M1085.09,793.29c3.93,0,7.11,3.49,7.11,7.79c0,4.3-3.19,7.78-7.11,7.78c-3.93,0-7.11-3.49-7.11-7.78
					C1077.98,796.78,1081.16,793.29,1085.09,793.29z"/>
				<path class="xrocket21" d="M1090.24,799.44c-0.59-0.7-0.82-2.52-1.71-3.31c-1.32-1.18-2.45-1.47-4.38-1.32
					c-1.93,0.15-3.55,3.75-3.55,3.75s3.39-1.23,5.1-0.97C1086.68,797.73,1090.24,799.44,1090.24,799.44z"/>
			</g>
		</g>
		<g>
			<path class="xrocket32" d="M1084.93,828.23c-0.57-0.48-1.26-0.92-2.06-1.3c-5.69-0.07-13.15-0.84-15.43-0.83
				c-2.01,0.01-11.85,0.96-16.72,1.16c-0.21,0.36-0.06,0.78,0.2,1.21C1058.24,828.29,1076.13,826.55,1084.93,828.23z"/>
			<g>
				<path class="xrocket19" d="M1085.66,816.8c4.52-0.02,8.21,4.03,8.23,9.04c0.02,5.02-3.62,9.1-8.14,9.12
					c-4.52,0.02-8.21-4.03-8.23-9.04C1077.5,820.9,1081.14,816.82,1085.66,816.8z"/>
				<path class="xrocket20" d="M1085.66,817.05c3.93-0.02,7.13,3.45,7.15,7.75c0.02,4.3-3.15,7.8-7.08,7.82
					c-3.93,0.02-7.13-3.45-7.15-7.75C1078.57,820.57,1081.74,817.07,1085.66,817.05z"/>
				<path class="xrocket21" d="M1090.84,823.18c-0.59-0.7-0.84-2.52-1.72-3.3c-1.33-1.17-2.46-1.46-4.39-1.3
					c-1.93,0.16-3.53,3.76-3.53,3.76s3.38-1.25,5.1-1C1087.28,821.49,1090.84,823.18,1090.84,823.18z"/>
			</g>
		</g>
		<g>
			<path class="xrocket32" d="M1099.2,813.89c-0.57-0.48-1.26-0.92-2.06-1.3c-5.69-0.07-13.15-0.84-15.43-0.83
				c-2.01,0.01-11.85,0.96-16.72,1.16c-0.21,0.36-0.06,0.78,0.2,1.21C1072.51,813.95,1090.39,812.2,1099.2,813.89z"/>
			<g>
				<path class="xrocket19" d="M1097.87,805.3c4.52-0.02,8.21,4.03,8.23,9.04c0.02,5.02-3.62,9.1-8.14,9.12
					c-4.52,0.02-8.21-4.03-8.23-9.04C1089.7,809.41,1093.35,805.32,1097.87,805.3z"/>
				<path class="xrocket20" d="M1097.87,805.56c3.93-0.02,7.13,3.45,7.15,7.75c0.02,4.3-3.15,7.8-7.08,7.82
					c-3.93,0.02-7.13-3.45-7.15-7.75C1090.77,809.08,1093.94,805.58,1097.87,805.56z"/>
				<path class="xrocket21" d="M1103.05,811.69c-0.59-0.7-0.84-2.52-1.72-3.3c-1.33-1.18-2.46-1.46-4.39-1.3
					c-1.93,0.16-3.53,3.76-3.53,3.76s3.38-1.25,5.1-1C1099.48,810,1103.05,811.69,1103.05,811.69z"/>
			</g>
		</g>
		
			<linearGradient id="SVGID_13_" gradientUnits="userSpaceOnUse" x1="882.0219" y1="1058.7135" x2="917.0725" y2="840.1071" gradientTransform="matrix(-0.1111 -1.0798 0.9948 -0.1023 148.01 1897.8214)">
			<stop  offset="0" style="stop-color:#EF4629"/>
			<stop  offset="0.0282" style="stop-color:#EF4327"/>
			<stop  offset="0.1021" style="stop-color:#EF4024"/>
			<stop  offset="0.3077" style="stop-color:#EF3F23"/>
			<stop  offset="0.5328" style="stop-color:#D93624"/>
			<stop  offset="0.9539" style="stop-color:#B12123"/>
			<stop  offset="1" style="stop-color:#AC1E23"/>
		</linearGradient>
		<path class="xrocket33" d="M906.67,807.64c16.21-5.79,46.37,0.88,71.51-0.38c31.16-1.56,64.7-13.65,81.16-7.25
			c9.87,3.84,11.2,16.17,11.38,21.78c0.18,5.57,1.93,17.15-7.53,21.93c-15.96,8.07-58.55,16.49-89.86,18.06
			c-23.2,1.16-44.89-2.22-61.01-5.73c-18.54-4.04-24.33-15.52-24.58-23.52C887.49,825.11,890.72,813.34,906.67,807.64z"/>
		<g>
			<path class="xrocket34" d="M1044.13,849c-0.31-0.49-0.69-0.94-1.12-1.32c-3.11-0.1-7.18-0.91-8.43-0.91c-1.1,0-6.48,0.91-9.15,1.09
				c-0.11,0.37-0.04,0.78,0.11,1.23C1029.54,848.94,1039.32,847.26,1044.13,849z"/>
			<g>
				<path class="xrocket19" d="M1042.96,840.31c4.09,0,7.41,4.11,7.41,9.19c0,5.07-3.32,9.19-7.41,9.19c-4.09,0-7.41-4.11-7.41-9.19
					C1035.55,844.43,1038.87,840.31,1042.96,840.31z"/>
				<path class="xrocket20" d="M1042.96,840.58c3.56,0,6.44,3.53,6.44,7.88c0,4.35-2.88,7.87-6.44,7.87c-3.55,0-6.44-3.53-6.44-7.87
					C1036.53,844.1,1039.41,840.58,1042.96,840.58z"/>
				<path class="xrocket21" d="M1047.62,846.8c-0.53-0.71-0.75-2.55-1.54-3.35c-1.2-1.2-2.22-1.49-3.97-1.33
					c-1.75,0.15-3.21,3.79-3.21,3.79s3.07-1.24,4.62-0.98C1044.4,845.07,1047.62,846.8,1047.62,846.8z"/>
			</g>
		</g>
		<g>
			<path class="xrocket34" d="M1039.84,835.08c-0.31-0.49-0.69-0.94-1.12-1.32c-3.11-0.1-7.19-0.91-8.43-0.91c-1.1,0-6.48,0.91-9.15,1.09
				c-0.11,0.37-0.04,0.78,0.11,1.23C1025.25,835.01,1035.03,833.33,1039.84,835.08z"/>
			<g>
				<path class="xrocket19" d="M1038.68,826.39c4.09,0,7.41,4.11,7.41,9.19c0,5.07-3.32,9.19-7.41,9.19c-4.09,0-7.41-4.11-7.41-9.19
					C1031.27,830.5,1034.58,826.39,1038.68,826.39z"/>
				<path class="xrocket20" d="M1038.68,826.65c3.56,0,6.44,3.53,6.44,7.87c0,4.35-2.88,7.87-6.44,7.87c-3.55,0-6.44-3.53-6.44-7.87
					C1032.24,830.18,1035.12,826.65,1038.68,826.65z"/>
				<path class="xrocket21" d="M1043.34,832.87c-0.53-0.71-0.75-2.55-1.54-3.35c-1.2-1.19-2.22-1.49-3.97-1.33
					c-1.75,0.15-3.21,3.79-3.21,3.79s3.07-1.24,4.62-0.98C1040.11,831.14,1043.34,832.87,1043.34,832.87z"/>
			</g>
		</g>
		<g>
			<path class="xrocket34" d="M1042.08,873.46c-0.31-0.49-0.69-0.94-1.12-1.32c-3.11-0.1-7.18-0.91-8.43-0.91c-1.1,0-6.48,0.91-9.15,1.09
				c-0.11,0.37-0.03,0.78,0.11,1.23C1027.49,873.39,1037.27,871.71,1042.08,873.46z"/>
			<g>
				<path class="xrocket19" d="M1040.91,864.77c4.09,0,7.41,4.11,7.41,9.19c0,5.07-3.32,9.19-7.41,9.19c-4.09,0-7.41-4.11-7.41-9.19
					C1033.5,868.88,1036.82,864.77,1040.91,864.77z"/>
				<path class="xrocket20" d="M1040.91,865.03c3.56,0,6.44,3.53,6.44,7.88c0,4.35-2.88,7.87-6.44,7.87c-3.55,0-6.44-3.53-6.44-7.87
					C1034.48,868.56,1037.36,865.03,1040.91,865.03z"/>
				<path class="xrocket21" d="M1045.57,871.25c-0.53-0.71-0.75-2.55-1.54-3.35c-1.2-1.2-2.22-1.49-3.97-1.33
					c-1.75,0.15-3.21,3.79-3.21,3.79s3.07-1.24,4.62-0.98C1042.35,869.52,1045.57,871.25,1045.57,871.25z"/>
			</g>
		</g>
		<g>
			<path class="xrocket35" d="M1055.74,863.5c-0.51-0.48-1.14-0.93-1.86-1.31c-5.15-0.07-11.9-0.85-13.96-0.83
				c-1.82,0.01-10.72,0.97-15.13,1.17c-0.19,0.37-0.06,0.78,0.19,1.23C1031.59,863.56,1047.78,861.8,1055.74,863.5z"/>
			<g>
				<path class="xrocket19" d="M1054.54,854.81c4.09-0.02,7.43,4.07,7.45,9.15c0.02,5.07-3.28,9.2-7.37,9.22
					c-4.09,0.02-7.43-4.07-7.45-9.15C1047.15,858.96,1050.45,854.84,1054.54,854.81z"/>
				<path class="xrocket20" d="M1054.54,855.08c3.56-0.02,6.45,3.49,6.47,7.84c0.02,4.35-2.85,7.89-6.4,7.91
					c-3.55,0.02-6.45-3.49-6.47-7.84C1048.12,858.64,1050.99,855.09,1054.54,855.08z"/>
				<path class="xrocket21" d="M1059.23,861.27c-0.54-0.7-0.76-2.55-1.56-3.34c-1.2-1.19-2.22-1.48-3.97-1.31
					c-1.75,0.16-3.19,3.81-3.19,3.81s3.06-1.26,4.61-1.01C1056,859.56,1059.23,861.27,1059.23,861.27z"/>
			</g>
		</g>
		
			<linearGradient id="SVGID_14_" gradientUnits="userSpaceOnUse" x1="575.8426" y1="931.1249" x2="657.4969" y2="892.2892" gradientTransform="matrix(-1.836970e-16 -1 1 -1.836970e-16 58.6292 1489.7618)">
			<stop  offset="0" style="stop-color:#EF4629"/>
			<stop  offset="0.0246" style="stop-color:#EF4327"/>
			<stop  offset="0.0894" style="stop-color:#EF4024"/>
			<stop  offset="0.2692" style="stop-color:#EF3F23"/>
			<stop  offset="0.4898" style="stop-color:#E23924"/>
			<stop  offset="0.8285" style="stop-color:#CB2925"/>
			<stop  offset="1" style="stop-color:#BE2026"/>
		</linearGradient>
		<path class="xrocket36" d="M902.93,825.86c13.26-3.78,36.5,5.17,56.42,6.39c24.7,1.51,52.14-6.41,64.59,1.01
			c7.47,4.45,7.52,15.88,7.2,21.04c-0.31,5.12,0.13,15.89-7.72,19.39c-13.25,5.89-47.51,9.6-72.33,8.08
			c-18.39-1.12-35.22-6.26-47.65-11.01c-14.29-5.45-17.93-16.51-17.48-23.87C886.39,840.07,889.89,829.58,902.93,825.86z"/>
		<g>
			<g>
				
					<linearGradient id="SVGID_15_" gradientUnits="userSpaceOnUse" x1="600.3367" y1="828.5117" x2="737.8364" y2="825.3287" gradientTransform="matrix(-1.836970e-16 -1 1 -1.836970e-16 58.6292 1489.7618)">
					<stop  offset="0" style="stop-color:#EF4629"/>
					<stop  offset="0.0156" style="stop-color:#EF4327"/>
					<stop  offset="0.0565" style="stop-color:#EF4024"/>
					<stop  offset="0.1703" style="stop-color:#EF3F23"/>
					<stop  offset="0.3587" style="stop-color:#E03A24"/>
					<stop  offset="0.6342" style="stop-color:#C52F23"/>
					<stop  offset="0.9617" style="stop-color:#9E1D1F"/>
					<stop  offset="1" style="stop-color:#991B1E"/>
				</linearGradient>
				<path class="xrocket37" d="M900.03,751.6c-2.72,0-5.13,1.7-7.24,4.67c-4.36-4.49-9.37-6.19-13.03-1.14
					c-1.67-1.56-3.49-2.43-5.49-2.43c-26.16,0-26.46,126.34-0.45,126.34c3.05,0,5.72-1.95,8.02-5.37c3.91,4.5,8.56,6.29,12.71,2.07
					c1.55,1.43,3.24,2.2,5.08,2.2C921.76,877.95,921.97,751.6,900.03,751.6z"/>
			</g>
		</g>
		
			<linearGradient id="SVGID_16_" gradientUnits="userSpaceOnUse" x1="631.1471" y1="827.2941" x2="727.9763" y2="826.3541" gradientTransform="matrix(-1.836970e-16 -1 1 -1.836970e-16 58.6292 1489.7618)">
			<stop  offset="0" style="stop-color:#EF4629"/>
			<stop  offset="0.0282" style="stop-color:#EF4327"/>
			<stop  offset="0.1021" style="stop-color:#EF4024"/>
			<stop  offset="0.3077" style="stop-color:#EF3F23"/>
			<stop  offset="0.5327" style="stop-color:#CF3024"/>
			<stop  offset="0.819" style="stop-color:#B52323"/>
			<stop  offset="1" style="stop-color:#AC1E23"/>
		</linearGradient>
		<path class="xrocket38" d="M885.5,752.74c9,0,16.29,27.83,16.29,62.15c0,34.32-7.29,62.15-16.29,62.15c-9,0-16.29-27.83-16.29-62.15
			C869.21,780.56,876.5,752.74,885.5,752.74z"/>
	</g>
</g>

</svg>
