<?xml version="1.0" encoding="utf-8"?>
<!-- Generator: Adobe Illustrator 24.3.0, SVG Export Plug-In . SVG Version: 6.00 Build 0)  -->
<svg version="1.1" id="Layer_1" xmlns="http://www.w3.org/2000/svg" xmlns:xlink="http://www.w3.org/1999/xlink" x="0px" y="0px"
	 viewBox="0 0 1400 980" style="enable-background:new 0 0 1400 980;" xml:space="preserve">
<style type="text/css">
	.xearth0{fill:#0A1018;}
	.xearth1{fill:#E8962C;}
	.xearth2{fill:#FFE76D;}
	.xearth3{fill:#FFD800;}
	.xearth4{fill:#FFE242;}
	.xearth5{fill:#1FBBF8;}
	.xearth6{fill:#A4B534;}
	.xearth7{fill:#E7F288;}
	.xearth8{opacity:0.1;fill:#072936;}
	.xearth9{fill:url(#SVGID_1_);}
	.xearth10{fill:url(#SVGID_2_);}
	.xearth11{fill:url(#SVGID_3_);}
	.xearth12{fill:url(#SVGID_4_);}
	.xearth13{fill:#D6D0D0;}
	.xearth14{fill:#FCFAFA;}
	.xearth15{fill:#BCB7B7;}
	.xearth16{fill:#FFFFFF;}
	.xearth17{fill:#DDDBDB;}
	.xearth18{fill:url(#SVGID_5_);}
	.xearth19{fill:url(#SVGID_6_);}
</style>
<rect class="xearth0" width="100%" height="100%"/>
<g>
	<g>
		<path id="orange" class="xearth1" d="M824.82,530.56c1.81-5.59,6.49-9.6,12.38-11.39c-4.65-4.04-7.29-9.6-6.67-15.44
			c0.61-5.84,4.35-10.74,9.74-13.72c-5.39-2.98-9.13-7.87-9.74-13.72c-0.61-5.84,2.02-11.41,6.67-15.45
			c-5.89-1.8-10.56-5.81-12.38-11.39c-1.82-5.59-0.39-11.58,3.32-16.5c-6.13-0.53-11.54-3.48-14.48-8.57
			c-2.94-5.09-2.79-11.24-0.18-16.83c-6.11,0.75-12.01-1.01-15.94-5.37c-3.93-4.37-5.07-10.42-3.68-16.42
			c-5.82,2.01-11.96,1.51-16.71-1.94c-4.75-3.45-7.12-9.14-7.01-15.3c-5.28,3.17-11.38,3.97-16.75,1.58
			c-5.37-2.39-8.87-7.46-10.04-13.5c-4.5,4.2-10.31,6.25-16.06,5.02c-5.75-1.22-10.22-5.45-12.63-11.12
			c-3.53,5.05-8.79,8.25-14.66,8.25c-5.88,0-11.13-3.21-14.66-8.25c-2.4,5.67-6.88,9.9-12.63,11.12
			c-5.75,1.22-11.56-0.82-16.06-5.02c-1.17,6.05-4.67,11.11-10.04,13.5c-5.37,2.39-11.47,1.6-16.75-1.58
			c0.11,6.16-2.26,11.84-7.01,15.3c-4.75,3.45-10.89,3.95-16.71,1.94c1.39,6,0.26,12.05-3.68,16.42c-3.93,4.37-9.83,6.13-15.94,5.37
			c2.61,5.58,2.75,11.74-0.18,16.82c-2.94,5.09-8.34,8.04-14.48,8.57c3.71,4.92,5.13,10.91,3.32,16.49
			c-1.82,5.59-6.49,9.6-12.38,11.39c4.65,4.04,7.29,9.6,6.68,15.44c-0.61,5.84-4.35,10.74-9.74,13.72
			c5.39,2.98,9.13,7.88,9.74,13.72c0.62,5.84-2.02,11.41-6.68,15.45c5.89,1.8,10.57,5.81,12.38,11.39
			c1.82,5.59,0.39,11.58-3.32,16.5c6.14,0.53,11.54,3.48,14.48,8.57c2.94,5.09,2.79,11.24,0.18,16.82
			c6.11-0.75,12.01,1.01,15.94,5.37c3.93,4.37,5.07,10.42,3.68,16.42c5.82-2.01,11.96-1.51,16.71,1.94
			c4.75,3.45,7.12,9.14,7.01,15.3c5.28-3.18,11.38-3.97,16.75-1.58c5.37,2.39,8.87,7.46,10.04,13.5c4.5-4.2,10.31-6.25,16.06-5.02
			c5.75,1.22,10.22,5.45,12.63,11.12c3.53-5.05,8.79-8.25,14.66-8.25c5.88,0,11.13,3.21,14.66,8.25c2.4-5.67,6.88-9.9,12.63-11.12
			c5.75-1.22,11.56,0.82,16.06,5.02c1.17-6.05,4.67-11.11,10.04-13.5c5.37-2.39,11.48-1.6,16.75,1.58
			c-0.11-6.16,2.26-11.84,7.01-15.3c4.75-3.45,10.89-3.95,16.71-1.94c-1.39-6-0.25-12.05,3.68-16.42c3.93-4.37,9.83-6.13,15.94-5.38
			c-2.61-5.58-2.75-11.74,0.18-16.82c2.94-5.09,8.34-8.04,14.48-8.57C824.43,542.13,823.01,536.14,824.82,530.56z"/>
		
			<ellipse transform="matrix(0.9996 -0.0293 0.0293 0.9996 -14.0701 20.7411)" class="xearth2" cx="700" cy="490" rx="117.89" ry="117.89"/>
		
			<ellipse transform="matrix(0.1946 -0.9809 0.9809 0.1946 83.1226 1081.2378)" class="xearth3" cx="700" cy="490" rx="101.25" ry="101.25"/>
		<path class="xearth4" d="M628.84,512.96c0-55.92,45.33-101.25,101.25-101.25c16.26,0,31.63,3.84,45.25,10.66
			c-18.54-20.63-45.42-33.62-75.34-33.62c-55.92,0-101.25,45.33-101.25,101.25c0,39.65,22.8,73.98,56,90.6
			C638.65,562.67,628.84,538.96,628.84,512.96z"/>
	</g>
	<g class="earth">
		<path class="xearth5" d="M802.93,490c0,56.85-46.08,102.93-102.93,102.93c-56.84,0-102.93-46.08-102.93-102.93
			c0-56.85,46.08-102.93,102.93-102.93C756.85,387.07,802.93,433.16,802.93,490z"/>
		<path class="xearth6" d="M598.06,475.74c6.46,4.96,15.69,8,21.13,12.8c2.48,2.19,2.36,5.77,4.29,7.94c2.29,2.57,8.16,1.27,6.67,5.2
			c-2.59,6.81-3.22,10.06,7.26,26.3c1.57,2.43,7.82,7.62,4.62,22.35c-1.32,6.09,2.67,8.64,4.68,14.33
			c2.85,8.04,0.98,13.65,9.6,10.97c-0.8-6.74,2.93-10.22,3.66-13.83c1.02-5.05,5.43-9.1,7.43-13.94c1.83-4.44-0.68-8,4.34-10.62
			c4.75-2.48,6.09-4.53,7.77-11.54c1.55-6.5,8.66-10.43,2.26-15.32c-4.23-3.23-9.13-6.52-13.88-9.05
			c-9.19-4.9-22.16-16.48-31.34-11.73c-4.72,2.44-5.94,0.91-5.94,0.91c-1.04-1.43-4.02-4.18-3.52-5.99c0.53-1.9,4.1-1.83,4.38-4.06
			c0.13-1.02-1.53-3.66-1.68-5.6c-1.02-13.38,7.93-15.84,11.55-19.78c4.26-4.62,11.48-8.11,16.22-11.2c4.09-2.66,11.9-4.24,11-10.04
			c-0.77-5-4.95-6.27-10.09-5.5c-2.89,0.43-14.17,1.33-13.25-6.4c0.35-2.92,6.19-0.32,7.98-2.25c1.87-2.01,2.34-5.24,4.45-6.85
			c-2.1,2.36-16.54-2.32-23.47,3.16c-2.19,1.73-3.87,1.11-5.6-0.12C612.39,431.5,601.3,452.37,598.06,475.74z"/>
		<path class="xearth6" d="M771.15,415.63c-0.41,0.32-0.85,0.67-1.36,1.06c-1.93,1.45-5.23,2.69-7.68,2.27
			c-0.06-1.48-0.14-2.98,0.17-4.43c-1.6-0.05-3.35-0.2-4.95-0.02c-2.25,0.24-4.21,1.56-6.28,2c-5.5,1.18-8.21-1.13-13,3.66
			c-2.73,2.73-5.19,8.33-0.83,9.86c1.2,0.42,5.27,0.95,6.51,0.33c2.19-1.11,0.59-4.14,2.49-5.18c1.02-0.56,3.82,0.97,4.28,1.8
			c1.64,2.94-1.47,3.98-3.45,5.1c-3.69,2.09-7.13,1.9-11.43,1.92c-4.27,0.02-9.39,2.02-10.99,6.38c-0.74,2.03-0.6,3.12-1.56,4.79
			c-0.14,0.24-2,2.98-2.09,3.03c-0.97,0.58-2.46-0.34-3.44,0.11c-6.04,2.76,0.31,8.96,5.23,7.62c2.48-0.68,2.22-2.37,4.54-3.89
			c2.09-1.37,4.68-1.29,7.16-1.29c6.46,0.02,10.89,2.05,16.35,5.12c4.79,2.7,10.17,3.72,14.62,6.53c-0.89,2.38-9.09,1.87-11.58,1.46
			c-4.08-0.66-8.14-3.5-12.13-4.8c-3.52-1.15-8.52-1.89-11.99-0.08c-4.47,2.34-8.37,6.46-12.29,9.55c-4,3.15-8.12,5.03-9.22,9.94
			c-0.55,2.45-1.78,5.34-2.61,7.88c-1,3.03-0.92,3.27,1.89,5.29c1.92,1.38,3.97,2.31,5.52,4.2c1.48,1.82,2.26,5.21,4.53,6.36
			c2.94,1.48,7.97,0.05,11.22,0.35c2.24,0.21,6.37,0.51,7.86,2.49c0.66,0.88,0.31,2.2,0.79,3.07c0.84,1.57,1.59,1.32,2.09,3.29
			c0.72,2.84,0.61,5.39,1.73,8.27c1.1,2.8,3.27,5.83,3.06,8.94c-0.25,3.72-3.15,6.8-2,10.81c0.74,2.59,3.05,2.84,4.55,4.72
			c1.59,1.99,2,5.26,2.98,7.65c2.26,5.46,4.33,1.85,5.93-2.07c2.02-4.95,5.91-9.29,9.03-13.52c3.28-4.43,7.95-7.87,11.36-12.26
			c2.58-3.33,2.66-6.45,3.39-10.49c0.71-3.94,0.59-8.16,2.16-11.79c1.63-3.78,3.61-6.61,4.4-10.68c-1.39,0.37-3.03,0.86-4.5,0.59
			c-2.49-0.45-1.7-0.46-2.5-2.36c-1.25-3-1.4-5.34-3.3-8.32c-1.44-2.27-1.84-4.72-3.02-6.98c-1.24-2.38-3.94-3.9-4.31-6.67
			c2.53-0.54,5.14,3.64,6.12,5.46c1.6,2.95,2.36,3.73,4.87,6.07c1.4,1.31,1.71,6.45,3.26,7.29c1.84,1,6.87-2.05,8.25-3.16
			c3.02-2.43,6.42-4.46,7.42-8.19c0.43-1.62,0.46-2.99,1.18-4.45c0.28-0.58,0.67-1.12,1.08-1.67
			C796.33,447.99,785.81,429.66,771.15,415.63z"/>
		<path class="xearth7" d="M700,592.93c13.1,0,25.62-2.45,37.14-6.91c-2.86-0.33-5.83-0.3-8.5-0.3c-3.54,0-7.48,0.46-11.01,0
			c-3.64-0.48-7.11-1.95-10.93-2.49c-6.77-0.95-14.34-1.53-20.43,1.66c-3.02,1.59-5.84,3.21-8.77,4.87
			c-0.26,0.15-0.59,0.31-0.96,0.48C684.09,592,691.94,592.93,700,592.93z"/>
		<path class="xearth7" d="M700,387.07c-15.88,0-30.91,3.6-44.33,10.02c1.82,0.73,3.79,1.31,5.15,1.98c4.64,2.27,6.67-1.21,10.06-0.67
			c3.26,0.53,7.64,3.66,11.07,4.82c4.68,1.59,8.5,1.35,13.28,2.12c4.09,0.65,7.48,2.36,11.34,3.65c3.31,1.1,9.7,2.01,12.61-1.16
			c1.19-1.3,1.83-4.18,0.36-5.9c-1.34-1.56-4.07-0.67-4.29-3c5.03-2.42,13.25-0.79,18.5-1.59c2.93-0.45,6.1-0.21,9.02-0.98
			C729.74,390.4,715.26,387.07,700,387.07z"/>
		<path class="xearth8" d="M649.94,509.5c0-56.85,46.08-102.93,102.93-102.93c2.63,0,5.24,0.1,7.82,0.29
			c-17.02-12.44-37.99-19.79-60.68-19.79c-56.84,0-102.93,46.08-102.93,102.93c0,54.22,41.92,98.64,95.11,102.63
			C666.58,573.91,649.94,543.65,649.94,509.5z"/>
	<g>
	
		<linearGradient id="SVGID_1_" gradientUnits="userSpaceOnUse" x1="720.9813" y1="397.1888" x2="820.5855" y2="397.1888" gradientTransform="matrix(0.9973 0.0738 -0.0738 0.9973 12.6905 -56.2822)">
		<stop  offset="0" style="stop-color:#FF1700"/>
		<stop  offset="0.6099" style="stop-color:#FF1700"/>
		<stop  offset="0.6139" style="stop-color:#FD1700"/>
		<stop  offset="0.6787" style="stop-color:#EA1C00"/>
		<stop  offset="0.7525" style="stop-color:#DC1F00"/>
		<stop  offset="0.8434" style="stop-color:#D32100"/>
		<stop  offset="1" style="stop-color:#D12200"/>
		<stop  offset="1" style="stop-color:#C62000"/>
		<stop  offset="1" style="stop-color:#9D1A00"/>
		<stop  offset="1" style="stop-color:#771300"/>
		<stop  offset="1" style="stop-color:#570E00"/>
		<stop  offset="1" style="stop-color:#3B0A00"/>
		<stop  offset="1" style="stop-color:#250600"/>
		<stop  offset="1" style="stop-color:#140300"/>
		<stop  offset="1" style="stop-color:#090100"/>
		<stop  offset="1" style="stop-color:#020000"/>
		<stop  offset="1" style="stop-color:#000000"/>
	</linearGradient>
	<path class="xearth9" d="M702.4,393.02c2.96-7.09,33.24-37.74,39.3-37.29c6.06,0.45,60.3,41,59.68,49.48
		c-0.63,8.48-17.14,34.05-21.98,33.7C774.55,438.55,702.4,393.02,702.4,393.02z"/>
	
		<linearGradient id="SVGID_2_" gradientUnits="userSpaceOnUse" x1="786.0412" y1="400.7565" x2="812.41" y2="427.1252" gradientTransform="matrix(0.9973 0.0738 -0.0738 0.9973 12.6905 -56.2822)">
		<stop  offset="0" style="stop-color:#FF3F1F"/>
		<stop  offset="0.3297" style="stop-color:#FF3600"/>
		<stop  offset="0.9281" style="stop-color:#8D0E00"/>
		<stop  offset="1" style="stop-color:#7F0900"/>
	</linearGradient>
	<path class="xearth10" d="M799.9,410.58c-6.46-5.37-21.64-16.95-23.49-17.09c-2.27-0.17,0.39,12.42-4.06,19.6
		c-4.44,7.17-2.97,9.24-3.05,14.78c-0.04,2.53,0.49,4.83,1.52,6.86c4.54,2.54,7.69,4.12,8.57,4.18
		C783.45,439.21,795.65,421.38,799.9,410.58z"/>
	
		<linearGradient id="SVGID_3_" gradientUnits="userSpaceOnUse" x1="757.421" y1="412.9321" x2="858.4547" y2="412.9321" gradientTransform="matrix(0.9973 0.0738 -0.0738 0.9973 12.6905 -56.2822)">
		<stop  offset="0" style="stop-color:#FF1700"/>
		<stop  offset="0.4341" style="stop-color:#FF1700"/>
		<stop  offset="0.5302" style="stop-color:#ED1B00"/>
		<stop  offset="0.659" style="stop-color:#DD1F00"/>
		<stop  offset="0.8045" style="stop-color:#D42100"/>
		<stop  offset="1" style="stop-color:#D12200"/>
		<stop  offset="1" style="stop-color:#C62000"/>
		<stop  offset="1" style="stop-color:#9D1A00"/>
		<stop  offset="1" style="stop-color:#771300"/>
		<stop  offset="1" style="stop-color:#570E00"/>
		<stop  offset="1" style="stop-color:#3B0A00"/>
		<stop  offset="1" style="stop-color:#250600"/>
		<stop  offset="1" style="stop-color:#140300"/>
		<stop  offset="1" style="stop-color:#090100"/>
		<stop  offset="1" style="stop-color:#020000"/>
		<stop  offset="1" style="stop-color:#000000"/>
	</linearGradient>
	<path class="xearth11" d="M741.7,355.73c4.4-3.26,46.93-15.87,54.85-12.14c15.05,1.11,42.07,27.7,41.84,47.85
		c-0.23,20.15,0.4,71.26-12.3,98.05c-7.06,10.19-18.61-65.33-27.5-71.37C789.71,412.09,741.7,355.73,741.7,355.73z"/>
	
		<linearGradient id="SVGID_4_" gradientUnits="userSpaceOnUse" x1="836.9474" y1="365.1437" x2="836.9474" y2="485.3244" gradientTransform="matrix(0.9973 0.0738 -0.0738 0.9973 12.6905 -56.2822)">
		<stop  offset="0" style="stop-color:#FF3F1F"/>
		<stop  offset="0.4121" style="stop-color:#FF3600"/>
		<stop  offset="0.4913" style="stop-color:#EA2F00"/>
		<stop  offset="0.7295" style="stop-color:#B11A00"/>
		<stop  offset="0.906" style="stop-color:#8D0E00"/>
		<stop  offset="1" style="stop-color:#7F0900"/>
	</linearGradient>
	<path class="xearth12" d="M838.39,391.45c0.08-6.69-2.86-14.1-7.37-21.04c-2.59,1.38-6.42,10.02-7.71,12.56
		c-1.34,2.65-2.74,9.2-3.77,13.71c-1.02,4.51-2.57,9.9-2.79,12.87c-0.22,2.97-5.05,6.28-10.4,7.26c-5.35,0.98-5.51,0.05-10.87-1.95
		c0,0,0.04,0.28,0.12,0.78c1.23,1.14,2.24,1.99,2.98,2.49c8.89,6.04,20.44,81.56,27.5,71.37
		C838.79,462.7,838.16,411.6,838.39,391.45z"/>
	<path class="xearth13" d="M740.59,456.73c-15.75-3.65-17.93-3.8-20.16-13.06c-2.23-9.26,1.33-8.17-14.48-10.99
		c-15.81-2.82-24.56-12.56-25.46-20.06c-0.9-7.5-0.41-23.99,7.14-27.57c7.55-3.57,11.84-12.35,28.61-2.84
		c16.78,9.5,11.28,14.88,24.2,17.49c12.92,2.61,10.07,21.4,24.26,16.67c14.19-4.73-0.91,12.33,14.54,10.17
		c15.45-2.16,22.56,8.66,20.39,18.41c-2.18,9.75-8.95,23.75-14.44,24.77c-5.49,1.02-18.54-1.06-23.71-9.79
		C756.3,451.2,740.59,456.73,740.59,456.73z"/>
	<path class="xearth14" d="M740.91,451.66c-14.42-3.16-16.41-3.3-18.49-11.11c-2.09-7.81,1.18-6.87-13.29-9.33
		c-14.47-2.46-22.52-10.71-23.38-17.03c-0.86-6.33-0.5-20.21,6.38-23.18c6.88-2.97,10.75-10.33,26.14-2.24
		c15.38,8.1,10.39,12.59,22.21,14.86c11.82,2.27,9.32,18.08,22.26,14.17c12.94-3.91-0.77,10.38,13.35,8.64
		c14.12-1.74,20.67,7.41,18.73,15.61c-1.94,8.21-8.05,19.96-13.07,20.79c-5.01,0.83-16.95-1-21.73-8.38
		C755.24,447.08,740.91,451.66,740.91,451.66z"/>
	<path class="xearth15" d="M841.17,496.87c-0.78,10.56-11.24,18.39-23.36,17.5c-12.12-0.9-21.31-10.18-20.53-20.74
		c0.78-10.56,11.24-18.39,23.36-17.5C832.76,477.03,841.95,486.31,841.17,496.87z"/>
	<path class="xearth16" d="M840.54,496.83c-0.68,9.17-9.65,15.99-20.04,15.22c-10.39-0.77-18.26-8.83-17.58-18
		c0.68-9.18,9.65-15.99,20.04-15.22C833.35,479.59,841.22,487.65,840.54,496.83z"/>
	<path class="xearth17" d="M824.79,507.76c1.79-1.25,6.24-1.48,8.28-3.39c3.08-2.88,3.97-5.46,3.94-10c-0.03-4.54-8.44-8.95-8.44-8.95
		s2.39,8.13,1.47,12.09C829.53,499.74,824.79,507.76,824.79,507.76z"/>
</g>
	</g>
	
</g>

<g class="glove">
	
		<linearGradient id="SVGID_5_" gradientUnits="userSpaceOnUse" x1="604.0466" y1="916.6524" x2="721.6686" y2="849.8738" gradientTransform="matrix(-0.9928 -0.1201 -0.1201 0.9928 1966.9865 107.7842)">
		<stop  offset="0" style="stop-color:#FF3F1F"/>
		<stop  offset="0.3297" style="stop-color:#FF3600"/>
		<stop  offset="1" style="stop-color:#990900"/>
	</linearGradient>
	<path class="xearth18" d="M1199.48,950.11c-10.27-4.58-18.55,11.07-25.7,0.29c-6.24-9.43-16.81-2.25-22.96-4.4
		c-6.72-22.37-13.17-63.55,1.22-65.49c11.19-1.51,13.77,13.68,16.1,17.69c2.33,4.02,2.15-5.41,2.78-15.78
		c1.13-18.32,11.46-43.91,36.94-42.82c16.18,0.69,35.07,10.49,38.5,27.68c2.49,12.53-8.55,54.77-17.18,82.34
		c-1.1-0.19-2.26-0.36-3.58-0.47C1208.91,947.85,1209.75,954.7,1199.48,950.11z"/>
	<path class="xearth13" d="M1174.16,932.12c12.06-6.14,15.58-2.71,21.99,2.03c6.86,5.06,6.29,2.82,17.75,2.47
		c13.44-0.41,20.1,2.39,23.32,7.83c3.22,5.44,8.41,18.24,3.84,23.52c-4.57,5.28-4.9,13.45-20.95,11.83
		c-16.06-1.62-13.66-7.59-24.43-5.23c-10.77,2.36-10.08-6.26-22.03-2.54c-9.72,3.03-5.44-9.73-16.54-2.86
		c-11.1,6.87-20.4-1.08-22.02-9.29c-1.62-8.21-1.16-21.21,2.7-23.84c3.86-2.64,14.56-5.44,21.46-0.5
		C1166.15,940.48,1170.22,934.12,1174.16,932.12z"/>
	<path class="xearth14" d="M1180.89,933.75c13.36-2,15.71,10.31,27.45,7.37c11.74-2.94,20.59,0.7,23.37,5.26
		c2.78,4.56,8.63,13.83,5.32,20.84c-2.64,5.61-6.31,9.6-20.64,8.52c-14.33-1.07-11.88-6.54-21.56-4.33
		c-9.68,2.2-11.13-9.86-19.57-2.55c-8.45,7.31-7.01-8.16-17.07-2.12c-10.06,6.04-19.16,0.07-20.46-6.86
		c-1.3-6.93,1.69-16.46,5.19-18.77c3.5-2.31,13.12-4.89,19.21-0.83C1168.22,944.34,1175.02,934.63,1180.89,933.75z"/>
	<path class="xearth17" d="M1218.42,971.19c1.93-0.63,5.77,0.14,8.13-0.97c3.56-1.67,5.16-3.58,6.62-7.29c1.46-3.7-4.21-9.1-4.21-9.1
		s-0.64,7.13-2.72,10.15C1225.06,965.7,1218.42,971.19,1218.42,971.19z"/>
</g>
<g class="glove">
	<g>
		
			<linearGradient id="SVGID_6_" gradientUnits="userSpaceOnUse" x1="130.5104" y1="919.6042" x2="248.1413" y2="852.8206" gradientTransform="matrix(0.9993 -0.0364 0.0364 0.9993 826.9957 26.572)">
			<stop  offset="0" style="stop-color:#FF3F1F"/>
			<stop  offset="0.3297" style="stop-color:#FF3600"/>
			<stop  offset="1" style="stop-color:#990900"/>
		</linearGradient>
		<path class="xearth19" d="M1048,950.43c10.62-3.71,17.56,12.59,25.59,2.45c7.01-8.87,16.94-0.84,23.25-2.46
			c8.57-21.73,18.45-62.22,4.28-65.36c-11.02-2.44-14.86,12.48-17.53,16.28c-2.66,3.81-1.69-5.57-1.45-15.96
			c0.41-18.35-7.74-44.72-33.22-45.77c-16.18-0.66-35.83,7.52-40.68,24.36c-3.53,12.28,3.93,55.29,10.22,83.49
			c1.11-0.1,2.28-0.17,3.61-0.16C1038.8,947.38,1037.39,954.14,1048,950.43z"/>
		<path class="xearth13" d="M1044.77,928.49c12.06-6.14,15.01-3.14,19.84,3.2c4.83,6.34,1.73,6.71,14.8,3.53
			c13.06-3.18,23.05,1.33,26.27,6.77c3.22,5.44,7.28,16.71,4.82,23.24c-2.78,7.38-5.88,13.72-21.94,12.11
			c-16.05-1.62-13.66-7.59-24.43-5.23c-10.77,2.36-26.4-11.51-37.51-4.64c-11.1,6.87-21.46-1.83-23.09-10.04
			c-1.62-8.21-6.46-12.1,0.86-19.48c3.29-3.31,16.39-9.81,23.3-4.87C1034.61,938.03,1040.83,930.5,1044.77,928.49z"/>
		<path class="xearth14" d="M1046.23,932.48c12.11-2.45,13.68-3.01,17.91,2.27c4.23,5.28,1.42,5.66,13.33,2.66
			c11.91-3,20.86,0.6,23.66,5.15c2.79,4.55,7.67,11.93,4.69,19.73c-2.23,5.86-6.5,11.71-21.02,10.71
			c-14.51-1.01-12.21-6.14-22.02-3.89c-9.82,2.25-23.43-12.84-33.65-6.74c-10.22,6.09-19.65,2.59-20.93-4.34
			c-1.29-6.94-6.32-15.39,2.99-20.33c3.76-1.99,13.32-4.96,19.47-0.92C1036.81,940.83,1046.23,932.48,1046.23,932.48z"/>
	</g>
	<path class="xearth17" d="M1086.14,968.72c1.93-0.63,5.77,0.14,8.14-0.97c3.56-1.67,5.16-3.58,6.62-7.28c1.46-3.7-4.21-9.1-4.21-9.1
		s-0.65,7.13-2.72,10.15C1092.79,963.22,1086.14,968.72,1086.14,968.72z"/>
</g>
</svg>
