<?xml version="1.0" encoding="utf-8"?>
<!-- Generator: Adobe Illustrator 24.3.0, SVG Export Plug-In . SVG Version: 6.00 Build 0)  -->
<svg version="1.1" id="Layer_1" xmlns="http://www.w3.org/2000/svg" xmlns:xlink="http://www.w3.org/1999/xlink" x="0px" y="0px"
	 viewBox="0 0 1400 980" style="enable-background:new 0 0 1400 980;" xml:space="preserve">
<style type="text/css">
	.xsun0{fill:#005D8A;}
	.xsun1{fill:#E8962C;}
	.xsun2{fill:#FFE76D;}
	.xsun3{fill:#FFD800;}
	.xsun4{fill:#FFE242;}
	.xsun5{fill:url(#SVGID_1_);}
	.xsun6{fill:url(#SVGID_2_);}
	.xsun7{fill:url(#SVGID_3_);}
	.xsun8{fill:url(#SVGID_4_);}
	.xsun9{fill:#D6D0D0;}
	.xsun10{fill:#FCFAFA;}
	.xsun11{fill:#BCB7B7;}
	.xsun12{fill:#FFFFFF;}
	.xsun13{fill:#DDDBDB;}
	.xsun14{fill:#CCCCCC;stroke:#B3B3B3;stroke-width:0.1848;}
	.xsun15{fill:#CCCCCC;stroke:#B3B3B3;stroke-width:0.1835;}
	.xsun16{fill:#CCCCCC;stroke:#B3B3B3;stroke-width:0.2377;}
	.xsun17{fill:url(#SVGID_5_);stroke:#C1272D;}
	.xsun18{fill:#CCCCCC;stroke:#B3B3B3;stroke-width:0.1768;}
	.xsun19{fill:#CCCCCC;stroke:#B3B3B3;stroke-width:0.2274;}
	.xsun20{fill:url(#SVGID_6_);stroke:#C1272D;}
	.xsun21{fill:url(#SVGID_7_);}
	.xsun22{fill:url(#SVGID_8_);}
</style>
<rect class="xsun0" width="100%" height="100%"/>
<g>
	<g>
		<path id="orange" class="xsun1" d="M902.92,570.75c2.83-9.04,10.13-15.52,19.32-18.43c-7.26-6.53-11.37-15.53-10.42-24.98
			c0.96-9.45,6.79-17.37,15.2-22.19c-8.41-4.83-14.24-12.74-15.2-22.19c-0.96-9.45,3.16-18.45,10.42-24.99
			c-9.19-2.91-16.48-9.39-19.32-18.43c-2.83-9.04-0.61-18.73,5.18-26.68c-9.57-0.86-18.01-5.63-22.59-13.86
			c-4.59-8.23-4.35-18.19-0.29-27.22c-9.54,1.22-18.74-1.63-24.88-8.69c-6.14-7.06-7.91-16.85-5.74-26.56
			c-9.08,3.25-18.66,2.45-26.08-3.14c-7.42-5.59-11.12-14.78-10.94-24.74c-8.23,5.14-17.76,6.42-26.14,2.55
			c-8.38-3.87-13.84-12.06-15.66-21.84c-7.02,6.8-16.09,10.1-25.06,8.13c-8.97-1.98-15.95-8.81-19.7-17.99
			c-5.51,8.16-13.71,13.35-22.88,13.35c-9.17,0-17.37-5.19-22.88-13.35c-3.75,9.17-10.73,16.01-19.7,17.99
			c-8.97,1.98-18.03-1.33-25.06-8.13c-1.83,9.78-7.29,17.98-15.66,21.84c-8.38,3.87-17.91,2.59-26.14-2.55
			c0.17,9.96-3.52,19.16-10.94,24.74c-7.42,5.59-16.99,6.39-26.08,3.14c2.17,9.71,0.4,19.5-5.74,26.56
			c-6.14,7.06-15.34,9.91-24.88,8.69c4.07,9.03,4.3,18.98-0.29,27.22c-4.58,8.23-13.02,13-22.59,13.87
			c5.79,7.95,8.01,17.64,5.18,26.68c-2.83,9.04-10.13,15.52-19.32,18.43c7.26,6.53,11.38,15.53,10.42,24.98
			c-0.96,9.45-6.79,17.37-15.2,22.19c8.41,4.82,14.24,12.74,15.2,22.19c0.96,9.45-3.16,18.45-10.42,24.99
			c9.19,2.91,16.49,9.39,19.32,18.43c2.83,9.04,0.61,18.73-5.18,26.68c9.57,0.86,18.01,5.63,22.59,13.87
			c4.59,8.23,4.35,18.19,0.29,27.22c9.54-1.22,18.75,1.63,24.88,8.69c6.14,7.06,7.91,16.85,5.74,26.56
			c9.09-3.25,18.66-2.45,26.08,3.14c7.42,5.59,11.11,14.78,10.94,24.74c8.24-5.14,17.76-6.42,26.14-2.55
			c8.38,3.87,13.84,12.06,15.66,21.85c7.03-6.8,16.09-10.11,25.06-8.13c8.97,1.97,15.95,8.81,19.7,17.99
			c5.51-8.17,13.71-13.35,22.88-13.35c9.17,0,17.37,5.18,22.88,13.35c3.75-9.18,10.73-16.02,19.7-17.99
			c8.97-1.98,18.03,1.33,25.06,8.13c1.83-9.78,7.29-17.98,15.66-21.84c8.38-3.87,17.91-2.59,26.14,2.55
			c-0.17-9.96,3.52-19.15,10.94-24.74c7.42-5.59,17-6.39,26.08-3.14c-2.17-9.71-0.4-19.5,5.74-26.56
			c6.14-7.06,15.34-9.91,24.88-8.69c-4.07-9.03-4.3-18.98,0.29-27.21c4.58-8.23,13.02-13,22.59-13.87
			C902.31,589.48,900.09,579.79,902.92,570.75z"/>
		<ellipse id="yellow" class="xsun2" cx="708.14" cy="505.14" rx="183.97" ry="190.71"/>
		<ellipse class="xsun3" cx="708.14" cy="505.14" rx="158" ry="163.79"/>
		<path class="xsun4" d="M597.1,542.28c0-90.46,70.74-163.79,158-163.79c25.38,0,49.36,6.21,70.61,17.24
			c-28.92-33.38-70.88-54.38-117.57-54.38c-87.26,0-158,73.33-158,163.79c0,64.15,35.58,119.67,87.39,146.55
			C612.39,622.69,597.1,584.34,597.1,542.28z"/>
	</g>
</g>
<g>
	<linearGradient id="SVGID_1_" gradientUnits="userSpaceOnUse" x1="730.4094" y1="288.632" x2="882.6467" y2="288.632">
		<stop  offset="0" style="stop-color:#FF1700"/>
		<stop  offset="0.6099" style="stop-color:#FF1700"/>
		<stop  offset="0.6139" style="stop-color:#FD1700"/>
		<stop  offset="0.6787" style="stop-color:#EA1C00"/>
		<stop  offset="0.7525" style="stop-color:#DC1F00"/>
		<stop  offset="0.8434" style="stop-color:#D32100"/>
		<stop  offset="1" style="stop-color:#D12200"/>
		<stop  offset="1" style="stop-color:#C62000"/>
		<stop  offset="1" style="stop-color:#9D1A00"/>
		<stop  offset="1" style="stop-color:#771300"/>
		<stop  offset="1" style="stop-color:#570E00"/>
		<stop  offset="1" style="stop-color:#3B0A00"/>
		<stop  offset="1" style="stop-color:#250600"/>
		<stop  offset="1" style="stop-color:#140300"/>
		<stop  offset="1" style="stop-color:#090100"/>
		<stop  offset="1" style="stop-color:#020000"/>
		<stop  offset="1" style="stop-color:#000000"/>
	</linearGradient>
	<path class="xsun5" d="M730.41,288.63c3.71-11.14,46.41-61.27,55.7-61.27c9.28,0,96.54,55.7,96.54,68.69
		c0,13-22.28,53.84-29.71,53.84C845.51,349.9,730.41,288.63,730.41,288.63z"/>
	<linearGradient id="SVGID_2_" gradientUnits="userSpaceOnUse" x1="829.8484" y1="294.0849" x2="870.1511" y2="334.3876">
		<stop  offset="0" style="stop-color:#FF3F1F"/>
		<stop  offset="0.3297" style="stop-color:#FF3600"/>
		<stop  offset="0.9281" style="stop-color:#8D0E00"/>
		<stop  offset="1" style="stop-color:#7F0900"/>
	</linearGradient>
	<path class="xsun6" d="M881.01,304.39c-10.46-7.45-34.89-23.39-37.74-23.39c-3.48,0,1.99,18.89-3.98,30.33
		c-5.96,11.44-3.48,14.42-2.98,22.87c0.23,3.86,1.3,7.31,3.09,10.29c7.21,3.35,12.18,5.41,13.54,5.41
		C859.15,349.9,875.74,321.35,881.01,304.39z"/>
	<linearGradient id="SVGID_3_" gradientUnits="userSpaceOnUse" x1="786.1047" y1="312.6945" x2="940.5267" y2="312.6945">
		<stop  offset="0" style="stop-color:#FF1700"/>
		<stop  offset="0.4341" style="stop-color:#FF1700"/>
		<stop  offset="0.5302" style="stop-color:#ED1B00"/>
		<stop  offset="0.659" style="stop-color:#DD1F00"/>
		<stop  offset="0.8045" style="stop-color:#D42100"/>
		<stop  offset="1" style="stop-color:#D12200"/>
		<stop  offset="1" style="stop-color:#C62000"/>
		<stop  offset="1" style="stop-color:#9D1A00"/>
		<stop  offset="1" style="stop-color:#771300"/>
		<stop  offset="1" style="stop-color:#570E00"/>
		<stop  offset="1" style="stop-color:#3B0A00"/>
		<stop  offset="1" style="stop-color:#250600"/>
		<stop  offset="1" style="stop-color:#140300"/>
		<stop  offset="1" style="stop-color:#090100"/>
		<stop  offset="1" style="stop-color:#020000"/>
		<stop  offset="1" style="stop-color:#000000"/>
	</linearGradient>
	<path class="xsun7" d="M786.1,227.37c6.34-5.47,69.75-29.49,82.24-24.69c23.06,0,67.25,37.47,69.17,68.22
		c1.92,30.75,8.65,108.57-7.69,150.84c-9.61,16.33-35.73-97.48-49.96-105.69C865.65,307.85,786.1,227.37,786.1,227.37z"/>
	<linearGradient id="SVGID_4_" gradientUnits="userSpaceOnUse" x1="907.6546" y1="239.6535" x2="907.6546" y2="423.3405">
		<stop  offset="0" style="stop-color:#FF3F1F"/>
		<stop  offset="0.4121" style="stop-color:#FF3600"/>
		<stop  offset="0.4913" style="stop-color:#EA2F00"/>
		<stop  offset="0.7295" style="stop-color:#B11A00"/>
		<stop  offset="0.906" style="stop-color:#8D0E00"/>
		<stop  offset="1" style="stop-color:#7F0900"/>
	</linearGradient>
	<path class="xsun8" d="M937.52,270.9c-0.64-10.21-5.96-21.16-13.6-31.24c-3.79,2.4-8.66,16-10.33,20.01
		c-1.75,4.2-3.14,14.34-4.19,21.33c-1.05,6.99-2.8,15.38-2.8,19.93c0,4.54-6.99,10.14-15.03,12.24c-8.04,2.1-8.39,0.7-16.78-1.75
		c0,0,0.1,0.43,0.27,1.17c2,1.59,3.64,2.78,4.82,3.46c14.23,8.21,40.36,122.02,49.96,105.69
		C946.17,379.46,939.44,301.64,937.52,270.9z"/>
	<path class="xsun9" d="M795.8,381.44c-24.42-3.78-27.75-3.78-32.19-17.63c-4.44-13.86,1.11-12.6-23.31-15.12
		c-24.42-2.52-38.85-16.37-41.07-27.71c-2.22-11.34-3.33-36.53,7.77-42.82c11.1-6.3,16.65-20.15,43.29-7.56
		c26.64,12.6,18.87,21.41,38.85,23.93c19.98,2.52,17.76,31.49,38.86,22.67c21.09-8.82,0,18.89,23.31,13.86
		c23.31-5.04,35.37,10.65,33.15,25.76c-2.22,15.11-10.97,37.21-19.22,39.39c-8.25,2.18-28.38,0.47-37.25-12.26
		C819.13,371.23,795.8,381.44,795.8,381.44z"/>
	<path class="xsun10" d="M795.73,373.67c-22.33-3.19-25.38-3.18-29.44-14.85c-4.06-11.67,1.02-10.61-21.32-12.73
		c-22.34-2.12-35.53-13.78-37.56-23.33c-2.03-9.54-3.05-30.75,7.11-36.05c10.15-5.3,15.23-16.96,39.59-6.36
		c24.36,10.61,17.26,18.02,35.53,20.15c18.27,2.12,16.24,26.51,35.53,19.09c19.29-7.42,0,15.9,21.32,11.66
		c21.32-4.24,32.34,8.96,30.31,21.69c-2.03,12.73-10.03,31.33-17.57,33.16c-7.54,1.83-25.95,0.39-34.06-10.32
		C817.05,365.08,795.73,373.67,795.73,373.67z"/>
	<path class="xsun11" d="M953.64,431.28c0,16.18-15.06,29.3-33.63,29.3c-18.57,0-33.63-13.12-33.63-29.3
		c0-16.18,15.06-29.3,33.63-29.3C938.58,401.97,953.64,415.09,953.64,431.28z"/>
	<path class="xsun12" d="M952.68,431.28c0,14.06-12.9,25.46-28.82,25.46c-15.92,0-28.82-11.4-28.82-25.46
		c0-14.06,12.9-25.46,28.82-25.46C939.77,405.82,952.68,417.22,952.68,431.28z"/>
	<path class="xsun13" d="M929.9,449.71c2.58-2.11,9.34-2.96,12.25-6.11c4.37-4.73,5.44-8.78,4.88-15.69
		c-0.56-6.92-13.87-12.69-13.87-12.69s4.56,12.13,3.6,18.27C936.23,436.97,929.9,449.71,929.9,449.71z"/>
</g>
<g>
	<g>
		<path class="xsun14" d="M613.95,899.75c1.7-0.64,3.27-1.43,4.61-2.34c0.35-6.49,3.18-14.98,3.17-17.58c0-2.29-3.18-13.51-3.79-19.07
			c-1.28-0.24-2.73-0.08-4.28,0.23C614.18,869.32,620.03,889.72,613.95,899.75z"/>
		<g>
			<path class="xsun11" d="M644.24,897.31c0,8.53-14.34,15.45-32.02,15.45c-17.68,0-32.02-6.92-32.02-15.45
				c0-8.53,14.34-15.45,32.02-15.45C629.9,881.87,644.24,888.78,644.24,897.31z"/>
			<path class="xsun12" d="M643.33,897.31c0,7.41-12.29,13.43-27.45,13.43c-15.15,0-27.45-6.01-27.45-13.43
				c0-7.41,12.29-13.42,27.45-13.42C631.03,883.89,643.33,889.9,643.33,897.31z"/>
			<path class="xsun13" d="M621.64,907.03c2.47-1.11,8.89-1.56,11.66-3.22c4.17-2.49,5.18-4.63,4.65-8.28
				c-0.54-3.65-13.21-6.69-13.21-6.69s4.34,6.39,3.43,9.63C627.66,900.31,621.64,907.03,621.64,907.03z"/>
		</g>
	</g>
	<g>
		<path class="xsun15" d="M749.55,893.31c1.49-0.72,2.87-1.61,4.04-2.63c0.3-7.32,2.77-16.89,2.77-19.82c0-2.59-2.79-15.23-3.32-21.5
			c-1.12-0.27-2.39-0.09-3.75,0.26C749.74,859.01,754.87,882,749.55,893.31z"/>
		<g>
			<path class="xsun11" d="M785.82,904.64c0,8.53-14.34,15.45-32.02,15.45c-17.68,0-32.02-6.92-32.02-15.45
				c0-8.53,14.34-15.45,32.02-15.45C771.49,889.19,785.82,896.11,785.82,904.64z"/>
			<path class="xsun12" d="M784.91,904.64c0,7.41-12.29,13.43-27.45,13.43c-15.15,0-27.45-6.01-27.45-13.43
				c0-7.41,12.29-13.42,27.45-13.42C772.62,891.22,784.91,897.23,784.91,904.64z"/>
			<path class="xsun13" d="M763.22,914.36c2.46-1.11,8.89-1.56,11.66-3.22c4.17-2.49-8.02-11.32-8.56-14.97c-0.54-3.65,0,0,0,0
				s4.34,6.39,3.43,9.63C769.25,907.64,763.22,914.36,763.22,914.36z"/>
		</g>
	</g>
	<g>
		<path class="xsun16" d="M661.72,904.34c1.69-1.07,3.25-2.38,4.57-3.88c0.25-10.75,2.95-24.81,2.91-29.11
			c-0.04-3.8-3.39-22.36-4.07-31.56c-1.29-0.39-2.73-0.12-4.28,0.39C661.5,853.97,667.66,887.72,661.72,904.34z"/>
		<g>
			<path class="xsun11" d="M702.03,905.72c0.07,8.53-14.2,15.49-31.89,15.53c-17.68,0.05-32.08-6.83-32.15-15.37
				c-0.08-8.53,14.2-15.49,31.89-15.53C687.56,890.3,701.96,897.18,702.03,905.72z"/>
			<path class="xsun12" d="M701.12,905.72c0.06,7.41-12.17,13.46-27.34,13.5c-15.16,0.04-27.5-5.94-27.56-13.35
				c-0.06-7.41,12.17-13.45,27.33-13.49C688.72,892.33,701.06,898.3,701.12,905.72z"/>
			<path class="xsun13" d="M679.52,915.49c2.45-1.12,8.88-1.58,11.63-3.25c4.14-2.51,5.15-4.64,4.58-8.29
				c-0.57-3.65-13.27-6.65-13.27-6.65s4.39,6.38,3.51,9.62C685.48,908.76,679.52,915.49,679.52,915.49z"/>
		</g>
	</g>
	<g>
		<path class="xsun16" d="M712.29,931.27c1.69-1.07,3.25-2.38,4.57-3.88c0.25-10.75,2.95-24.81,2.91-29.11
			c-0.04-3.8-3.39-22.36-4.07-31.56c-1.29-0.39-2.73-0.12-4.28,0.39C712.06,880.9,718.22,914.65,712.29,931.27z"/>
		<g>
			<path class="xsun11" d="M742.56,928.75c0.08,8.53-14.2,15.49-31.89,15.53c-17.68,0.05-32.08-6.83-32.15-15.37
				c-0.08-8.53,14.2-15.49,31.89-15.53C728.09,913.34,742.49,920.22,742.56,928.75z"/>
			<path class="xsun12" d="M741.65,928.75c0.06,7.42-12.17,13.46-27.34,13.5c-15.15,0.04-27.5-5.94-27.56-13.36
				c-0.06-7.41,12.18-13.45,27.33-13.49C729.24,915.36,741.59,921.34,741.65,928.75z"/>
			<path class="xsun13" d="M720.04,938.53c2.45-1.12,8.88-1.58,11.63-3.25c4.14-2.51,5.15-4.64,4.58-8.29
				c-0.57-3.64-13.27-6.65-13.27-6.65s4.4,6.38,3.51,9.62C726.01,931.79,720.04,938.53,720.04,938.53z"/>
		</g>
	</g>
	
		<linearGradient id="SVGID_5_" gradientUnits="userSpaceOnUse" x1="882.2974" y1="952.4747" x2="948.4454" y2="539.9185" gradientTransform="matrix(1.0798 -0.1111 0.1023 0.9948 -408.0596 89.3808)">
		<stop  offset="0" style="stop-color:#FF3F1F"/>
		<stop  offset="0.0247" style="stop-color:#FF3C14"/>
		<stop  offset="0.0695" style="stop-color:#FF3909"/>
		<stop  offset="0.1326" style="stop-color:#FF3702"/>
		<stop  offset="0.3077" style="stop-color:#FF3600"/>
		<stop  offset="0.4672" style="stop-color:#F12F00"/>
		<stop  offset="0.7652" style="stop-color:#CE1B00"/>
		<stop  offset="1" style="stop-color:#AD0900"/>
	</linearGradient>
	<path class="xsun17" d="M734.32,567.91c20.43,30.6-3.09,87.51,1.33,134.95c5.49,58.81,48.11,122.11,25.55,153.16
		c-13.54,18.63-57.02,21.13-76.81,21.47c-19.64,0.33-60.45,3.65-77.33-14.21c-28.47-30.13-58.16-110.5-63.67-169.58
		c-4.09-43.78,7.82-84.71,20.22-115.15c14.26-34.98,54.71-45.91,82.93-46.39C672.71,531.72,714.23,537.82,734.32,567.91z"/>
	<g>
		<path class="xsun18" d="M588.48,827.34c1.72-0.58,3.31-1.3,4.66-2.12c0.35-5.87,3.21-13.56,3.21-15.91c0-2.08-3.22-12.23-3.83-17.26
			c-1.3-0.22-2.76-0.07-4.33,0.21C588.71,799.8,594.63,818.26,588.48,827.34z"/>
		<g>
			<path class="xsun11" d="M619.11,825.13c0,7.72-14.5,13.98-32.39,13.98c-17.89,0-32.39-6.26-32.39-13.98s14.5-13.98,32.39-13.98
				C604.61,811.15,619.11,817.41,619.11,825.13z"/>
			<path class="xsun12" d="M618.19,825.13c0,6.71-12.43,12.15-27.77,12.15c-15.33,0-27.76-5.44-27.76-12.15
				c0-6.71,12.43-12.15,27.76-12.15C605.76,812.98,618.19,818.42,618.19,825.13z"/>
			<path class="xsun13" d="M596.25,833.93c2.49-1.01,9-1.41,11.79-2.91c4.21-2.26,5.24-4.19,4.7-7.49c-0.54-3.3-13.36-6.06-13.36-6.06
				s4.39,5.79,3.47,8.72C602.35,827.85,596.25,833.93,596.25,833.93z"/>
		</g>
	</g>
	<g>
		<path class="xsun18" d="M637.57,819.25c1.72-0.58,3.31-1.3,4.66-2.11c0.35-5.87,3.21-13.56,3.21-15.91
			c-0.01-2.08-3.22-12.23-3.83-17.26c-1.3-0.22-2.76-0.07-4.33,0.21C637.81,791.71,643.73,810.17,637.57,819.25z"/>
		<g>
			<path class="xsun11" d="M668.21,817.04c0,7.72-14.5,13.98-32.39,13.98s-32.39-6.26-32.39-13.98c0-7.72,14.5-13.98,32.39-13.98
				S668.21,809.32,668.21,817.04z"/>
			<path class="xsun12" d="M667.29,817.04c0,6.71-12.43,12.15-27.76,12.15c-15.33,0-27.76-5.44-27.76-12.15
				c0-6.71,12.43-12.15,27.76-12.15C654.86,804.9,667.29,810.33,667.29,817.04z"/>
			<path class="xsun13" d="M645.35,825.84c2.49-1.01,8.99-1.41,11.79-2.91c4.21-2.26,5.24-4.19,4.7-7.49
				c-0.55-3.3-13.36-6.06-13.36-6.06s4.39,5.79,3.47,8.71C651.44,819.76,645.35,825.84,645.35,825.84z"/>
		</g>
	</g>
	<g>
		<path class="xsun18" d="M502.25,823.46c1.72-0.58,3.31-1.3,4.66-2.11c0.36-5.87,3.22-13.56,3.21-15.91c0-2.08-3.22-12.23-3.83-17.26
			c-1.29-0.21-2.76-0.07-4.33,0.21C502.49,795.93,508.4,814.39,502.25,823.46z"/>
		<g>
			<path class="xsun11" d="M532.89,821.26c0,7.72-14.5,13.98-32.39,13.98c-17.89,0-32.39-6.26-32.39-13.98
				c0-7.72,14.5-13.98,32.39-13.98C518.39,807.28,532.89,813.54,532.89,821.26z"/>
			<path class="xsun12" d="M531.97,821.26c0,6.71-12.43,12.15-27.77,12.15c-15.33,0-27.76-5.44-27.76-12.15
				c0-6.71,12.43-12.15,27.76-12.15C519.53,809.11,531.97,814.55,531.97,821.26z"/>
			<path class="xsun13" d="M510.03,830.06c2.49-1.01,9-1.41,11.79-2.91c4.21-2.26,5.24-4.19,4.7-7.49c-0.54-3.3-13.36-6.06-13.36-6.06
				s4.39,5.79,3.47,8.71C516.12,823.98,510.03,830.06,510.03,830.06z"/>
		</g>
	</g>
	<g>
		<path class="xsun19" d="M537.37,849.25c1.71-0.97,3.29-2.15,4.63-3.51c0.25-9.73,2.98-22.45,2.94-26.34
			c-0.04-3.44-3.43-20.23-4.12-28.56c-1.3-0.35-2.76-0.11-4.33,0.35C537.14,803.67,543.37,834.21,537.37,849.25z"/>
		<g>
			<path class="xsun11" d="M567.99,846.98c0.08,7.72-14.37,14.02-32.26,14.06c-17.89,0.04-32.45-6.18-32.52-13.91
				c-0.08-7.72,14.37-14.01,32.25-14.06C553.35,833.03,567.91,839.26,567.99,846.98z"/>
			<path class="xsun12" d="M567.06,846.98c0.06,6.71-12.31,12.18-27.65,12.22c-15.33,0.04-27.81-5.37-27.88-12.09
				c-0.06-6.71,12.31-12.17,27.64-12.21C554.52,834.86,567,840.27,567.06,846.98z"/>
			<path class="xsun13" d="M545.21,855.83c2.48-1.01,8.98-1.43,11.76-2.94c4.19-2.27,5.21-4.2,4.63-7.5
				c-0.58-3.3-13.42-6.02-13.42-6.02s4.44,5.78,3.55,8.71C551.25,849.73,545.21,855.83,545.21,855.83z"/>
		</g>
	</g>
	<linearGradient id="SVGID_6_" gradientUnits="userSpaceOnUse" x1="416.2263" y1="748.5591" x2="632.1218" y2="645.8772">
		<stop  offset="0" style="stop-color:#FF3F1F"/>
		<stop  offset="0.0216" style="stop-color:#FF3C14"/>
		<stop  offset="0.0609" style="stop-color:#FF3909"/>
		<stop  offset="0.116" style="stop-color:#FF3702"/>
		<stop  offset="0.2692" style="stop-color:#FF3600"/>
		<stop  offset="0.4354" style="stop-color:#F73000"/>
		<stop  offset="0.6912" style="stop-color:#E22100"/>
		<stop  offset="1" style="stop-color:#BF0900"/>
	</linearGradient>
	<path class="xsun20" d="M670.06,560.86c13.33,25.02-18.25,68.88-22.54,106.49c-5.33,46.62,22.59,98.39-3.56,121.9
		c-15.69,14.1-55.98,14.19-74.17,13.59c-18.06-0.59-56.04,0.25-68.36-14.56c-20.78-25-33.84-89.67-28.49-136.51
		c3.96-34.71,22.08-66.47,38.8-89.93c19.22-26.97,58.22-33.83,84.17-32.99C619.97,529.64,656.95,536.26,670.06,560.86z"/>
	<g>
		<g>
			
				<linearGradient id="SVGID_7_" gradientUnits="userSpaceOnUse" x1="443.453" y1="522.9046" x2="929.3235" y2="511.6571" gradientTransform="matrix(1 0 0 1 1.9834 11.004)">
				<stop  offset="0" style="stop-color:#FF3F1F"/>
				<stop  offset="0.0137" style="stop-color:#FF3C14"/>
				<stop  offset="0.0385" style="stop-color:#FF3909"/>
				<stop  offset="0.0734" style="stop-color:#FF3702"/>
				<stop  offset="0.1703" style="stop-color:#FF3600"/>
				<stop  offset="0.3059" style="stop-color:#F83300"/>
				<stop  offset="0.5042" style="stop-color:#E42A00"/>
				<stop  offset="0.741" style="stop-color:#C41C00"/>
				<stop  offset="1" style="stop-color:#990900"/>
			</linearGradient>
			<path class="xsun21" d="M915.46,541.71c15.81-8.21,21.77-17.67,4.01-24.57c5.52-3.14,8.54-6.6,8.54-10.37
				c0-49.37-445.46-49.93-445.46-0.85c0,5.75,6.89,10.79,18.94,15.13c-15.85,7.39-22.16,16.16-7.29,23.98
				c-5.04,2.92-7.77,6.12-7.77,9.58c0,41.78,445.46,42.17,445.46,0.77C931.89,550.24,925.95,545.68,915.46,541.71z"/>
		</g>
	</g>
	<linearGradient id="SVGID_8_" gradientUnits="userSpaceOnUse" x1="554.587" y1="529.4587" x2="895.991" y2="526.144">
		<stop  offset="0" style="stop-color:#FF3F1F"/>
		<stop  offset="0.0247" style="stop-color:#FF3C14"/>
		<stop  offset="0.0695" style="stop-color:#FF3909"/>
		<stop  offset="0.1326" style="stop-color:#FF3702"/>
		<stop  offset="0.3077" style="stop-color:#FF3600"/>
		<stop  offset="0.3921" style="stop-color:#F12F00"/>
		<stop  offset="0.6545" style="stop-color:#CC1A00"/>
		<stop  offset="0.8664" style="stop-color:#B50E00"/>
		<stop  offset="1" style="stop-color:#AD0900"/>
	</linearGradient>
	<path class="xsun22" d="M927.9,527.96c0,16.98-98.11,30.74-219.13,30.74s-219.13-13.76-219.13-30.74
		c0-16.98,98.11-30.74,219.13-30.74S927.9,510.98,927.9,527.96z"/>
</g>
</svg>
