<?xml version="1.0" encoding="utf-8"?>
<!-- Generator: Adobe Illustrator 24.3.0, SVG Export Plug-In . SVG Version: 6.00 Build 0)  -->
<svg version="1.1" id="Layer_1" xmlns="http://www.w3.org/2000/svg" xmlns:xlink="http://www.w3.org/1999/xlink" x="0px" y="0px"
	 viewBox="0 0 1400 980" style="enable-background:new 0 0 1400 980;" xml:space="preserve">
<style type="text/css">
	.xstars0{fill:#0084C8;}
	.xstars1{fill:#A19700;}
	.xstars2{fill:#FFD800;}
	.xstars3{fill:#FFED80;}
	.xstars4{fill:url(#SVGID_1_);}
	.xstars5{fill:url(#SVGID_2_);}
	.xstars6{fill:url(#SVGID_3_);}
	.xstars7{fill:url(#SVGID_4_);}
	.xstars8{fill:#D6D0D0;}
	.xstars9{fill:#FCFAFA;}
	.xstars10{fill:#BCB7B7;}
	.xstars11{fill:#FFFFFF;}
	.xstars12{fill:#DDDBDB;}
	.xstars13{fill:url(#SVGID_5_);}
	.xstars14{fill:url(#SVGID_6_);}
	.xstars15{fill:url(#SVGID_7_);}
	.xstars16{fill:url(#SVGID_8_);}
	.xstars17{fill:url(#SVGID_9_);}
	.xstars18{fill:url(#SVGID_10_);}
	.xstars19{fill:url(#SVGID_11_);}
	.xstars20{fill:url(#SVGID_12_);}
	.xstars21{fill:url(#SVGID_13_);}
	.xstars22{fill:url(#SVGID_14_);}
	.xstars23{fill:url(#SVGID_15_);}
	.xstars24{fill:url(#SVGID_16_);}
	.xstars25{fill:url(#SVGID_17_);}
	.xstars26{fill:url(#SVGID_18_);}
	.xstars27{fill:url(#SVGID_19_);}
	.xstars28{fill:url(#SVGID_20_);}
	.xstars29{fill:url(#SVGID_21_);}
	.xstars30{fill:url(#SVGID_22_);}
	.xstars31{fill:url(#SVGID_23_);}
	.xstars32{fill:url(#SVGID_24_);}
	.xstars33{fill:url(#SVGID_25_);}
	.xstars34{fill:url(#SVGID_26_);}
	.xstars35{fill:url(#SVGID_27_);}
	.xstars36{fill:url(#SVGID_28_);}
	.xstars37{fill:url(#SVGID_29_);}
	.xstars38{fill:url(#SVGID_30_);}
	.xstars39{fill:url(#SVGID_31_);}
	.xstars40{fill:url(#SVGID_32_);}
	.xstars41{fill:url(#SVGID_33_);}
	.xstars42{fill:url(#SVGID_34_);}
	.xstars43{fill:url(#SVGID_35_);}
	.xstars44{fill:url(#SVGID_36_);}
</style>
<rect class="xstars0" width="1400" height="980"/>
<g>
	<g>
		<g>
			<path class="xstars1" d="M897.73,626.17c-0.33,0-0.67-0.03-1-0.1L566.22,557.5c-1.21-0.25-2.27-0.94-2.99-1.94l-87.79-121.63
				l-109.8,126.26c-1.79,2.05-4.9,2.27-6.95,0.48c-2.05-1.78-2.27-4.89-0.49-6.95l113.87-130.95c0.99-1.13,2.45-1.74,3.94-1.69
				c1.51,0.07,2.89,0.82,3.77,2.04l90.3,125.11l323.06,67.03l8.53-143.87l-99.97-87.3c-1.39-1.22-1.99-3.11-1.54-4.9l25.22-101.39
				c0.44-1.75,1.79-3.13,3.54-3.58l121.74-31.56c1.29-0.34,2.65-0.13,3.79,0.56l96.39,58.56c2.33,1.41,3.07,4.44,1.65,6.76
				c-1.41,2.33-4.44,3.07-6.76,1.65l-94.62-57.48l-116.89,30.3l-23.79,95.63l99.52,86.91c1.15,1,1.77,2.48,1.68,4l-9.01,151.97
				c-0.08,1.43-0.79,2.75-1.92,3.62C899.86,625.82,898.81,626.17,897.73,626.17z"/>
		</g>
		<polygon id="s1" class="xstars2" points="362.87,517.72 376.04,538.06 399.45,544.3 384.18,563.12 385.48,587.32 362.87,578.61 340.25,587.32 
			341.55,563.12 326.28,544.3 349.69,538.06 		"/>
		<polygon id="s2" class="xstars2" points="907.68,430.04 920.86,450.38 944.27,456.63 929,475.44 930.3,499.64 907.68,490.93 885.07,499.64 
			886.37,475.44 871.09,456.63 894.51,450.38 		"/>
		<polygon id="s3" class="xstars2" points="476.38,401.7 484.54,414.3 499.05,418.17 489.59,429.82 490.39,444.82 476.38,439.42 462.37,444.82 
			463.17,429.82 453.71,418.17 468.22,414.3 		"/>
		<polygon id="s4" class="xstars2" points="805.54,356.08 813.7,368.68 828.21,372.55 818.74,384.21 819.55,399.2 805.54,393.8 791.53,399.2 
			792.33,384.21 782.87,372.55 797.37,368.68 		"/>
		<polygon id="s5" class="xstars2" points="952.49,223.13 960.66,235.73 975.16,239.6 965.7,251.26 966.5,266.25 952.49,260.86 938.48,266.25 
			939.29,251.26 929.83,239.6 944.33,235.73 		"/>
		<polygon id="s6" class="xstars2" points="1048.88,281.7 1057.05,294.3 1071.56,298.17 1062.09,309.82 1062.9,324.81 1048.88,319.42 
			1034.88,324.81 1035.68,309.82 1026.22,298.17 1040.72,294.3 		"/>
		<polygon id="s7" class="xstars2" points="568.4,503.49 584.92,528.98 614.27,536.81 595.13,560.4 596.75,590.73 568.4,579.82 540.05,590.73 
			541.68,560.4 522.53,536.81 551.89,528.98 		"/>
		<polygon id="s8" class="xstars2" points="898.4,593.57 907.69,607.92 924.2,612.33 913.43,625.59 914.35,642.66 898.4,636.52 882.45,642.66 
			883.36,625.59 872.59,612.33 889.1,607.92 		"/>
		<polygon id="s9" class="xstars2" points="830.84,251.32 840.13,265.67 856.64,270.07 845.87,283.34 846.78,300.41 830.84,294.27 
			814.89,300.41 815.8,283.34 805.03,270.07 821.54,265.67 		"/>
		<path class="xstars3" d="M376.45,556.96c0,8.02-6.5,14.53-14.53,14.53c-8.02,0-14.53-6.5-14.53-14.53c0-8.02,6.5-14.52,14.53-14.52
			C369.95,542.43,376.45,548.94,376.45,556.96z"/>
		<path class="xstars3" d="M921.27,469.28c0,8.02-6.5,14.53-14.52,14.53c-8.02,0-14.53-6.5-14.53-14.53c0-8.02,6.5-14.52,14.53-14.52
			C914.76,454.76,921.27,461.26,921.27,469.28z"/>
		<path class="xstars3" d="M484.8,426.01c0,4.97-4.03,9-9,9c-4.97,0-9-4.03-9-9c0-4.97,4.03-9,9-9
			C480.77,417.01,484.8,421.04,484.8,426.01z"/>
		<path class="xstars3" d="M813.95,380.39c0,4.97-4.03,9-9,9c-4.97,0-9-4.03-9-9c0-4.97,4.03-9,9-9
			C809.92,371.39,813.95,375.42,813.95,380.39z"/>
		<path class="xstars3" d="M960.91,247.44c0,4.97-4.03,9-9,9c-4.97,0-9-4.03-9-9c0-4.97,4.03-9,9-9
			C956.88,238.44,960.91,242.47,960.91,247.44z"/>
		<path class="xstars3" d="M1057.3,306c0,4.97-4.03,9-9,9c-4.97,0-9-4.03-9-9c0-4.97,4.03-9,9-9
			C1053.27,297.01,1057.3,301.03,1057.3,306z"/>
		<path class="xstars3" d="M585.43,552.67c0,10.06-8.15,18.21-18.21,18.21c-10.06,0-18.21-8.15-18.21-18.21
			c0-10.06,8.15-18.21,18.21-18.21C577.28,534.46,585.43,542.62,585.43,552.67z"/>
		<path class="xstars3" d="M907.98,621.25c0,5.66-4.59,10.25-10.25,10.25c-5.66,0-10.24-4.59-10.24-10.25c0-5.66,4.59-10.24,10.24-10.24
			C903.39,611,907.98,615.59,907.98,621.25z"/>
		<path class="xstars3" d="M840.42,279c0,5.66-4.59,10.25-10.25,10.25c-5.66,0-10.24-4.59-10.24-10.25c0-5.66,4.59-10.24,10.24-10.24
			C835.83,268.75,840.42,273.34,840.42,279z"/>
	</g>
</g>
<g>
	<linearGradient id="SVGID_1_" gradientUnits="userSpaceOnUse" x1="1043.2303" y1="277.5003" x2="1077.8229" y2="277.5003">
		<stop  offset="0" style="stop-color:#FF1700"/>
		<stop  offset="0.6099" style="stop-color:#FF1700"/>
		<stop  offset="0.6139" style="stop-color:#FD1700"/>
		<stop  offset="0.6787" style="stop-color:#EA1C00"/>
		<stop  offset="0.7525" style="stop-color:#DC1F00"/>
		<stop  offset="0.8434" style="stop-color:#D32100"/>
		<stop  offset="1" style="stop-color:#D12200"/>
		<stop  offset="1" style="stop-color:#C62000"/>
		<stop  offset="1" style="stop-color:#9D1A00"/>
		<stop  offset="1" style="stop-color:#771300"/>
		<stop  offset="1" style="stop-color:#570E00"/>
		<stop  offset="1" style="stop-color:#3B0A00"/>
		<stop  offset="1" style="stop-color:#250600"/>
		<stop  offset="1" style="stop-color:#140300"/>
		<stop  offset="1" style="stop-color:#090100"/>
		<stop  offset="1" style="stop-color:#020000"/>
		<stop  offset="1" style="stop-color:#000000"/>
	</linearGradient>
	<path class="xstars4" d="M1043.23,277.5c0.84-2.53,10.55-13.92,12.66-13.92c2.11,0,21.94,12.66,21.94,15.61
		c0,2.95-5.06,12.23-6.75,12.23C1069.39,291.42,1043.23,277.5,1043.23,277.5z"/>
	<linearGradient id="SVGID_2_" gradientUnits="userSpaceOnUse" x1="1065.8257" y1="278.7393" x2="1074.9835" y2="287.8972">
		<stop  offset="0" style="stop-color:#FF3F1F"/>
		<stop  offset="0.3297" style="stop-color:#FF3600"/>
		<stop  offset="0.9281" style="stop-color:#8D0E00"/>
		<stop  offset="1" style="stop-color:#7F0900"/>
	</linearGradient>
	<path class="xstars5" d="M1077.45,281.08c-2.38-1.69-7.93-5.32-8.57-5.32c-0.79,0,0.45,4.29-0.9,6.89c-1.36,2.6-0.79,3.28-0.68,5.2
		c0.05,0.88,0.29,1.66,0.7,2.34c1.64,0.76,2.77,1.23,3.08,1.23C1072.48,291.42,1076.25,284.93,1077.45,281.08z"/>
	<linearGradient id="SVGID_3_" gradientUnits="userSpaceOnUse" x1="1055.8859" y1="282.9679" x2="1090.9749" y2="282.9679">
		<stop  offset="0" style="stop-color:#FF1700"/>
		<stop  offset="0.4341" style="stop-color:#FF1700"/>
		<stop  offset="0.5302" style="stop-color:#ED1B00"/>
		<stop  offset="0.659" style="stop-color:#DD1F00"/>
		<stop  offset="0.8045" style="stop-color:#D42100"/>
		<stop  offset="1" style="stop-color:#D12200"/>
		<stop  offset="1" style="stop-color:#C62000"/>
		<stop  offset="1" style="stop-color:#9D1A00"/>
		<stop  offset="1" style="stop-color:#771300"/>
		<stop  offset="1" style="stop-color:#570E00"/>
		<stop  offset="1" style="stop-color:#3B0A00"/>
		<stop  offset="1" style="stop-color:#250600"/>
		<stop  offset="1" style="stop-color:#140300"/>
		<stop  offset="1" style="stop-color:#090100"/>
		<stop  offset="1" style="stop-color:#020000"/>
		<stop  offset="1" style="stop-color:#000000"/>
	</linearGradient>
	<path class="xstars6" d="M1055.89,263.58c1.44-1.24,15.85-6.7,18.69-5.61c5.24,0,15.28,8.51,15.72,15.5
		c0.44,6.99,1.97,24.67-1.75,34.28c-2.18,3.71-8.12-22.15-11.35-24.02C1073.96,281.87,1055.89,263.58,1055.89,263.58z"/>
	<linearGradient id="SVGID_4_" gradientUnits="userSpaceOnUse" x1="1083.5054" y1="266.371" x2="1083.5054" y2="308.1097">
		<stop  offset="0" style="stop-color:#FF3F1F"/>
		<stop  offset="0.4121" style="stop-color:#FF3600"/>
		<stop  offset="0.4913" style="stop-color:#EA2F00"/>
		<stop  offset="0.7295" style="stop-color:#B11A00"/>
		<stop  offset="0.906" style="stop-color:#8D0E00"/>
		<stop  offset="1" style="stop-color:#7F0900"/>
	</linearGradient>
	<path class="xstars7" d="M1090.29,273.47c-0.15-2.32-1.35-4.81-3.09-7.1c-0.86,0.55-1.97,3.64-2.35,4.55c-0.4,0.95-0.71,3.26-0.95,4.85
		c-0.24,1.59-0.64,3.5-0.64,4.53c0,1.03-1.59,2.3-3.42,2.78c-1.83,0.48-1.91,0.16-3.81-0.4c0,0,0.02,0.1,0.06,0.27
		c0.45,0.36,0.83,0.63,1.1,0.79c3.23,1.86,9.17,27.73,11.35,24.02C1092.26,298.14,1090.73,280.46,1090.29,273.47z"/>
	<path class="xstars8" d="M1058.09,298.59c-5.55-0.86-6.31-0.86-7.32-4.01c-1.01-3.15,0.25-2.86-5.3-3.44c-5.55-0.57-8.83-3.72-9.33-6.3
		c-0.5-2.58-0.76-8.3,1.77-9.73c2.52-1.43,3.78-4.58,9.84-1.72c6.05,2.86,4.29,4.87,8.83,5.44c4.54,0.57,4.04,7.16,8.83,5.15
		c4.79-2,0,4.29,5.3,3.15c5.3-1.14,8.04,2.42,7.53,5.85c-0.51,3.43-2.49,8.46-4.37,8.95c-1.87,0.5-6.45,0.11-8.46-2.78
		C1063.39,296.27,1058.09,298.59,1058.09,298.59z"/>
	<path class="xstars9" d="M1058.07,296.82c-5.07-0.72-5.77-0.72-6.69-3.37c-0.92-2.65,0.23-2.41-4.84-2.89
		c-5.08-0.48-8.07-3.13-8.54-5.3c-0.46-2.17-0.69-6.99,1.62-8.19c2.31-1.2,3.46-3.85,9-1.45c5.54,2.41,3.92,4.1,8.07,4.58
		c4.15,0.48,3.69,6.02,8.07,4.34c4.38-1.69,0,3.61,4.84,2.65c4.84-0.96,7.35,2.04,6.89,4.93c-0.46,2.89-2.28,7.12-3.99,7.54
		c-1.71,0.42-5.9,0.09-7.74-2.34C1062.92,294.87,1058.07,296.82,1058.07,296.82z"/>
	<path class="xstars10" d="M1093.95,309.91c0,3.68-3.42,6.66-7.64,6.66c-4.22,0-7.64-2.98-7.64-6.66c0-3.68,3.42-6.66,7.64-6.66
		C1090.53,303.25,1093.95,306.24,1093.95,309.91z"/>
	<path class="xstars11" d="M1093.74,309.91c0,3.19-2.93,5.79-6.55,5.79s-6.55-2.59-6.55-5.79c0-3.2,2.93-5.79,6.55-5.79
		S1093.74,306.72,1093.74,309.91z"/>
	<path class="xstars12" d="M1088.56,314.1c0.59-0.48,2.12-0.67,2.78-1.39c0.99-1.08,1.24-1.99,1.11-3.57c-0.13-1.57-3.15-2.88-3.15-2.88
		s1.04,2.76,0.82,4.15C1090,311.21,1088.56,314.1,1088.56,314.1z"/>
</g>
<g>
	
		<linearGradient id="SVGID_5_" gradientUnits="userSpaceOnUse" x1="941.7878" y1="216.7529" x2="976.3802" y2="216.7529" gradientTransform="matrix(0.9061 -0.4231 0.4231 0.9061 -4.1637 427.5092)">
		<stop  offset="0" style="stop-color:#FF1700"/>
		<stop  offset="0.6099" style="stop-color:#FF1700"/>
		<stop  offset="0.6139" style="stop-color:#FD1700"/>
		<stop  offset="0.6787" style="stop-color:#EA1C00"/>
		<stop  offset="0.7525" style="stop-color:#DC1F00"/>
		<stop  offset="0.8434" style="stop-color:#D32100"/>
		<stop  offset="1" style="stop-color:#D12200"/>
		<stop  offset="1" style="stop-color:#C62000"/>
		<stop  offset="1" style="stop-color:#9D1A00"/>
		<stop  offset="1" style="stop-color:#771300"/>
		<stop  offset="1" style="stop-color:#570E00"/>
		<stop  offset="1" style="stop-color:#3B0A00"/>
		<stop  offset="1" style="stop-color:#250600"/>
		<stop  offset="1" style="stop-color:#140300"/>
		<stop  offset="1" style="stop-color:#090100"/>
		<stop  offset="1" style="stop-color:#020000"/>
		<stop  offset="1" style="stop-color:#000000"/>
	</linearGradient>
	<path class="xstars13" d="M940.88,225.44c-0.31-2.65,3.67-17.08,5.58-17.97c1.91-0.89,25.23,2.19,26.48,4.86
		c1.25,2.68,0.59,13.23-0.94,13.94C970.47,226.99,940.88,225.44,940.88,225.44z"/>
	
		<linearGradient id="SVGID_6_" gradientUnits="userSpaceOnUse" x1="964.3831" y1="217.9919" x2="973.541" y2="227.1498" gradientTransform="matrix(0.9061 -0.4231 0.4231 0.9061 -4.1637 427.5092)">
		<stop  offset="0" style="stop-color:#FF3F1F"/>
		<stop  offset="0.3297" style="stop-color:#FF3600"/>
		<stop  offset="0.9281" style="stop-color:#8D0E00"/>
		<stop  offset="1" style="stop-color:#7F0900"/>
	</linearGradient>
	<path class="xstars14" d="M973.41,214.21c-2.87-0.53-9.43-1.46-10.02-1.19c-0.72,0.33,2.23,3.7,2.1,6.63c-0.13,2.93,0.67,3.3,1.58,5
		c0.42,0.77,0.97,1.38,1.63,1.82c1.81,0,3.03-0.06,3.31-0.19C973.28,225.68,973.95,218.21,973.41,214.21z"/>
	
		<linearGradient id="SVGID_7_" gradientUnits="userSpaceOnUse" x1="954.4433" y1="222.2206" x2="989.5322" y2="222.2206" gradientTransform="matrix(0.9061 -0.4231 0.4231 0.9061 -4.1637 427.5092)">
		<stop  offset="0" style="stop-color:#FF1700"/>
		<stop  offset="0.4341" style="stop-color:#FF1700"/>
		<stop  offset="0.5302" style="stop-color:#ED1B00"/>
		<stop  offset="0.659" style="stop-color:#DD1F00"/>
		<stop  offset="0.8045" style="stop-color:#D42100"/>
		<stop  offset="1" style="stop-color:#D12200"/>
		<stop  offset="1" style="stop-color:#C62000"/>
		<stop  offset="1" style="stop-color:#9D1A00"/>
		<stop  offset="1" style="stop-color:#771300"/>
		<stop  offset="1" style="stop-color:#570E00"/>
		<stop  offset="1" style="stop-color:#3B0A00"/>
		<stop  offset="1" style="stop-color:#250600"/>
		<stop  offset="1" style="stop-color:#140300"/>
		<stop  offset="1" style="stop-color:#090100"/>
		<stop  offset="1" style="stop-color:#020000"/>
		<stop  offset="1" style="stop-color:#000000"/>
	</linearGradient>
	<path class="xstars15" d="M946.46,207.47c0.78-1.74,11.53-12.78,14.56-12.99c4.75-2.22,17.45,1.25,20.8,7.39
		c3.35,6.15,12.22,21.52,12.92,31.8c-0.41,4.29-16.73-16.64-20.45-16.96C970.57,216.4,946.46,207.47,946.46,207.47z"/>
	
		<linearGradient id="SVGID_8_" gradientUnits="userSpaceOnUse" x1="982.0627" y1="205.6236" x2="982.0627" y2="247.3624" gradientTransform="matrix(0.9061 -0.4231 0.4231 0.9061 -4.1637 427.5092)">
		<stop  offset="0" style="stop-color:#FF3F1F"/>
		<stop  offset="0.4121" style="stop-color:#FF3600"/>
		<stop  offset="0.4913" style="stop-color:#EA2F00"/>
		<stop  offset="0.7295" style="stop-color:#B11A00"/>
		<stop  offset="0.906" style="stop-color:#8D0E00"/>
		<stop  offset="1" style="stop-color:#7F0900"/>
	</linearGradient>
	<path class="xstars16" d="M981.82,201.88c-1.11-2.04-3.26-3.78-5.8-5.12c-0.55,0.86-0.24,4.13-0.2,5.11c0.04,1.03,0.73,3.25,1.19,4.79
		c0.46,1.54,0.9,3.44,1.34,4.37c0.44,0.94-0.46,2.76-1.92,3.96c-1.45,1.21-1.66,0.95-3.62,1.25c0,0,0.06,0.08,0.17,0.22
		c0.56,0.14,1.02,0.22,1.33,0.25c3.72,0.32,20.04,21.24,20.45,16.96C994.04,223.4,985.17,208.02,981.82,201.88z"/>
	<path class="xstars8" d="M963.27,238.26c-5.39,1.57-6.08,1.89-8.32-0.54c-2.25-2.43-0.98-2.7-6.25-0.87
		c-5.27,1.83-9.57,0.36-11.12-1.76c-1.55-2.12-4.2-7.2-2.52-9.56c1.68-2.36,1.49-5.75,8.19-5.72c6.7,0.03,5.94,2.59,10.3,1.19
		c4.36-1.4,6.68,4.78,10.18,0.93c3.49-3.84,1.82,3.89,6.13,0.61c4.32-3.28,8.31-1.21,9.3,2.12c1,3.33,1.32,8.72-0.17,9.96
		c-1.49,1.24-5.8,2.82-8.85,1.06C967.09,233.92,963.27,238.26,963.27,238.26z"/>
	<path class="xstars9" d="M962.51,236.67c-4.9,1.49-5.53,1.78-7.49-0.23c-1.96-2.01-0.81-2.28-5.61-0.57c-4.8,1.71-8.64,0.58-9.98-1.19
		c-1.34-1.77-3.58-6.04-2-8.11c1.58-2.07,1.5-4.96,7.54-5.12c6.04-0.16,5.29,2.05,9.25,0.73c3.97-1.32,5.89,3.9,9.15,0.51
		c3.26-3.38,1.53,3.27,5.51,0.35c3.98-2.92,7.52-1.26,8.33,1.55c0.81,2.82,0.95,7.41-0.43,8.52c-1.38,1.1-5.3,2.58-8,1.15
		C966.07,232.85,962.51,236.67,962.51,236.67z"/>
	<path class="xstars10" d="M1000.56,233.35c1.56,3.33-0.28,7.48-4.11,9.27c-3.82,1.79-8.18,0.53-9.74-2.8
		c-1.56-3.33,0.28-7.48,4.11-9.27C994.64,228.76,999,230.02,1000.56,233.35z"/>
	<path class="xstars11" d="M1000.36,233.44c1.35,2.89-0.21,6.48-3.49,8.01c-3.28,1.53-7.03,0.42-8.38-2.47
		c-1.35-2.9,0.21-6.48,3.49-8.01C995.25,229.44,999.01,230.55,1000.36,233.44z"/>
	<path class="xstars12" d="M997.44,239.43c0.33-0.68,1.64-1.51,1.93-2.43c0.45-1.39,0.28-2.33-0.5-3.7c-0.78-1.37-4.08-1.28-4.08-1.28
		s2.1,2.06,2.5,3.41C997.52,236.2,997.44,239.43,997.44,239.43z"/>
</g>
<g>
	
		<linearGradient id="SVGID_9_" gradientUnits="userSpaceOnUse" x1="814.4392" y1="189.2583" x2="849.0317" y2="189.2583" gradientTransform="matrix(0.9061 -0.4231 0.4231 0.9061 -4.1637 427.5092)">
		<stop  offset="0" style="stop-color:#FF1700"/>
		<stop  offset="0.6099" style="stop-color:#FF1700"/>
		<stop  offset="0.6139" style="stop-color:#FD1700"/>
		<stop  offset="0.6787" style="stop-color:#EA1C00"/>
		<stop  offset="0.7525" style="stop-color:#DC1F00"/>
		<stop  offset="0.8434" style="stop-color:#D32100"/>
		<stop  offset="1" style="stop-color:#D12200"/>
		<stop  offset="1" style="stop-color:#C62000"/>
		<stop  offset="1" style="stop-color:#9D1A00"/>
		<stop  offset="1" style="stop-color:#771300"/>
		<stop  offset="1" style="stop-color:#570E00"/>
		<stop  offset="1" style="stop-color:#3B0A00"/>
		<stop  offset="1" style="stop-color:#250600"/>
		<stop  offset="1" style="stop-color:#140300"/>
		<stop  offset="1" style="stop-color:#090100"/>
		<stop  offset="1" style="stop-color:#020000"/>
		<stop  offset="1" style="stop-color:#000000"/>
	</linearGradient>
	<path class="xstars17" d="M813.86,254.41c-0.31-2.65,3.67-17.08,5.58-17.97c1.91-0.89,25.23,2.19,26.48,4.86
		c1.25,2.68,0.59,13.23-0.94,13.94C843.45,255.96,813.86,254.41,813.86,254.41z"/>
	
		<linearGradient id="SVGID_10_" gradientUnits="userSpaceOnUse" x1="837.0345" y1="190.4973" x2="846.1923" y2="199.6552" gradientTransform="matrix(0.9061 -0.4231 0.4231 0.9061 -4.1637 427.5092)">
		<stop  offset="0" style="stop-color:#FF3F1F"/>
		<stop  offset="0.3297" style="stop-color:#FF3600"/>
		<stop  offset="0.9281" style="stop-color:#8D0E00"/>
		<stop  offset="1" style="stop-color:#7F0900"/>
	</linearGradient>
	<path class="xstars18" d="M846.38,243.18c-2.87-0.53-9.43-1.46-10.02-1.19c-0.72,0.33,2.23,3.7,2.1,6.63c-0.13,2.93,0.67,3.3,1.58,5
		c0.42,0.77,0.97,1.38,1.63,1.82c1.81,0,3.03-0.06,3.31-0.19C846.26,254.65,846.93,247.17,846.38,243.18z"/>
	
		<linearGradient id="SVGID_11_" gradientUnits="userSpaceOnUse" x1="827.0947" y1="194.7259" x2="862.1836" y2="194.7259" gradientTransform="matrix(0.9061 -0.4231 0.4231 0.9061 -4.1637 427.5092)">
		<stop  offset="0" style="stop-color:#FF1700"/>
		<stop  offset="0.4341" style="stop-color:#FF1700"/>
		<stop  offset="0.5302" style="stop-color:#ED1B00"/>
		<stop  offset="0.659" style="stop-color:#DD1F00"/>
		<stop  offset="0.8045" style="stop-color:#D42100"/>
		<stop  offset="1" style="stop-color:#D12200"/>
		<stop  offset="1" style="stop-color:#C62000"/>
		<stop  offset="1" style="stop-color:#9D1A00"/>
		<stop  offset="1" style="stop-color:#771300"/>
		<stop  offset="1" style="stop-color:#570E00"/>
		<stop  offset="1" style="stop-color:#3B0A00"/>
		<stop  offset="1" style="stop-color:#250600"/>
		<stop  offset="1" style="stop-color:#140300"/>
		<stop  offset="1" style="stop-color:#090100"/>
		<stop  offset="1" style="stop-color:#020000"/>
		<stop  offset="1" style="stop-color:#000000"/>
	</linearGradient>
	<path class="xstars19" d="M819.44,236.44c0.78-1.74,11.53-12.78,14.56-12.99c4.75-2.22,17.45,1.25,20.8,7.39
		c3.35,6.15,12.22,21.52,12.92,31.8c-0.41,4.29-16.73-16.64-20.45-16.96C843.55,245.36,819.44,236.44,819.44,236.44z"/>
	
		<linearGradient id="SVGID_12_" gradientUnits="userSpaceOnUse" x1="854.7142" y1="178.129" x2="854.7142" y2="219.8677" gradientTransform="matrix(0.9061 -0.4231 0.4231 0.9061 -4.1637 427.5092)">
		<stop  offset="0" style="stop-color:#FF3F1F"/>
		<stop  offset="0.4121" style="stop-color:#FF3600"/>
		<stop  offset="0.4913" style="stop-color:#EA2F00"/>
		<stop  offset="0.7295" style="stop-color:#B11A00"/>
		<stop  offset="0.906" style="stop-color:#8D0E00"/>
		<stop  offset="1" style="stop-color:#7F0900"/>
	</linearGradient>
	<path class="xstars20" d="M854.8,230.85c-1.11-2.04-3.26-3.78-5.8-5.12c-0.55,0.86-0.24,4.13-0.2,5.11c0.04,1.03,0.73,3.25,1.19,4.79
		c0.46,1.54,0.9,3.44,1.34,4.37c0.44,0.94-0.46,2.76-1.92,3.96c-1.45,1.21-1.66,0.95-3.62,1.25c0,0,0.06,0.08,0.17,0.22
		c0.56,0.14,1.02,0.22,1.33,0.25c3.72,0.32,20.04,21.24,20.45,16.96C867.02,252.37,858.15,236.99,854.8,230.85z"/>
	<path class="xstars8" d="M836.25,267.23c-5.39,1.57-6.08,1.89-8.32-0.54c-2.25-2.43-0.98-2.7-6.25-0.87
		c-5.27,1.83-9.57,0.36-11.12-1.76c-1.55-2.12-4.2-7.2-2.52-9.56c1.68-2.36,1.49-5.75,8.19-5.72c6.7,0.03,5.94,2.59,10.3,1.19
		c4.36-1.4,6.68,4.78,10.18,0.93c3.49-3.84,1.82,3.89,6.13,0.61c4.32-3.28,8.31-1.21,9.3,2.12c1,3.33,1.32,8.72-0.17,9.96
		c-1.49,1.24-5.8,2.82-8.85,1.06C840.07,262.89,836.25,267.23,836.25,267.23z"/>
	<path class="xstars9" d="M835.49,265.64c-4.9,1.49-5.53,1.78-7.49-0.23c-1.96-2.01-0.81-2.28-5.61-0.57c-4.8,1.71-8.64,0.58-9.98-1.19
		c-1.34-1.77-3.58-6.04-2-8.11c1.58-2.07,1.5-4.96,7.54-5.12c6.04-0.16,5.29,2.05,9.25,0.73c3.97-1.32,5.89,3.9,9.15,0.51
		c3.26-3.38,1.53,3.27,5.51,0.35c3.98-2.92,7.52-1.26,8.33,1.55c0.81,2.82,0.95,7.41-0.43,8.52c-1.38,1.1-5.3,2.58-8,1.15
		C839.05,261.82,835.49,265.64,835.49,265.64z"/>
	<path class="xstars10" d="M873.54,262.32c1.56,3.33-0.28,7.48-4.11,9.27c-3.82,1.79-8.18,0.53-9.74-2.8c-1.56-3.33,0.28-7.48,4.11-9.27
		C867.62,257.73,871.98,258.99,873.54,262.32z"/>
	<path class="xstars11" d="M873.34,262.41c1.35,2.89-0.21,6.48-3.49,8.01c-3.28,1.53-7.03,0.42-8.38-2.47c-1.35-2.9,0.21-6.48,3.49-8.01
		S871.99,259.52,873.34,262.41z"/>
	<path class="xstars12" d="M870.42,268.4c0.33-0.68,1.64-1.51,1.93-2.43c0.45-1.39,0.28-2.33-0.5-3.7c-0.78-1.37-4.08-1.28-4.08-1.28
		s2.1,2.06,2.5,3.41C870.5,265.16,870.42,268.4,870.42,268.4z"/>
</g>
<g>
	
		<linearGradient id="SVGID_13_" gradientUnits="userSpaceOnUse" x1="741.1158" y1="274.1899" x2="775.7083" y2="274.1899" gradientTransform="matrix(0.9061 -0.4231 0.4231 0.9061 -4.1637 427.5092)">
		<stop  offset="0" style="stop-color:#FF1700"/>
		<stop  offset="0.6099" style="stop-color:#FF1700"/>
		<stop  offset="0.6139" style="stop-color:#FD1700"/>
		<stop  offset="0.6787" style="stop-color:#EA1C00"/>
		<stop  offset="0.7525" style="stop-color:#DC1F00"/>
		<stop  offset="0.8434" style="stop-color:#D32100"/>
		<stop  offset="1" style="stop-color:#D12200"/>
		<stop  offset="1" style="stop-color:#C62000"/>
		<stop  offset="1" style="stop-color:#9D1A00"/>
		<stop  offset="1" style="stop-color:#771300"/>
		<stop  offset="1" style="stop-color:#570E00"/>
		<stop  offset="1" style="stop-color:#3B0A00"/>
		<stop  offset="1" style="stop-color:#250600"/>
		<stop  offset="1" style="stop-color:#140300"/>
		<stop  offset="1" style="stop-color:#090100"/>
		<stop  offset="1" style="stop-color:#020000"/>
		<stop  offset="1" style="stop-color:#000000"/>
	</linearGradient>
	<path class="xstars21" d="M783.36,362.39c-0.31-2.65,3.67-17.08,5.58-17.97c1.91-0.89,25.23,2.19,26.48,4.86
		c1.25,2.68,0.59,13.23-0.94,13.94C812.95,363.94,783.36,362.39,783.36,362.39z"/>
	
		<linearGradient id="SVGID_14_" gradientUnits="userSpaceOnUse" x1="763.7111" y1="275.4289" x2="772.869" y2="284.5868" gradientTransform="matrix(0.9061 -0.4231 0.4231 0.9061 -4.1637 427.5092)">
		<stop  offset="0" style="stop-color:#FF3F1F"/>
		<stop  offset="0.3297" style="stop-color:#FF3600"/>
		<stop  offset="0.9281" style="stop-color:#8D0E00"/>
		<stop  offset="1" style="stop-color:#7F0900"/>
	</linearGradient>
	<path class="xstars22" d="M815.88,351.15c-2.87-0.53-9.43-1.46-10.02-1.19c-0.72,0.33,2.23,3.7,2.1,6.63c-0.13,2.93,0.67,3.3,1.58,5
		c0.42,0.77,0.97,1.38,1.63,1.82c1.81,0,3.03-0.06,3.31-0.19C815.76,362.62,816.43,355.15,815.88,351.15z"/>
	
		<linearGradient id="SVGID_15_" gradientUnits="userSpaceOnUse" x1="753.7713" y1="279.6575" x2="788.8602" y2="279.6575" gradientTransform="matrix(0.9061 -0.4231 0.4231 0.9061 -4.1637 427.5092)">
		<stop  offset="0" style="stop-color:#FF1700"/>
		<stop  offset="0.4341" style="stop-color:#FF1700"/>
		<stop  offset="0.5302" style="stop-color:#ED1B00"/>
		<stop  offset="0.659" style="stop-color:#DD1F00"/>
		<stop  offset="0.8045" style="stop-color:#D42100"/>
		<stop  offset="1" style="stop-color:#D12200"/>
		<stop  offset="1" style="stop-color:#C62000"/>
		<stop  offset="1" style="stop-color:#9D1A00"/>
		<stop  offset="1" style="stop-color:#771300"/>
		<stop  offset="1" style="stop-color:#570E00"/>
		<stop  offset="1" style="stop-color:#3B0A00"/>
		<stop  offset="1" style="stop-color:#250600"/>
		<stop  offset="1" style="stop-color:#140300"/>
		<stop  offset="1" style="stop-color:#090100"/>
		<stop  offset="1" style="stop-color:#020000"/>
		<stop  offset="1" style="stop-color:#000000"/>
	</linearGradient>
	<path class="xstars23" d="M788.94,344.42c0.78-1.74,11.53-12.78,14.56-12.99c4.75-2.22,17.45,1.25,20.8,7.39
		c3.35,6.15,12.22,21.52,12.92,31.8c-0.41,4.29-16.73-16.64-20.45-16.96C813.05,353.34,788.94,344.42,788.94,344.42z"/>
	
		<linearGradient id="SVGID_16_" gradientUnits="userSpaceOnUse" x1="781.3907" y1="263.0606" x2="781.3907" y2="304.7993" gradientTransform="matrix(0.9061 -0.4231 0.4231 0.9061 -4.1637 427.5092)">
		<stop  offset="0" style="stop-color:#FF3F1F"/>
		<stop  offset="0.4121" style="stop-color:#FF3600"/>
		<stop  offset="0.4913" style="stop-color:#EA2F00"/>
		<stop  offset="0.7295" style="stop-color:#B11A00"/>
		<stop  offset="0.906" style="stop-color:#8D0E00"/>
		<stop  offset="1" style="stop-color:#7F0900"/>
	</linearGradient>
	<path class="xstars24" d="M824.29,338.82c-1.11-2.04-3.26-3.78-5.8-5.12c-0.55,0.86-0.24,4.13-0.2,5.11c0.04,1.03,0.73,3.25,1.19,4.79
		c0.46,1.54,0.9,3.44,1.34,4.37c0.44,0.94-0.46,2.76-1.92,3.96c-1.45,1.21-1.66,0.95-3.62,1.25c0,0,0.06,0.08,0.17,0.22
		c0.56,0.14,1.02,0.22,1.33,0.25c3.72,0.32,20.04,21.24,20.45,16.96C836.51,360.35,827.65,344.97,824.29,338.82z"/>
	<path class="xstars8" d="M805.75,375.21c-5.39,1.57-6.08,1.89-8.32-0.54c-2.25-2.43-0.98-2.7-6.25-0.87
		c-5.27,1.83-9.57,0.36-11.12-1.76c-1.55-2.12-4.2-7.2-2.52-9.56c1.68-2.36,1.49-5.75,8.19-5.72c6.7,0.03,5.94,2.59,10.3,1.19
		c4.36-1.4,6.68,4.78,10.18,0.93c3.49-3.84,1.82,3.89,6.13,0.61c4.32-3.28,8.31-1.21,9.3,2.12c1,3.33,1.32,8.72-0.17,9.96
		c-1.49,1.24-5.8,2.82-8.85,1.06C809.57,370.86,805.75,375.21,805.75,375.21z"/>
	<path class="xstars9" d="M804.98,373.62c-4.9,1.49-5.53,1.78-7.49-0.23c-1.96-2.01-0.81-2.28-5.61-0.57c-4.8,1.71-8.64,0.58-9.98-1.19
		c-1.34-1.77-3.58-6.04-2-8.11c1.58-2.07,1.5-4.96,7.54-5.12c6.04-0.16,5.29,2.05,9.25,0.73c3.97-1.32,5.89,3.9,9.15,0.51
		c3.26-3.38,1.53,3.27,5.51,0.35c3.98-2.92,7.52-1.26,8.33,1.55c0.81,2.82,0.95,7.41-0.43,8.52c-1.38,1.1-5.3,2.58-8,1.15
		C808.55,369.8,804.98,373.62,804.98,373.62z"/>
	<path class="xstars10" d="M843.03,370.3c1.56,3.33-0.28,7.48-4.11,9.27c-3.82,1.79-8.18,0.53-9.74-2.8c-1.56-3.33,0.28-7.48,4.11-9.27
		C837.12,365.71,841.48,366.96,843.03,370.3z"/>
	<path class="xstars11" d="M842.83,370.39c1.35,2.89-0.21,6.48-3.49,8.01c-3.28,1.53-7.03,0.42-8.38-2.47c-1.35-2.9,0.21-6.48,3.49-8.01
		C837.73,366.39,841.48,367.49,842.83,370.39z"/>
	<path class="xstars12" d="M839.92,376.37c0.33-0.68,1.64-1.51,1.93-2.43c0.45-1.39,0.28-2.33-0.5-3.7c-0.78-1.37-4.08-1.28-4.08-1.28
		s2.1,2.06,2.5,3.41C839.99,373.14,839.92,376.37,839.92,376.37z"/>
</g>
<g>
	
		<linearGradient id="SVGID_17_" gradientUnits="userSpaceOnUse" x1="816.413" y1="396.8615" x2="851.0055" y2="396.8615" gradientTransform="matrix(0.9913 -0.1313 0.1313 0.9913 40.6368 149.8124)">
		<stop  offset="0" style="stop-color:#FF1700"/>
		<stop  offset="0.6099" style="stop-color:#FF1700"/>
		<stop  offset="0.6139" style="stop-color:#FD1700"/>
		<stop  offset="0.6787" style="stop-color:#EA1C00"/>
		<stop  offset="0.7525" style="stop-color:#DC1F00"/>
		<stop  offset="0.8434" style="stop-color:#D32100"/>
		<stop  offset="1" style="stop-color:#D12200"/>
		<stop  offset="1" style="stop-color:#C62000"/>
		<stop  offset="1" style="stop-color:#9D1A00"/>
		<stop  offset="1" style="stop-color:#771300"/>
		<stop  offset="1" style="stop-color:#570E00"/>
		<stop  offset="1" style="stop-color:#3B0A00"/>
		<stop  offset="1" style="stop-color:#250600"/>
		<stop  offset="1" style="stop-color:#140300"/>
		<stop  offset="1" style="stop-color:#090100"/>
		<stop  offset="1" style="stop-color:#020000"/>
		<stop  offset="1" style="stop-color:#000000"/>
	</linearGradient>
	<path class="xstars25" d="M902.1,436c0.5-2.62,8.63-15.19,10.72-15.46c2.09-0.28,23.41,9.67,23.8,12.59
		c0.39,2.93-3.41,12.79-5.08,13.01C929.86,446.37,902.1,436,902.1,436z"/>
	
		<linearGradient id="SVGID_18_" gradientUnits="userSpaceOnUse" x1="839.0082" y1="398.1005" x2="848.1661" y2="407.2584" gradientTransform="matrix(0.9913 -0.1313 0.1313 0.9913 40.6368 149.8124)">
		<stop  offset="0" style="stop-color:#FF3F1F"/>
		<stop  offset="0.3297" style="stop-color:#FF3600"/>
		<stop  offset="0.9281" style="stop-color:#8D0E00"/>
		<stop  offset="1" style="stop-color:#7F0900"/>
	</linearGradient>
	<path class="xstars26" d="M936.5,435.06c-2.58-1.37-8.56-4.23-9.2-4.14c-0.78,0.1,1.01,4.2,0.01,6.95c-1,2.75-0.35,3.35,0.01,5.24
		c0.17,0.86,0.51,1.61,1,2.23c1.72,0.54,2.91,0.86,3.21,0.81C932.93,445.96,935.82,439.03,936.5,435.06z"/>
	
		<linearGradient id="SVGID_19_" gradientUnits="userSpaceOnUse" x1="829.0685" y1="402.3291" x2="864.1574" y2="402.3291" gradientTransform="matrix(0.9913 -0.1313 0.1313 0.9913 40.6368 149.8124)">
		<stop  offset="0" style="stop-color:#FF1700"/>
		<stop  offset="0.4341" style="stop-color:#FF1700"/>
		<stop  offset="0.5302" style="stop-color:#ED1B00"/>
		<stop  offset="0.659" style="stop-color:#DD1F00"/>
		<stop  offset="0.8045" style="stop-color:#D42100"/>
		<stop  offset="1" style="stop-color:#D12200"/>
		<stop  offset="1" style="stop-color:#C62000"/>
		<stop  offset="1" style="stop-color:#9D1A00"/>
		<stop  offset="1" style="stop-color:#771300"/>
		<stop  offset="1" style="stop-color:#570E00"/>
		<stop  offset="1" style="stop-color:#3B0A00"/>
		<stop  offset="1" style="stop-color:#250600"/>
		<stop  offset="1" style="stop-color:#140300"/>
		<stop  offset="1" style="stop-color:#090100"/>
		<stop  offset="1" style="stop-color:#020000"/>
		<stop  offset="1" style="stop-color:#000000"/>
	</linearGradient>
	<path class="xstars27" d="M912.82,420.54c1.26-1.42,14.83-8.72,17.79-8.02c5.19-0.69,16.27,6.43,17.62,13.3
		c1.35,6.87,5.19,24.2,2.77,34.21c-1.68,3.97-10.96-20.89-14.41-22.32C933.14,436.29,912.82,420.54,912.82,420.54z"/>
	
		<linearGradient id="SVGID_20_" gradientUnits="userSpaceOnUse" x1="856.688" y1="385.7322" x2="856.688" y2="427.4709" gradientTransform="matrix(0.9913 -0.1313 0.1313 0.9913 40.6368 149.8124)">
		<stop  offset="0" style="stop-color:#FF3F1F"/>
		<stop  offset="0.4121" style="stop-color:#FF3600"/>
		<stop  offset="0.4913" style="stop-color:#EA2F00"/>
		<stop  offset="0.7295" style="stop-color:#B11A00"/>
		<stop  offset="0.906" style="stop-color:#8D0E00"/>
		<stop  offset="1" style="stop-color:#7F0900"/>
	</linearGradient>
	<path class="xstars2" d="M948.23,425.82c-0.45-2.28-1.97-4.59-4-6.63c-0.78,0.65-1.47,3.86-1.73,4.82c-0.27,1-0.28,3.32-0.31,4.93
		c-0.03,1.61-0.17,3.55-0.04,4.57c0.14,1.02-1.27,2.49-3.02,3.21c-1.75,0.71-1.87,0.41-3.83,0.11c0,0,0.03,0.09,0.1,0.26
		c0.5,0.3,0.9,0.52,1.19,0.64c3.45,1.42,12.73,26.28,14.41,22.32C953.42,450.02,949.58,432.69,948.23,425.82z"/>
	<path class="xstars8" d="M919.6,454.95c-5.61-0.12-6.36-0.02-7.78-3.01c-1.41-2.99-0.13-2.87-5.7-2.71c-5.58,0.16-9.24-2.53-10.08-5.02
		c-0.84-2.49-1.84-8.13,0.47-9.88c2.31-1.75,3.15-5.04,9.53-2.99c6.38,2.04,4.89,4.26,9.47,4.23c4.58-0.03,4.94,6.56,9.43,3.95
		c4.49-2.62,0.56,4.26,5.66,2.43c5.1-1.83,8.28,1.34,8.24,4.81c-0.05,3.47-1.36,8.71-3.15,9.45c-1.79,0.74-6.38,0.95-8.76-1.65
		C924.55,451.96,919.6,454.95,919.6,454.95z"/>
	<path class="xstars9" d="M919.35,453.21c-5.13-0.05-5.81,0.04-7.08-2.47c-1.26-2.51-0.09-2.42-5.18-2.23
		c-5.09,0.19-8.42-2.04-9.16-4.13c-0.74-2.09-1.6-6.84,0.53-8.33c2.13-1.5,2.92-4.28,8.73-2.61c5.8,1.66,4.43,3.55,8.6,3.48
		c4.18-0.07,4.45,5.49,8.57,3.24c4.12-2.25,0.47,3.58,5.15,1.99c4.68-1.59,7.55,1.05,7.48,3.98c-0.08,2.93-1.32,7.36-2.97,7.99
		c-1.64,0.64-5.83,0.86-7.98-1.31C923.9,450.64,919.35,453.21,919.35,453.21z"/>
	<path class="xstars10" d="M956.64,461.47c0.48,3.65-2.52,7.05-6.7,7.6c-4.18,0.55-7.97-1.95-8.45-5.6c-0.48-3.65,2.52-7.05,6.7-7.6
		C952.38,455.32,956.16,457.83,956.64,461.47z"/>
	<path class="xstars11" d="M956.43,461.5c0.42,3.17-2.15,6.12-5.73,6.6c-3.59,0.48-6.83-1.71-7.25-4.87c-0.42-3.17,2.15-6.12,5.73-6.6
		C952.76,456.15,956.01,458.33,956.43,461.5z"/>
	<path class="xstars12" d="M951.85,466.33c0.52-0.55,2.02-0.95,2.58-1.74c0.84-1.2,0.96-2.14,0.63-3.68c-0.33-1.54-3.5-2.45-3.5-2.45
		s1.39,2.6,1.36,4.01C952.89,463.27,951.85,466.33,951.85,466.33z"/>
</g>
<g>
	
		<linearGradient id="SVGID_21_" gradientUnits="userSpaceOnUse" x1="733.3191" y1="533.2263" x2="767.9116" y2="533.2263" gradientTransform="matrix(0.9061 -0.4231 0.4231 0.9061 -4.1637 427.5092)">
		<stop  offset="0" style="stop-color:#FF1700"/>
		<stop  offset="0.6099" style="stop-color:#FF1700"/>
		<stop  offset="0.6139" style="stop-color:#FD1700"/>
		<stop  offset="0.6787" style="stop-color:#EA1C00"/>
		<stop  offset="0.7525" style="stop-color:#DC1F00"/>
		<stop  offset="0.8434" style="stop-color:#D32100"/>
		<stop  offset="1" style="stop-color:#D12200"/>
		<stop  offset="1" style="stop-color:#C62000"/>
		<stop  offset="1" style="stop-color:#9D1A00"/>
		<stop  offset="1" style="stop-color:#771300"/>
		<stop  offset="1" style="stop-color:#570E00"/>
		<stop  offset="1" style="stop-color:#3B0A00"/>
		<stop  offset="1" style="stop-color:#250600"/>
		<stop  offset="1" style="stop-color:#140300"/>
		<stop  offset="1" style="stop-color:#090100"/>
		<stop  offset="1" style="stop-color:#020000"/>
		<stop  offset="1" style="stop-color:#000000"/>
	</linearGradient>
	<path class="xstars29" d="M885.89,600.4c-0.31-2.65,3.67-17.08,5.58-17.97c1.91-0.89,25.23,2.19,26.48,4.86
		c1.25,2.68,0.59,13.23-0.94,13.94C915.48,601.94,885.89,600.4,885.89,600.4z"/>
	
		<linearGradient id="SVGID_22_" gradientUnits="userSpaceOnUse" x1="755.9144" y1="534.4654" x2="765.0723" y2="543.6232" gradientTransform="matrix(0.9061 -0.4231 0.4231 0.9061 -4.1637 427.5092)">
		<stop  offset="0" style="stop-color:#FF3F1F"/>
		<stop  offset="0.3297" style="stop-color:#FF3600"/>
		<stop  offset="0.9281" style="stop-color:#8D0E00"/>
		<stop  offset="1" style="stop-color:#7F0900"/>
	</linearGradient>
	<path class="xstars30" d="M918.41,589.16c-2.87-0.53-9.43-1.46-10.02-1.19c-0.72,0.33,2.23,3.7,2.1,6.63c-0.13,2.93,0.67,3.3,1.58,5
		c0.42,0.77,0.97,1.38,1.63,1.82c1.81,0,3.03-0.06,3.31-0.19C918.29,600.63,918.96,593.16,918.41,589.16z"/>
	
		<linearGradient id="SVGID_23_" gradientUnits="userSpaceOnUse" x1="745.9746" y1="538.694" x2="781.0635" y2="538.694" gradientTransform="matrix(0.9061 -0.4231 0.4231 0.9061 -4.1637 427.5092)">
		<stop  offset="0" style="stop-color:#FF1700"/>
		<stop  offset="0.4341" style="stop-color:#FF1700"/>
		<stop  offset="0.5302" style="stop-color:#ED1B00"/>
		<stop  offset="0.659" style="stop-color:#DD1F00"/>
		<stop  offset="0.8045" style="stop-color:#D42100"/>
		<stop  offset="1" style="stop-color:#D12200"/>
		<stop  offset="1" style="stop-color:#C62000"/>
		<stop  offset="1" style="stop-color:#9D1A00"/>
		<stop  offset="1" style="stop-color:#771300"/>
		<stop  offset="1" style="stop-color:#570E00"/>
		<stop  offset="1" style="stop-color:#3B0A00"/>
		<stop  offset="1" style="stop-color:#250600"/>
		<stop  offset="1" style="stop-color:#140300"/>
		<stop  offset="1" style="stop-color:#090100"/>
		<stop  offset="1" style="stop-color:#020000"/>
		<stop  offset="1" style="stop-color:#000000"/>
	</linearGradient>
	<path class="xstars31" d="M891.47,582.43c0.78-1.74,11.53-12.78,14.56-12.99c4.75-2.22,17.45,1.25,20.8,7.39
		c3.35,6.15,12.22,21.52,12.92,31.8c-0.41,4.29-16.73-16.64-20.45-16.96C915.58,591.35,891.47,582.43,891.47,582.43z"/>
	
		<linearGradient id="SVGID_24_" gradientUnits="userSpaceOnUse" x1="773.5941" y1="522.097" x2="773.5941" y2="563.8358" gradientTransform="matrix(0.9061 -0.4231 0.4231 0.9061 -4.1637 427.5092)">
		<stop  offset="0" style="stop-color:#FF3F1F"/>
		<stop  offset="0.4121" style="stop-color:#FF3600"/>
		<stop  offset="0.4913" style="stop-color:#EA2F00"/>
		<stop  offset="0.7295" style="stop-color:#B11A00"/>
		<stop  offset="0.906" style="stop-color:#8D0E00"/>
		<stop  offset="1" style="stop-color:#7F0900"/>
	</linearGradient>
	<path class="xstars32" d="M926.83,576.83c-1.11-2.04-3.26-3.78-5.8-5.12c-0.55,0.86-0.24,4.13-0.2,5.11c0.04,1.03,0.73,3.25,1.19,4.79
		c0.46,1.54,0.9,3.44,1.34,4.37c0.44,0.94-0.46,2.76-1.92,3.96c-1.45,1.21-1.66,0.95-3.62,1.25c0,0,0.06,0.08,0.17,0.22
		c0.56,0.14,1.02,0.22,1.33,0.25c3.72,0.32,20.04,21.24,20.45,16.96C939.05,598.35,930.18,582.98,926.83,576.83z"/>
	<path class="xstars8" d="M908.28,613.22c-5.39,1.57-6.08,1.89-8.32-0.54c-2.25-2.43-0.98-2.7-6.25-0.87
		c-5.27,1.83-9.57,0.36-11.12-1.76c-1.55-2.12-4.2-7.2-2.52-9.56c1.68-2.36,1.49-5.75,8.19-5.72c6.7,0.03,5.94,2.59,10.3,1.19
		c4.36-1.4,6.68,4.78,10.18,0.93c3.49-3.84,1.82,3.89,6.13,0.61c4.32-3.28,8.31-1.21,9.3,2.12c1,3.33,1.32,8.72-0.17,9.96
		c-1.49,1.24-5.8,2.82-8.85,1.06C912.1,608.87,908.28,613.22,908.28,613.22z"/>
	<path class="xstars9" d="M907.51,611.63c-4.9,1.49-5.53,1.78-7.49-0.23c-1.96-2.01-0.81-2.28-5.61-0.57c-4.8,1.71-8.64,0.58-9.98-1.19
		c-1.34-1.77-3.58-6.04-2-8.11c1.58-2.07,1.5-4.96,7.54-5.12c6.04-0.16,5.29,2.05,9.25,0.73c3.97-1.32,5.89,3.9,9.15,0.51
		c3.26-3.38,1.53,3.27,5.51,0.35c3.98-2.92,7.52-1.26,8.33,1.55c0.81,2.82,0.95,7.41-0.43,8.52c-1.38,1.1-5.3,2.58-8,1.15
		C911.08,607.81,907.51,611.63,907.51,611.63z"/>
	<path class="xstars10" d="M945.56,608.3c1.56,3.33-0.28,7.48-4.11,9.27c-3.82,1.79-8.18,0.53-9.74-2.8c-1.56-3.33,0.28-7.48,4.11-9.27
		C939.65,603.72,944.01,604.97,945.56,608.3z"/>
	<path class="xstars11" d="M945.37,608.4c1.35,2.89-0.21,6.48-3.49,8.01c-3.28,1.53-7.03,0.42-8.38-2.47c-1.35-2.9,0.21-6.48,3.49-8.01
		C940.26,604.4,944.01,605.5,945.37,608.4z"/>
	<path class="xstars12" d="M942.45,614.38c0.33-0.68,1.64-1.51,1.93-2.43c0.45-1.39,0.28-2.33-0.5-3.7c-0.78-1.37-4.08-1.28-4.08-1.28
		s2.1,2.06,2.5,3.41C942.53,611.15,942.45,614.38,942.45,614.38z"/>
</g>
<g>
	
		<linearGradient id="SVGID_25_" gradientUnits="userSpaceOnUse" x1="466.9271" y1="316.6617" x2="508.0694" y2="316.6617" gradientTransform="matrix(0.9061 -0.4231 0.4231 0.9061 -4.1637 427.5092)">
		<stop  offset="0" style="stop-color:#FF1700"/>
		<stop  offset="0.6099" style="stop-color:#FF1700"/>
		<stop  offset="0.6139" style="stop-color:#FD1700"/>
		<stop  offset="0.6787" style="stop-color:#EA1C00"/>
		<stop  offset="0.7525" style="stop-color:#DC1F00"/>
		<stop  offset="0.8434" style="stop-color:#D32100"/>
		<stop  offset="1" style="stop-color:#D12200"/>
		<stop  offset="1" style="stop-color:#C62000"/>
		<stop  offset="1" style="stop-color:#9D1A00"/>
		<stop  offset="1" style="stop-color:#771300"/>
		<stop  offset="1" style="stop-color:#570E00"/>
		<stop  offset="1" style="stop-color:#3B0A00"/>
		<stop  offset="1" style="stop-color:#250600"/>
		<stop  offset="1" style="stop-color:#140300"/>
		<stop  offset="1" style="stop-color:#090100"/>
		<stop  offset="1" style="stop-color:#020000"/>
		<stop  offset="1" style="stop-color:#000000"/>
	</linearGradient>
	<path class="xstars33" d="M552.89,516.88c-0.36-3.15,4.36-20.31,6.63-21.37c2.27-1.06,30.01,2.6,31.49,5.78
		c1.49,3.18,0.7,15.73-1.12,16.58C588.08,518.72,552.89,516.88,552.89,516.88z"/>
	
		<linearGradient id="SVGID_26_" gradientUnits="userSpaceOnUse" x1="493.8006" y1="318.1353" x2="504.6924" y2="329.0272" gradientTransform="matrix(0.9061 -0.4231 0.4231 0.9061 -4.1637 427.5092)">
		<stop  offset="0" style="stop-color:#FF3F1F"/>
		<stop  offset="0.3297" style="stop-color:#FF3600"/>
		<stop  offset="0.9281" style="stop-color:#8D0E00"/>
		<stop  offset="1" style="stop-color:#7F0900"/>
	</linearGradient>
	<path class="xstars34" d="M591.57,503.52c-3.41-0.63-11.22-1.74-11.92-1.41c-0.85,0.4,2.65,4.4,2.49,7.88
		c-0.15,3.48,0.8,3.93,1.88,5.94c0.5,0.92,1.15,1.64,1.93,2.17c2.15,0,3.6-0.07,3.93-0.22
		C591.42,517.16,592.22,508.27,591.57,503.52z"/>
	
		<linearGradient id="SVGID_27_" gradientUnits="userSpaceOnUse" x1="481.9788" y1="323.1646" x2="523.7115" y2="323.1646" gradientTransform="matrix(0.9061 -0.4231 0.4231 0.9061 -4.1637 427.5092)">
		<stop  offset="0" style="stop-color:#FF1700"/>
		<stop  offset="0.4341" style="stop-color:#FF1700"/>
		<stop  offset="0.5302" style="stop-color:#ED1B00"/>
		<stop  offset="0.659" style="stop-color:#DD1F00"/>
		<stop  offset="0.8045" style="stop-color:#D42100"/>
		<stop  offset="1" style="stop-color:#D12200"/>
		<stop  offset="1" style="stop-color:#C62000"/>
		<stop  offset="1" style="stop-color:#9D1A00"/>
		<stop  offset="1" style="stop-color:#771300"/>
		<stop  offset="1" style="stop-color:#570E00"/>
		<stop  offset="1" style="stop-color:#3B0A00"/>
		<stop  offset="1" style="stop-color:#250600"/>
		<stop  offset="1" style="stop-color:#140300"/>
		<stop  offset="1" style="stop-color:#090100"/>
		<stop  offset="1" style="stop-color:#020000"/>
		<stop  offset="1" style="stop-color:#000000"/>
	</linearGradient>
	<path class="xstars35" d="M559.52,495.51c0.93-2.06,13.71-15.2,17.32-15.45c5.65-2.64,20.75,1.49,24.74,8.79
		c3.99,7.31,14.53,25.6,15.37,37.82c-0.49,5.1-19.9-19.78-24.32-20.17C588.2,506.12,559.52,495.51,559.52,495.51z"/>
	
		<linearGradient id="SVGID_28_" gradientUnits="userSpaceOnUse" x1="514.8278" y1="303.4252" x2="514.8278" y2="353.0668" gradientTransform="matrix(0.9061 -0.4231 0.4231 0.9061 -4.1637 427.5092)">
		<stop  offset="0" style="stop-color:#FF3F1F"/>
		<stop  offset="0.4121" style="stop-color:#FF3600"/>
		<stop  offset="0.4913" style="stop-color:#EA2F00"/>
		<stop  offset="0.7295" style="stop-color:#B11A00"/>
		<stop  offset="0.906" style="stop-color:#8D0E00"/>
		<stop  offset="1" style="stop-color:#7F0900"/>
	</linearGradient>
	<path class="xstars36" d="M601.58,488.85c-1.32-2.43-3.88-4.5-6.9-6.1c-0.65,1.02-0.29,4.91-0.24,6.08c0.05,1.23,0.87,3.87,1.41,5.7
		c0.54,1.83,1.07,4.09,1.59,5.2c0.52,1.11-0.55,3.28-2.28,4.72c-1.73,1.43-1.97,1.13-4.31,1.49c0,0,0.07,0.09,0.2,0.26
		c0.67,0.16,1.21,0.27,1.58,0.3c4.42,0.38,23.83,25.26,24.32,20.17C616.11,514.45,605.56,496.16,601.58,488.85z"/>
	<path class="xstars8" d="M579.51,532.13c-6.41,1.87-7.23,2.25-9.9-0.64c-2.67-2.89-1.17-3.21-7.44-1.04
		c-6.27,2.18-11.39,0.43-13.23-2.09c-1.84-2.52-4.99-8.56-2.99-11.37c2-2.81,1.77-6.84,9.74-6.8c7.96,0.04,7.07,3.09,12.25,1.42
		c5.18-1.67,7.95,5.68,12.11,1.11c4.16-4.57,2.16,4.63,7.29,0.73c5.13-3.9,9.88-1.44,11.06,2.52c1.18,3.96,1.57,10.37-0.2,11.84
		c-1.77,1.48-6.89,3.36-10.52,1.26C584.06,526.96,579.51,532.13,579.51,532.13z"/>
	<path class="xstars9" d="M578.61,530.23c-5.83,1.77-6.58,2.12-8.91-0.27c-2.33-2.39-0.96-2.71-6.67-0.68
		c-5.71,2.04-10.28,0.69-11.87-1.42c-1.59-2.11-4.26-7.18-2.38-9.64c1.88-2.46,1.79-5.89,8.97-6.08c7.18-0.19,6.29,2.44,11,0.87
		c4.72-1.57,7.01,4.63,10.88,0.61c3.87-4.02,1.82,3.89,6.55,0.42c4.74-3.48,8.94-1.5,9.9,1.84c0.96,3.35,1.13,8.82-0.51,10.13
		c-1.64,1.31-6.31,3.06-9.52,1.37C582.85,525.69,578.61,530.23,578.61,530.23z"/>
	<path class="xstars10" d="M623.86,526.28c1.85,3.96-0.34,8.9-4.88,11.02c-4.55,2.12-9.73,0.63-11.59-3.33
		c-1.85-3.96,0.34-8.9,4.88-11.02C616.82,520.83,622.01,522.32,623.86,526.28z"/>
	<path class="xstars11" d="M623.63,526.39c1.61,3.44-0.25,7.71-4.15,9.53s-8.36,0.5-9.97-2.94c-1.61-3.44,0.25-7.71,4.15-9.53
		C617.56,521.63,622.02,522.95,623.63,526.39z"/>
	<path class="xstars12" d="M620.16,533.51c0.39-0.81,1.95-1.79,2.3-2.9c0.53-1.66,0.33-2.77-0.6-4.4c-0.93-1.63-4.85-1.52-4.85-1.52
		s2.5,2.45,2.97,4.06C620.25,529.67,620.16,533.51,620.16,533.51z"/>
</g>
<g>
	
		<linearGradient id="SVGID_29_" gradientUnits="userSpaceOnUse" x1="432.8761" y1="177.231" x2="467.4686" y2="177.231" gradientTransform="matrix(0.9061 -0.4231 0.4231 0.9061 -4.1637 427.5092)">
		<stop  offset="0" style="stop-color:#FF1700"/>
		<stop  offset="0.6099" style="stop-color:#FF1700"/>
		<stop  offset="0.6139" style="stop-color:#FD1700"/>
		<stop  offset="0.6787" style="stop-color:#EA1C00"/>
		<stop  offset="0.7525" style="stop-color:#DC1F00"/>
		<stop  offset="0.8434" style="stop-color:#D32100"/>
		<stop  offset="1" style="stop-color:#D12200"/>
		<stop  offset="1" style="stop-color:#C62000"/>
		<stop  offset="1" style="stop-color:#9D1A00"/>
		<stop  offset="1" style="stop-color:#771300"/>
		<stop  offset="1" style="stop-color:#570E00"/>
		<stop  offset="1" style="stop-color:#3B0A00"/>
		<stop  offset="1" style="stop-color:#250600"/>
		<stop  offset="1" style="stop-color:#140300"/>
		<stop  offset="1" style="stop-color:#090100"/>
		<stop  offset="1" style="stop-color:#020000"/>
		<stop  offset="1" style="stop-color:#000000"/>
	</linearGradient>
	<path class="xstars37" d="M463.04,404.95c-0.31-2.65,3.67-17.08,5.58-17.97c1.91-0.89,25.23,2.19,26.48,4.86
		c1.25,2.68,0.59,13.23-0.94,13.94C492.63,406.5,463.04,404.95,463.04,404.95z"/>
	
		<linearGradient id="SVGID_30_" gradientUnits="userSpaceOnUse" x1="455.4714" y1="178.47" x2="464.6293" y2="187.6279" gradientTransform="matrix(0.9061 -0.4231 0.4231 0.9061 -4.1637 427.5092)">
		<stop  offset="0" style="stop-color:#FF3F1F"/>
		<stop  offset="0.3297" style="stop-color:#FF3600"/>
		<stop  offset="0.9281" style="stop-color:#8D0E00"/>
		<stop  offset="1" style="stop-color:#7F0900"/>
	</linearGradient>
	<path class="xstars38" d="M495.57,393.72c-2.87-0.53-9.43-1.46-10.02-1.19c-0.72,0.33,2.23,3.7,2.1,6.63c-0.13,2.93,0.67,3.3,1.58,5
		c0.42,0.77,0.97,1.38,1.63,1.82c1.81,0,3.03-0.06,3.31-0.19C495.44,405.19,496.11,397.71,495.57,393.72z"/>
	
		<linearGradient id="SVGID_31_" gradientUnits="userSpaceOnUse" x1="445.5316" y1="182.6986" x2="480.6206" y2="182.6986" gradientTransform="matrix(0.9061 -0.4231 0.4231 0.9061 -4.1637 427.5092)">
		<stop  offset="0" style="stop-color:#FF1700"/>
		<stop  offset="0.4341" style="stop-color:#FF1700"/>
		<stop  offset="0.5302" style="stop-color:#ED1B00"/>
		<stop  offset="0.659" style="stop-color:#DD1F00"/>
		<stop  offset="0.8045" style="stop-color:#D42100"/>
		<stop  offset="1" style="stop-color:#D12200"/>
		<stop  offset="1" style="stop-color:#C62000"/>
		<stop  offset="1" style="stop-color:#9D1A00"/>
		<stop  offset="1" style="stop-color:#771300"/>
		<stop  offset="1" style="stop-color:#570E00"/>
		<stop  offset="1" style="stop-color:#3B0A00"/>
		<stop  offset="1" style="stop-color:#250600"/>
		<stop  offset="1" style="stop-color:#140300"/>
		<stop  offset="1" style="stop-color:#090100"/>
		<stop  offset="1" style="stop-color:#020000"/>
		<stop  offset="1" style="stop-color:#000000"/>
	</linearGradient>
	<path class="xstars39" d="M468.62,386.98c0.78-1.74,11.53-12.78,14.56-12.99c4.75-2.22,17.45,1.25,20.8,7.39
		c3.35,6.15,12.22,21.52,12.92,31.8c-0.41,4.29-16.73-16.64-20.45-16.96C492.74,395.9,468.62,386.98,468.62,386.98z"/>
	
		<linearGradient id="SVGID_32_" gradientUnits="userSpaceOnUse" x1="473.1511" y1="166.1017" x2="473.1511" y2="207.8404" gradientTransform="matrix(0.9061 -0.4231 0.4231 0.9061 -4.1637 427.5092)">
		<stop  offset="0" style="stop-color:#FF3F1F"/>
		<stop  offset="0.4121" style="stop-color:#FF3600"/>
		<stop  offset="0.4913" style="stop-color:#EA2F00"/>
		<stop  offset="0.7295" style="stop-color:#B11A00"/>
		<stop  offset="0.906" style="stop-color:#8D0E00"/>
		<stop  offset="1" style="stop-color:#7F0900"/>
	</linearGradient>
	<path class="xstars40" d="M503.98,381.39c-1.11-2.04-3.26-3.78-5.8-5.12c-0.55,0.86-0.24,4.13-0.2,5.11c0.04,1.03,0.73,3.25,1.19,4.79
		c0.46,1.54,0.9,3.44,1.34,4.37c0.44,0.94-0.46,2.76-1.92,3.96c-1.45,1.21-1.66,0.95-3.62,1.25c0,0,0.06,0.08,0.17,0.22
		c0.56,0.14,1.02,0.22,1.33,0.25c3.72,0.32,20.04,21.24,20.45,16.96C516.2,402.91,507.33,387.53,503.98,381.39z"/>
	<path class="xstars8" d="M485.43,417.77c-5.39,1.57-6.08,1.89-8.32-0.54c-2.25-2.43-0.98-2.7-6.25-0.87
		c-5.27,1.83-9.57,0.36-11.12-1.76c-1.55-2.12-4.2-7.2-2.52-9.56c1.68-2.36,1.49-5.75,8.19-5.72c6.7,0.03,5.94,2.59,10.3,1.19
		c4.36-1.4,6.68,4.78,10.18,0.93c3.49-3.84,1.82,3.89,6.13,0.61c4.32-3.28,8.31-1.21,9.3,2.12c1,3.33,1.32,8.72-0.17,9.96
		c-1.49,1.24-5.8,2.82-8.85,1.06C489.25,413.43,485.43,417.77,485.43,417.77z"/>
	<path class="xstars9" d="M484.67,416.18c-4.9,1.49-5.53,1.78-7.49-0.23c-1.96-2.01-0.81-2.28-5.61-0.57c-4.8,1.71-8.64,0.58-9.98-1.19
		c-1.34-1.77-3.58-6.04-2-8.11c1.58-2.07,1.5-4.96,7.54-5.12c6.04-0.16,5.29,2.05,9.25,0.73c3.97-1.32,5.89,3.9,9.15,0.51
		c3.26-3.38,1.53,3.27,5.51,0.35c3.98-2.92,7.52-1.26,8.33,1.55c0.81,2.82,0.95,7.41-0.43,8.52c-1.38,1.1-5.3,2.58-8,1.15
		C488.23,412.36,484.67,416.18,484.67,416.18z"/>
	<path class="xstars10" d="M522.72,412.86c1.56,3.33-0.28,7.48-4.11,9.27c-3.82,1.79-8.18,0.53-9.74-2.8c-1.56-3.33,0.28-7.48,4.11-9.27
		C516.8,408.27,521.16,409.53,522.72,412.86z"/>
	<path class="xstars11" d="M522.52,412.95c1.35,2.89-0.21,6.48-3.49,8.01c-3.28,1.53-7.03,0.42-8.38-2.47c-1.35-2.9,0.21-6.48,3.49-8.01
		C517.42,408.95,521.17,410.05,522.52,412.95z"/>
	<path class="xstars12" d="M519.6,418.93c0.33-0.68,1.64-1.51,1.93-2.43c0.45-1.39,0.28-2.33-0.5-3.7c-0.78-1.37-4.08-1.28-4.08-1.28
		s2.1,2.06,2.5,3.41C519.68,415.7,519.6,418.93,519.6,418.93z"/>
</g>
<g>
	
		<linearGradient id="SVGID_33_" gradientUnits="userSpaceOnUse" x1="273.5766" y1="245.1959" x2="308.1691" y2="245.1959" gradientTransform="matrix(0.9061 -0.4231 0.4231 0.9061 -4.1637 427.5092)">
		<stop  offset="0" style="stop-color:#FF1700"/>
		<stop  offset="0.6099" style="stop-color:#FF1700"/>
		<stop  offset="0.6139" style="stop-color:#FD1700"/>
		<stop  offset="0.6787" style="stop-color:#EA1C00"/>
		<stop  offset="0.7525" style="stop-color:#DC1F00"/>
		<stop  offset="0.8434" style="stop-color:#D32100"/>
		<stop  offset="1" style="stop-color:#D12200"/>
		<stop  offset="1" style="stop-color:#C62000"/>
		<stop  offset="1" style="stop-color:#9D1A00"/>
		<stop  offset="1" style="stop-color:#771300"/>
		<stop  offset="1" style="stop-color:#570E00"/>
		<stop  offset="1" style="stop-color:#3B0A00"/>
		<stop  offset="1" style="stop-color:#250600"/>
		<stop  offset="1" style="stop-color:#140300"/>
		<stop  offset="1" style="stop-color:#090100"/>
		<stop  offset="1" style="stop-color:#020000"/>
		<stop  offset="1" style="stop-color:#000000"/>
	</linearGradient>
	<path class="xstars41" d="M347.46,533.93c-0.31-2.65,3.67-17.08,5.58-17.97c1.91-0.89,25.23,2.19,26.48,4.86
		c1.25,2.68,0.59,13.23-0.94,13.94S347.46,533.93,347.46,533.93z"/>
	
		<linearGradient id="SVGID_34_" gradientUnits="userSpaceOnUse" x1="296.1719" y1="246.435" x2="305.3298" y2="255.5928" gradientTransform="matrix(0.9061 -0.4231 0.4231 0.9061 -4.1637 427.5092)">
		<stop  offset="0" style="stop-color:#FF3F1F"/>
		<stop  offset="0.3297" style="stop-color:#FF3600"/>
		<stop  offset="0.9281" style="stop-color:#8D0E00"/>
		<stop  offset="1" style="stop-color:#7F0900"/>
	</linearGradient>
	<path class="xstars42" d="M379.98,522.7c-2.87-0.53-9.43-1.46-10.02-1.19c-0.72,0.33,2.23,3.7,2.1,6.63c-0.13,2.93,0.67,3.3,1.58,5
		c0.42,0.77,0.97,1.38,1.63,1.82c1.81,0,3.03-0.06,3.31-0.19C379.86,534.17,380.53,526.69,379.98,522.7z"/>
	
		<linearGradient id="SVGID_35_" gradientUnits="userSpaceOnUse" x1="286.2321" y1="250.6636" x2="321.3211" y2="250.6636" gradientTransform="matrix(0.9061 -0.4231 0.4231 0.9061 -4.1637 427.5092)">
		<stop  offset="0" style="stop-color:#FF1700"/>
		<stop  offset="0.4341" style="stop-color:#FF1700"/>
		<stop  offset="0.5302" style="stop-color:#ED1B00"/>
		<stop  offset="0.659" style="stop-color:#DD1F00"/>
		<stop  offset="0.8045" style="stop-color:#D42100"/>
		<stop  offset="1" style="stop-color:#D12200"/>
		<stop  offset="1" style="stop-color:#C62000"/>
		<stop  offset="1" style="stop-color:#9D1A00"/>
		<stop  offset="1" style="stop-color:#771300"/>
		<stop  offset="1" style="stop-color:#570E00"/>
		<stop  offset="1" style="stop-color:#3B0A00"/>
		<stop  offset="1" style="stop-color:#250600"/>
		<stop  offset="1" style="stop-color:#140300"/>
		<stop  offset="1" style="stop-color:#090100"/>
		<stop  offset="1" style="stop-color:#020000"/>
		<stop  offset="1" style="stop-color:#000000"/>
	</linearGradient>
	<path class="xstars43" d="M353.04,515.96c0.78-1.74,11.53-12.78,14.56-12.99c4.75-2.22,17.45,1.25,20.8,7.39
		c3.35,6.15,12.22,21.52,12.92,31.8c-0.41,4.29-16.73-16.64-20.45-16.96C377.15,524.88,353.04,515.96,353.04,515.96z"/>
	
		<linearGradient id="SVGID_36_" gradientUnits="userSpaceOnUse" x1="313.8516" y1="234.0667" x2="313.8516" y2="275.8054" gradientTransform="matrix(0.9061 -0.4231 0.4231 0.9061 -4.1637 427.5092)">
		<stop  offset="0" style="stop-color:#FF3F1F"/>
		<stop  offset="0.4121" style="stop-color:#FF3600"/>
		<stop  offset="0.4913" style="stop-color:#EA2F00"/>
		<stop  offset="0.7295" style="stop-color:#B11A00"/>
		<stop  offset="0.906" style="stop-color:#8D0E00"/>
		<stop  offset="1" style="stop-color:#7F0900"/>
	</linearGradient>
	<path class="xstars44" d="M388.4,510.37c-1.11-2.04-3.26-3.78-5.8-5.12c-0.55,0.86-0.24,4.13-0.2,5.11c0.04,1.03,0.73,3.25,1.19,4.79
		c0.46,1.54,0.9,3.44,1.34,4.37c0.44,0.94-0.46,2.76-1.92,3.96c-1.45,1.21-1.66,0.95-3.62,1.25c0,0,0.06,0.08,0.17,0.22
		c0.56,0.14,1.02,0.22,1.33,0.25c3.72,0.32,20.04,21.24,20.45,16.96C400.62,531.89,391.75,516.51,388.4,510.37z"/>
	<path class="xstars8" d="M369.85,546.75c-5.39,1.57-6.08,1.89-8.32-0.54c-2.25-2.43-0.98-2.7-6.25-0.87
		c-5.27,1.83-9.57,0.36-11.12-1.76c-1.55-2.12-4.2-7.2-2.52-9.56c1.68-2.36,1.49-5.75,8.19-5.72c6.7,0.03,5.94,2.59,10.3,1.19
		c4.36-1.4,6.68,4.78,10.18,0.93c3.49-3.84,1.82,3.89,6.13,0.61c4.32-3.28,8.31-1.21,9.3,2.12c1,3.33,1.32,8.72-0.17,9.96
		c-1.49,1.24-5.8,2.82-8.85,1.06C373.67,542.41,369.85,546.75,369.85,546.75z"/>
	<path class="xstars9" d="M369.08,545.16c-4.9,1.49-5.53,1.78-7.49-0.23s-0.81-2.28-5.61-0.57c-4.8,1.71-8.64,0.58-9.98-1.19
		c-1.34-1.77-3.58-6.04-2-8.11c1.58-2.07,1.5-4.96,7.54-5.12c6.04-0.16,5.29,2.05,9.25,0.73c3.97-1.32,5.89,3.9,9.15,0.51
		c3.26-3.38,1.53,3.27,5.51,0.35c3.98-2.92,7.52-1.26,8.33,1.55c0.81,2.82,0.95,7.41-0.43,8.52c-1.38,1.1-5.3,2.58-8,1.15
		C372.65,541.34,369.08,545.16,369.08,545.16z"/>
	<path class="xstars10" d="M407.13,541.84c1.56,3.33-0.28,7.48-4.11,9.27c-3.82,1.79-8.18,0.53-9.74-2.8c-1.56-3.33,0.28-7.48,4.11-9.27
		C401.22,537.25,405.58,538.51,407.13,541.84z"/>
	<path class="xstars11" d="M406.94,541.93c1.35,2.89-0.21,6.48-3.49,8.01c-3.28,1.53-7.03,0.42-8.38-2.47c-1.35-2.9,0.21-6.48,3.49-8.01
		C401.83,537.93,405.58,539.04,406.94,541.93z"/>
	<path class="xstars12" d="M404.02,547.91c0.33-0.68,1.64-1.51,1.93-2.43c0.45-1.39,0.28-2.33-0.5-3.7c-0.78-1.37-4.08-1.28-4.08-1.28
		s2.1,2.06,2.5,3.41C404.1,544.68,404.02,547.91,404.02,547.91z"/>
</g>
</svg>
