<?xml version="1.0" encoding="utf-8"?>
<!-- Generator: Adobe Illustrator 24.3.0, SVG Export Plug-In . SVG Version: 6.00 Build 0)  -->
<svg version="1.1" id="Layer_1" xmlns="http://www.w3.org/2000/svg" xmlns:xlink="http://www.w3.org/1999/xlink" x="0px" y="0px"
	 viewBox="0 0 1400 980" style="enable-background:new 0 0 1400 980;" xml:space="preserve">
<style type="text/css">
	.earth0{fill:#0A1018;}
	.earth1{fill:#E8962C;}
	.earth2{fill:#FFE76D;}
	.earth3{fill:#FFD800;}
	.earth4{fill:#FFE242;}
	.earth5{fill:#1FBBF8;}
	.earth6{fill:#A4B534;}
	.earth7{fill:#E7F288;}
	.earth8{opacity:0.1;fill:#072936;}
</style>
<rect class="earth0" width="1400" height="980"/>
<g>
	<g>
		<path id="orange" class="earth1" d="M824.82,530.56c1.81-5.59,6.49-9.6,12.38-11.39c-4.65-4.04-7.29-9.6-6.67-15.44
			c0.61-5.84,4.35-10.74,9.74-13.72c-5.39-2.98-9.13-7.87-9.74-13.72c-0.61-5.84,2.02-11.41,6.67-15.45
			c-5.89-1.8-10.56-5.81-12.38-11.39c-1.82-5.59-0.39-11.58,3.32-16.5c-6.13-0.53-11.54-3.48-14.48-8.57
			c-2.94-5.09-2.79-11.24-0.18-16.83c-6.11,0.75-12.01-1.01-15.94-5.37c-3.93-4.37-5.07-10.42-3.68-16.42
			c-5.82,2.01-11.96,1.51-16.71-1.94c-4.75-3.45-7.12-9.14-7.01-15.3c-5.28,3.17-11.38,3.97-16.75,1.58
			c-5.37-2.39-8.87-7.46-10.04-13.5c-4.5,4.2-10.31,6.25-16.06,5.02c-5.75-1.22-10.22-5.45-12.63-11.12
			c-3.53,5.05-8.79,8.25-14.66,8.25c-5.88,0-11.13-3.21-14.66-8.25c-2.4,5.67-6.88,9.9-12.63,11.12
			c-5.75,1.22-11.56-0.82-16.06-5.02c-1.17,6.05-4.67,11.11-10.04,13.5c-5.37,2.39-11.47,1.6-16.75-1.58
			c0.11,6.16-2.26,11.84-7.01,15.3c-4.75,3.45-10.89,3.95-16.71,1.94c1.39,6,0.26,12.05-3.68,16.42c-3.93,4.37-9.83,6.13-15.94,5.37
			c2.61,5.58,2.75,11.74-0.18,16.82c-2.94,5.09-8.34,8.04-14.48,8.57c3.71,4.92,5.13,10.91,3.32,16.49
			c-1.82,5.59-6.49,9.6-12.38,11.39c4.65,4.04,7.29,9.6,6.68,15.44c-0.61,5.84-4.35,10.74-9.74,13.72
			c5.39,2.98,9.13,7.88,9.74,13.72c0.62,5.84-2.02,11.41-6.68,15.45c5.89,1.8,10.57,5.81,12.38,11.39
			c1.82,5.59,0.39,11.58-3.32,16.5c6.14,0.53,11.54,3.48,14.48,8.57c2.94,5.09,2.79,11.24,0.18,16.82
			c6.11-0.75,12.01,1.01,15.94,5.37c3.93,4.37,5.07,10.42,3.68,16.42c5.82-2.01,11.96-1.51,16.71,1.94
			c4.75,3.45,7.12,9.14,7.01,15.3c5.28-3.18,11.38-3.97,16.75-1.58c5.37,2.39,8.87,7.46,10.04,13.5c4.5-4.2,10.31-6.25,16.06-5.02
			c5.75,1.22,10.22,5.45,12.63,11.12c3.53-5.05,8.79-8.25,14.66-8.25c5.88,0,11.13,3.21,14.66,8.25c2.4-5.67,6.88-9.9,12.63-11.12
			c5.75-1.22,11.56,0.82,16.06,5.02c1.17-6.05,4.67-11.11,10.04-13.5c5.37-2.39,11.48-1.6,16.75,1.58
			c-0.11-6.16,2.26-11.84,7.01-15.3c4.75-3.45,10.89-3.95,16.71-1.94c-1.39-6-0.25-12.05,3.68-16.42c3.93-4.37,9.83-6.13,15.94-5.38
			c-2.61-5.58-2.75-11.74,0.18-16.82c2.94-5.09,8.34-8.04,14.48-8.57C824.43,542.13,823.01,536.14,824.82,530.56z"/>
		
			<ellipse transform="matrix(0.9996 -0.0293 0.0293 0.9996 -14.0701 20.7411)" class="earth2" cx="700" cy="490" rx="117.89" ry="117.89"/>
		
			<ellipse transform="matrix(0.1946 -0.9809 0.9809 0.1946 83.1226 1081.2378)" class="earth3" cx="700" cy="490" rx="101.25" ry="101.25"/>
		<path class="earth4" d="M628.84,512.96c0-55.92,45.33-101.25,101.25-101.25c16.26,0,31.63,3.84,45.25,10.66
			c-18.54-20.63-45.42-33.62-75.34-33.62c-55.92,0-101.25,45.33-101.25,101.25c0,39.65,22.8,73.98,56,90.6
			C638.65,562.67,628.84,538.96,628.84,512.96z"/>
	</g>
	<g class="earth">
		<path class="earth5" d="M802.14,490c0,56.85-46.08,102.93-102.93,102.93c-56.85,0-102.93-46.08-102.93-102.93
			c0-56.85,46.08-102.93,102.93-102.93C756.06,387.07,802.14,433.16,802.14,490z"/>
		<path class="earth6" d="M597.27,475.74c6.46,4.96,15.69,8,21.13,12.8c2.48,2.19,2.36,5.77,4.29,7.94c2.29,2.57,8.16,1.27,6.67,5.2
			c-2.59,6.81-3.22,10.06,7.26,26.3c1.57,2.43,7.82,7.62,4.62,22.35c-1.32,6.09,2.67,8.64,4.68,14.33
			c2.85,8.04,0.98,13.65,9.6,10.97c-0.8-6.74,2.93-10.22,3.66-13.83c1.02-5.05,5.43-9.1,7.43-13.94c1.83-4.44-0.68-8,4.34-10.62
			c4.75-2.48,6.09-4.53,7.77-11.54c1.55-6.5,8.66-10.43,2.26-15.32c-4.23-3.23-9.13-6.52-13.88-9.05
			c-9.19-4.9-22.16-16.48-31.34-11.73c-4.72,2.44-5.94,0.91-5.94,0.91c-1.04-1.43-4.02-4.18-3.52-5.99c0.53-1.9,4.1-1.83,4.38-4.06
			c0.13-1.02-1.53-3.66-1.68-5.6c-1.01-13.38,7.93-15.84,11.55-19.78c4.26-4.62,11.48-8.11,16.22-11.2c4.09-2.66,11.9-4.24,11-10.04
			c-0.77-5-4.95-6.27-10.09-5.5c-2.89,0.43-14.17,1.33-13.25-6.4c0.35-2.92,6.19-0.32,7.98-2.25c1.87-2.01,2.34-5.24,4.45-6.85
			c-2.1,2.36-16.54-2.32-23.47,3.16c-2.19,1.73-3.87,1.11-5.6-0.12C611.6,431.5,600.51,452.37,597.27,475.74z"/>
		<path class="earth6" d="M770.36,415.63c-0.41,0.32-0.85,0.67-1.36,1.06c-1.93,1.45-5.23,2.69-7.68,2.27
			c-0.06-1.48-0.14-2.98,0.17-4.43c-1.6-0.05-3.35-0.2-4.95-0.02c-2.25,0.24-4.21,1.56-6.28,2c-5.5,1.18-8.21-1.13-13,3.66
			c-2.73,2.73-5.19,8.33-0.83,9.86c1.2,0.42,5.27,0.95,6.51,0.33c2.19-1.11,0.59-4.14,2.49-5.18c1.02-0.56,3.82,0.97,4.28,1.8
			c1.64,2.94-1.47,3.98-3.45,5.1c-3.69,2.09-7.13,1.9-11.43,1.92c-4.27,0.02-9.39,2.02-10.99,6.38c-0.74,2.03-0.6,3.12-1.56,4.79
			c-0.14,0.24-2,2.98-2.09,3.03c-0.97,0.58-2.46-0.34-3.44,0.11c-6.04,2.76,0.31,8.96,5.23,7.62c2.48-0.68,2.22-2.37,4.54-3.89
			c2.09-1.37,4.68-1.29,7.16-1.29c6.46,0.02,10.89,2.05,16.35,5.12c4.79,2.7,10.17,3.72,14.62,6.53c-0.89,2.38-9.09,1.87-11.58,1.46
			c-4.08-0.66-8.14-3.5-12.13-4.8c-3.52-1.15-8.52-1.89-11.99-0.08c-4.47,2.34-8.37,6.46-12.29,9.55c-4,3.15-8.12,5.03-9.22,9.94
			c-0.55,2.45-1.78,5.34-2.61,7.88c-1,3.03-0.92,3.27,1.89,5.29c1.92,1.38,3.97,2.31,5.52,4.2c1.48,1.82,2.26,5.21,4.54,6.36
			c2.94,1.48,7.97,0.05,11.22,0.35c2.24,0.21,6.37,0.51,7.86,2.49c0.66,0.88,0.31,2.2,0.79,3.07c0.84,1.57,1.59,1.32,2.09,3.29
			c0.72,2.84,0.61,5.39,1.73,8.27c1.1,2.8,3.27,5.83,3.06,8.94c-0.25,3.72-3.15,6.8-2,10.81c0.74,2.59,3.05,2.84,4.55,4.72
			c1.59,1.99,2,5.26,2.98,7.65c2.26,5.46,4.33,1.85,5.93-2.07c2.02-4.95,5.91-9.3,9.03-13.52c3.28-4.43,7.95-7.87,11.36-12.26
			c2.58-3.33,2.66-6.45,3.39-10.49c0.71-3.94,0.59-8.16,2.16-11.79c1.63-3.78,3.61-6.61,4.4-10.68c-1.39,0.37-3.03,0.86-4.5,0.59
			c-2.49-0.45-1.7-0.46-2.5-2.36c-1.25-3-1.4-5.34-3.3-8.32c-1.44-2.27-1.84-4.72-3.02-6.98c-1.24-2.38-3.94-3.9-4.31-6.67
			c2.53-0.54,5.14,3.64,6.12,5.46c1.6,2.95,2.36,3.73,4.87,6.07c1.4,1.31,1.71,6.45,3.26,7.29c1.84,1,6.87-2.05,8.25-3.16
			c3.02-2.43,6.42-4.46,7.42-8.19c0.43-1.62,0.46-2.99,1.18-4.45c0.28-0.58,0.67-1.12,1.08-1.67
			C795.54,447.99,785.03,429.66,770.36,415.63z"/>
		<path class="earth7" d="M699.21,592.93c13.1,0,25.62-2.45,37.14-6.91c-2.86-0.33-5.83-0.3-8.5-0.3c-3.54,0-7.48,0.46-11.01,0
			c-3.64-0.48-7.11-1.95-10.93-2.49c-6.77-0.95-14.34-1.53-20.43,1.66c-3.02,1.59-5.84,3.21-8.77,4.87
			c-0.26,0.15-0.59,0.31-0.96,0.48C683.3,592,691.15,592.93,699.21,592.93z"/>
		<path class="earth7" d="M699.21,387.07c-15.88,0-30.91,3.6-44.33,10.02c1.82,0.73,3.79,1.31,5.15,1.98
			c4.64,2.26,6.67-1.21,10.06-0.67c3.26,0.53,7.64,3.66,11.07,4.82c4.68,1.59,8.5,1.35,13.28,2.12c4.09,0.65,7.48,2.36,11.34,3.65
			c3.31,1.1,9.7,2.01,12.61-1.16c1.19-1.3,1.83-4.18,0.36-5.9c-1.34-1.56-4.07-0.67-4.29-3c5.03-2.42,13.25-0.79,18.5-1.59
			c2.93-0.45,6.1-0.21,9.02-0.98C728.95,390.4,714.47,387.07,699.21,387.07z"/>
		<path class="earth8" d="M649.15,509.5c0-56.85,46.08-102.93,102.93-102.93c2.63,0,5.24,0.1,7.82,0.29
			c-17.02-12.44-37.99-19.79-60.68-19.79c-56.85,0-102.93,46.08-102.93,102.93c0,54.22,41.92,98.64,95.11,102.63
			C665.79,573.91,649.15,543.65,649.15,509.5z"/>
	</g>
</g>
</svg>
