<?xml version="1.0" encoding="utf-8"?>
<!-- Generator: Adobe Illustrator 24.3.0, SVG Export Plug-In . SVG Version: 6.00 Build 0)  -->
<svg version="1.1" id="Layer_1" xmlns="http://www.w3.org/2000/svg" xmlns:xlink="http://www.w3.org/1999/xlink" x="0px" y="0px"
	 viewBox="0 0 1400 980" enable-background="new 0 0 1400 980" xml:space="preserve">
<rect fill="#002140" width="100%" height="100%"/>
<g class="sat">
	<g>
	<g >
		<path class="signal1" fill="#3D53A4" d="M794.573,319.87c-2.713,0.536-5.437-1.076-6.233-3.781c-4.49-15.247-14.224-28.507-27.41-37.34
			c-13.187-8.833-29.155-12.788-44.962-11.137c-2.972,0.31-5.633-1.847-5.943-4.819c-0.31-2.972,1.847-5.637,4.819-5.943
			c18.318-1.913,36.824,2.671,52.108,12.909c15.284,10.237,26.566,25.606,31.769,43.273c0.844,2.866-0.796,5.874-3.662,6.718
			C794.897,319.798,794.734,319.838,794.573,319.87L794.573,319.87z"/>
	</g>
	<g>
		<path class="signal2" fill="#3D53A4" d="M776.224,325.29c-2.713,0.536-5.437-1.076-6.233-3.781c-3.23-10.969-10.231-20.507-19.713-26.859
			c-9.482-6.352-20.967-9.195-32.339-8.008c-2.972,0.31-5.633-1.847-5.943-4.819c-0.31-2.971,1.845-5.633,4.819-5.943
			c13.883-1.45,27.905,2.023,39.485,9.779s20.129,19.402,24.071,32.792c0.844,2.866-0.796,5.874-3.662,6.718
			C776.547,325.218,776.386,325.258,776.224,325.29L776.224,325.29z"/>
	</g>
	<g>
		<path class="signal3" fill="#3D53A4" d="M757.879,330.708c-2.713,0.536-5.437-1.076-6.233-3.781c-1.969-6.688-6.238-12.503-12.018-16.376
			c-5.781-3.872-12.783-5.606-19.718-4.882c-2.972,0.31-5.633-1.847-5.943-4.819c-0.311-2.972,1.849-5.638,4.819-5.943
			c9.445-0.986,18.985,1.377,26.863,6.654c7.878,5.277,13.694,13.2,16.377,22.31c0.844,2.866-0.796,5.874-3.662,6.718
			C758.202,330.636,758.041,330.676,757.879,330.708L757.879,330.708z"/>
	</g>
	</g>
	<g>
		
			<rect x="676.181" y="433.829" transform="matrix(0.6043 -0.7968 0.7968 0.6043 -87.9213 722.1302)" fill="#9FA9AD" width="13.694" height="31.498"/>
	</g>
	<g>
		<g>
			<g>
				
					<rect x="811.196" y="544.133" transform="matrix(0.6043 -0.7968 0.7968 0.6043 -116.9425 874.7109)" fill="none" width="21.911" height="21.912"/>
			</g>
			<g>
				
					<rect x="852.661" y="575.578" transform="matrix(0.6043 -0.7968 0.7968 0.6043 -125.5883 920.1953)" fill="none" width="21.911" height="21.912"/>
			</g>
			<g>
				
					<rect x="769.732" y="512.686" transform="matrix(0.6043 -0.7968 0.7968 0.6043 -108.2937 829.2339)" fill="none" width="21.911" height="21.911"/>
			</g>
			<g>
				
					<rect x="831.929" y="559.856" transform="matrix(0.6043 -0.7968 0.7968 0.6043 -121.2637 897.4578)" fill="none" width="21.911" height="21.911"/>
			</g>
			<g>
				
					<rect x="790.464" y="528.409" transform="matrix(0.6043 -0.7968 0.7968 0.6043 -112.6173 851.974)" fill="none" width="21.911" height="21.912"/>
			</g>
			<g>
				
					<rect x="868.384" y="554.846" transform="matrix(0.6043 -0.7968 0.7968 0.6043 -102.8342 924.556)" fill="none" width="21.912" height="21.912"/>
			</g>
			<g>
				
					<rect x="826.919" y="523.4" transform="matrix(0.6043 -0.7968 0.7968 0.6043 -94.1864 879.0762)" fill="none" width="21.912" height="21.912"/>
			</g>
			<g>
				
					<rect x="806.187" y="507.677" transform="matrix(0.6043 -0.7968 0.7968 0.6043 -89.8673 856.3229)" fill="none" width="21.912" height="21.912"/>
			</g>
			<g>
				
					<rect x="847.652" y="539.124" transform="matrix(0.6043 -0.7968 0.7968 0.6043 -98.5247 901.7783)" fill="none" width="21.911" height="21.911"/>
			</g>
			<g>
				
					<rect x="705.254" y="434.554" transform="matrix(0.6043 -0.7968 0.7968 0.6043 -68.8292 745.5832)" fill="none" width="21.912" height="15.065"/>
			</g>
			<g>
				
					<rect x="749" y="496.963" transform="matrix(0.6043 -0.7968 0.7968 0.6043 -103.9712 806.4904)" fill="none" width="21.911" height="21.912"/>
			</g>
			<g>
				
					<rect x="785.455" y="491.954" transform="matrix(0.6043 -0.7968 0.7968 0.6043 -85.544 833.5827)" fill="none" width="21.911" height="21.911"/>
			</g>
			<g>
				
					<rect x="723.259" y="444.785" transform="matrix(0.6043 -0.7968 0.7968 0.6043 -72.5837 765.3328)" fill="none" width="21.911" height="21.912"/>
			</g>
			<g>
				
					<rect x="743.99" y="460.507" transform="matrix(0.6043 -0.7968 0.7968 0.6043 -76.8928 788.1105)" fill="none" width="21.912" height="21.912"/>
			</g>
			<g>
				
					<rect x="764.723" y="476.23" transform="matrix(0.6043 -0.7968 0.7968 0.6043 -81.216 810.8523)" fill="none" width="21.912" height="21.912"/>
			</g>
			<g>
				
					<rect x="733.277" y="517.696" transform="matrix(0.6043 -0.7968 0.7968 0.6043 -126.7008 802.2013)" fill="none" width="21.911" height="21.912"/>
			</g>
			<g>
				<path fill="none" d="M830.061,612.648l-14.896,19.643l15.062,11.422c0.989,0.752,2.467,1.726,2.567,1.593l14.725-19.416
					L830.061,612.648z"/>
			</g>
			<g>
				
					<rect x="691.813" y="486.249" transform="matrix(0.6043 -0.7968 0.7968 0.6043 -118.0546 756.7154)" fill="none" width="21.911" height="21.911"/>
			</g>
			<g>
				
					<rect x="673.808" y="476.019" transform="matrix(0.6043 -0.7968 0.7968 0.6043 -114.3093 736.9388)" fill="none" width="21.911" height="15.064"/>
			</g>
			<g>
				
					<rect x="798.285" y="602.411" transform="matrix(0.6043 -0.7968 0.7968 0.6043 -167.9378 888.5978)" fill="none" width="24.651" height="21.911"/>
			</g>
			<g>
				<path fill="none" d="M669.66,491.003c-5.51,7.852-5.735,18.892-1.566,26.991l13.568-17.889L669.66,491.003z"/>
			</g>
			<g>
				
					<rect x="754.009" y="533.418" transform="matrix(0.6043 -0.7968 0.7968 0.6043 -131.0249 824.9389)" fill="none" width="21.911" height="21.911"/>
			</g>
			<g>
				<path fill="none" d="M752.047,450.358l16.55-21.823l-11.861-8.995c-1.758-1.334-3.599-2.349-6.091-3.595l-16.057,21.173
					L752.047,450.358z"/>
			</g>
			<g>
				
					<rect x="758.63" y="437.593" transform="matrix(0.6043 -0.7968 0.7968 0.6043 -51.7656 792.8698)" fill="none" width="27.389" height="21.913"/>
			</g>
			<g>
				
					<rect x="712.544" y="501.972" transform="matrix(0.6042 -0.7968 0.7968 0.6042 -122.3714 779.4794)" fill="none" width="21.912" height="21.912"/>
			</g>
			<g>
				<path fill="none" d="M836.603,647.083c10.676,4.053,22.462,1.313,29.394-7.181l-15.204-11.529L836.603,647.083z"/>
			</g>
			<g>
				
					<rect x="715.357" y="539.519" transform="matrix(0.6042 -0.7968 0.7968 0.6042 -150.6346 797.6666)" fill="none" width="24.651" height="21.912"/>
			</g>
			<g>
				
					<rect x="820.826" y="484.762" transform="matrix(0.6043 -0.7968 0.7968 0.6043 -64.7354 861.0944)" fill="none" width="27.39" height="21.912"/>
			</g>
			<g>
				
					<rect x="736.089" y="555.242" transform="matrix(0.6043 -0.7968 0.7968 0.6043 -154.9637 820.3858)" fill="none" width="24.65" height="21.911"/>
			</g>
			<g>
				
					<rect x="800.094" y="469.04" transform="matrix(0.6043 -0.7968 0.7968 0.6043 -60.4079 838.364)" fill="none" width="27.39" height="21.911"/>
			</g>
			<g>
				
					<rect x="779.362" y="453.316" transform="matrix(0.6043 -0.7968 0.7968 0.6043 -56.0849 815.6221)" fill="none" width="27.39" height="21.912"/>
			</g>
			<g>
				
					<rect x="694.624" y="523.796" transform="matrix(0.6043 -0.7968 0.7968 0.6043 -146.3158 774.9085)" fill="none" width="24.651" height="21.912"/>
			</g>
			<g>
				
					<rect x="777.553" y="586.688" transform="matrix(0.6043 -0.7968 0.7968 0.6043 -163.6089 865.8762)" fill="none" width="24.651" height="21.912"/>
			</g>
			<g>
				<path fill="none" d="M684.935,502.588l-14.403,18.991c1.873,2.065,3.347,3.562,5.105,4.894l11.861,8.996l14.895-19.641
					L684.935,502.588z"/>
			</g>
			<g>
				
					<rect x="795.473" y="564.865" transform="matrix(0.6043 -0.7968 0.7968 0.6043 -139.6765 870.4079)" fill="none" width="21.911" height="21.912"/>
			</g>
			<g>
				
					<rect x="689.531" y="455.286" transform="matrix(0.6043 -0.7968 0.7968 0.6043 -91.5701 741.259)" fill="none" width="21.911" height="15.065"/>
			</g>
			<g>
				
					<rect x="836.937" y="596.311" transform="matrix(0.6042 -0.7968 0.7968 0.6042 -148.3105 915.9319)" fill="none" width="21.912" height="21.912"/>
			</g>
			<g>
				<path fill="none" d="M915.722,574.488l0.692-0.914c7.126-9.397,6.607-22.309-0.124-31.564l-15.845,20.893L915.722,574.488z"/>
			</g>
			<g>
				
					<rect x="862.291" y="516.209" transform="matrix(0.6043 -0.7968 0.7968 0.6043 -73.3827 906.5766)" fill="none" width="27.389" height="21.911"/>
			</g>
			<g>
				<path fill="none" d="M731.315,434.636l15.223-20.074c-8.995-1.736-20.032,1.485-26.533,10.057l-0.692,0.913L731.315,434.636z"/>
			</g>
			<g>
				
					<rect x="728.267" y="481.24" transform="matrix(0.6043 -0.7968 0.7968 0.6043 -99.6473 783.7498)" fill="none" width="21.911" height="21.912"/>
			</g>
			<g>
				
					<rect x="707.536" y="465.517" transform="matrix(0.6043 -0.7968 0.7968 0.6043 -95.3227 761.0124)" fill="none" width="21.911" height="21.911"/>
			</g>
			<g>
				<path fill="none" d="M897.172,560.42l16.38-21.599c0.1-0.132-1.237-1.292-2.226-2.042l-15.062-11.424l-16.55,21.823
					L897.172,560.42z"/>
			</g>
			<g>
				
					<rect x="856.579" y="612.577" transform="matrix(0.6042 -0.7968 0.7968 0.6042 -152.3938 937.5175)" fill="none" width="21.911" height="19.172"/>
			</g>
			<g>
				
					<rect x="774.741" y="549.141" transform="matrix(0.6042 -0.7968 0.7968 0.6042 -135.3366 847.7195)" fill="none" width="21.912" height="21.912"/>
			</g>
			<g>
				
					<rect x="841.559" y="500.486" transform="matrix(0.6043 -0.7968 0.7968 0.6043 -69.0549 883.8468)" fill="none" width="27.389" height="21.912"/>
			</g>
			<g>
				
					<rect x="816.206" y="580.588" transform="matrix(0.6042 -0.7968 0.7968 0.6042 -143.9858 893.1941)" fill="none" width="21.911" height="21.912"/>
			</g>
			<g>
				
					<rect x="872.302" y="591.844" transform="matrix(0.6042 -0.7968 0.7968 0.6042 -129.6627 941.8057)" fill="none" width="21.911" height="19.173"/>
			</g>
			<g>
				
					<rect x="888.024" y="571.112" transform="matrix(0.6042 -0.7968 0.7968 0.6042 -106.908 946.1633)" fill="none" width="21.912" height="19.173"/>
			</g>
			<g>
				
					<rect x="756.82" y="570.965" transform="matrix(0.6042 -0.7968 0.7968 0.6042 -159.281 843.1498)" fill="none" width="24.651" height="21.912"/>
			</g>
			<g>
				
					<rect x="712.892" y="445.825" transform="matrix(0.6043 -0.7968 0.7968 0.6043 -70.4208 753.9656)" fill="#9FA9AD" width="21.912" height="4.108"/>
			</g>
			<g>
				
					<rect x="697.17" y="466.558" transform="matrix(0.6043 -0.7968 0.7968 0.6043 -93.1573 749.6535)" fill="#9FA9AD" width="21.911" height="4.108"/>
			</g>
			<g>
				<path fill="#9FA9AD" d="M681.663,500.105l-13.568,17.889c0.744,1.287,1.562,2.475,2.438,3.585l14.403-18.991L681.663,500.105z"
					/>
			</g>
			<g>
				<path fill="#9FA9AD" d="M734.588,437.118l16.057-21.173c-1.305-0.545-2.668-1.014-4.108-1.383l-15.223,20.074L734.588,437.118z"
					/>
			</g>
			<g>
				
					<rect x="681.447" y="487.29" transform="matrix(0.6043 -0.7968 0.7968 0.6043 -115.8969 745.3333)" fill="#9FA9AD" width="21.911" height="4.108"/>
			</g>
			<g>
				
					<rect x="702.178" y="503.012" transform="matrix(0.6042 -0.7968 0.7968 0.6042 -120.2093 768.1082)" fill="#9FA9AD" width="21.911" height="4.109"/>
			</g>
			<g>
				
					<rect x="733.624" y="461.548" transform="matrix(0.6043 -0.7968 0.7968 0.6043 -74.7398 776.7172)" fill="#9FA9AD" width="21.911" height="4.108"/>
			</g>
			<g>
				
					<rect x="748.264" y="438.633" transform="matrix(0.6043 -0.7968 0.7968 0.6043 -49.6037 781.4993)" fill="#9FA9AD" width="27.389" height="4.108"/>
			</g>
			<g>
				
					<rect x="684.258" y="524.835" transform="matrix(0.6043 -0.7968 0.7968 0.6043 -144.1544 763.5351)" fill="#9FA9AD" width="24.651" height="4.108"/>
			</g>
			<g>
				
					<rect x="717.901" y="482.28" transform="matrix(0.6043 -0.7968 0.7968 0.6043 -97.4813 772.3907)" fill="#9FA9AD" width="21.911" height="4.108"/>
			</g>
			<g>
				
					<rect x="738.634" y="498.003" transform="matrix(0.6043 -0.7968 0.7968 0.6043 -101.8081 795.1232)" fill="#9FA9AD" width="21.911" height="4.108"/>
			</g>
			<g>
				
					<rect x="704.99" y="540.559" transform="matrix(0.6042 -0.7968 0.7968 0.6042 -148.4731 786.2959)" fill="#9FA9AD" width="24.651" height="4.109"/>
			</g>
			<g>
				
					<rect x="722.91" y="518.736" transform="matrix(0.6042 -0.7968 0.7968 0.6042 -124.5337 790.8483)" fill="#9FA9AD" width="21.912" height="4.108"/>
			</g>
			<g>
				
					<rect x="768.996" y="454.357" transform="matrix(0.6043 -0.7968 0.7968 0.6043 -53.9218 804.2543)" fill="#9FA9AD" width="27.389" height="4.108"/>
			</g>
			<g>
				
					<rect x="754.356" y="477.271" transform="matrix(0.6043 -0.7968 0.7968 0.6043 -79.0542 799.4814)" fill="#9FA9AD" width="21.912" height="4.108"/>
			</g>
			<g>
				
					<rect x="725.723" y="556.282" transform="matrix(0.6043 -0.7968 0.7968 0.6043 -152.8094 808.9902)" fill="#9FA9AD" width="24.65" height="4.108"/>
			</g>
			<g>
				
					<rect x="743.643" y="534.459" transform="matrix(0.6043 -0.7968 0.7968 0.6043 -128.8685 813.5529)" fill="#9FA9AD" width="21.911" height="4.108"/>
			</g>
			<g>
				
					<rect x="789.729" y="470.08" transform="matrix(0.6043 -0.7968 0.7968 0.6043 -58.2504 826.9842)" fill="#9FA9AD" width="27.39" height="4.108"/>
			</g>
			<g>
				
					<rect x="759.366" y="513.727" transform="matrix(0.6043 -0.7968 0.7968 0.6043 -106.1322 817.864)" fill="#9FA9AD" width="21.911" height="4.108"/>
			</g>
			<g>
				
					<rect x="775.089" y="492.994" transform="matrix(0.6043 -0.7968 0.7968 0.6043 -83.3929 822.1844)" fill="#9FA9AD" width="21.912" height="4.108"/>
			</g>
			<g>
				
					<rect x="795.821" y="508.717" transform="matrix(0.6043 -0.7968 0.7968 0.6043 -87.7149 844.9277)" fill="#9FA9AD" width="21.911" height="4.108"/>
			</g>
			<g>
				
					<rect x="746.454" y="572.005" transform="matrix(0.6043 -0.7968 0.7968 0.6043 -157.1326 831.7302)" fill="#9FA9AD" width="24.651" height="4.108"/>
			</g>
			<g>
				
					<rect x="764.375" y="550.181" transform="matrix(0.6042 -0.7968 0.7968 0.6042 -133.1796 836.3316)" fill="#9FA9AD" width="21.911" height="4.108"/>
			</g>
			<g>
				
					<rect x="810.46" y="485.802" transform="matrix(0.6043 -0.7968 0.7968 0.6043 -62.5735 849.7239)" fill="#9FA9AD" width="27.39" height="4.108"/>
			</g>
			<g>
				
					<rect x="780.098" y="529.449" transform="matrix(0.6043 -0.7968 0.7968 0.6043 -110.4553 840.6034)" fill="#9FA9AD" width="21.911" height="4.108"/>
			</g>
			<g>
				
					<rect x="785.107" y="565.906" transform="matrix(0.6042 -0.7968 0.7968 0.6042 -137.503 859.0762)" fill="#9FA9AD" width="21.912" height="4.108"/>
			</g>
			<g>
				
					<rect x="816.553" y="524.44" transform="matrix(0.6043 -0.7968 0.7968 0.6043 -92.0254 867.703)" fill="#9FA9AD" width="21.912" height="4.108"/>
			</g>
			<g>
				
					<rect x="767.186" y="587.729" transform="matrix(0.6043 -0.7968 0.7968 0.6043 -161.4461 854.5092)" fill="#9FA9AD" width="24.651" height="4.108"/>
			</g>
			<g>
				
					<rect x="800.83" y="545.173" transform="matrix(0.6043 -0.7968 0.7968 0.6043 -114.7807 863.3405)" fill="#9FA9AD" width="21.911" height="4.108"/>
			</g>
			<g>
				
					<rect x="831.192" y="501.526" transform="matrix(0.6043 -0.7968 0.7968 0.6043 -66.8983 872.4628)" fill="#9FA9AD" width="27.389" height="4.108"/>
			</g>
			<g>
				
					<rect x="787.919" y="603.452" transform="matrix(0.6043 -0.7968 0.7968 0.6043 -165.7756 877.2296)" fill="#9FA9AD" width="24.65" height="4.109"/>
			</g>
			<g>
				
					<rect x="805.84" y="581.628" transform="matrix(0.6043 -0.7968 0.7968 0.6043 -141.8379 881.779)" fill="#9FA9AD" width="21.911" height="4.109"/>
			</g>
			<g>
				
					<rect x="851.925" y="517.249" transform="matrix(0.6043 -0.7968 0.7968 0.6043 -71.2167 895.2177)" fill="#9FA9AD" width="27.389" height="4.109"/>
			</g>
			<g>
				
					<rect x="837.285" y="540.163" transform="matrix(0.6043 -0.7968 0.7968 0.6043 -96.3628 890.4084)" fill="#9FA9AD" width="21.912" height="4.109"/>
			</g>
			<g>
				
					<rect x="821.562" y="560.896" transform="matrix(0.6043 -0.7968 0.7968 0.6043 -119.1033 886.0848)" fill="#9FA9AD" width="21.911" height="4.109"/>
			</g>
			<g>
				
					<rect x="826.571" y="597.351" transform="matrix(0.6042 -0.7968 0.7968 0.6042 -146.1457 904.5701)" fill="#9FA9AD" width="21.912" height="4.108"/>
			</g>
			<g>
				
					<rect x="858.018" y="555.886" transform="matrix(0.6043 -0.7968 0.7968 0.6043 -100.6873 913.1451)" fill="#9FA9AD" width="21.911" height="4.108"/>
			</g>
			<g>
				
					<rect x="872.657" y="532.972" transform="matrix(0.6043 -0.7968 0.7968 0.6043 -75.5394 917.9587)" fill="#9FA9AD" width="27.389" height="4.108"/>
			</g>
			<g>
				
					<rect x="808.651" y="619.174" transform="matrix(0.6043 -0.7968 0.7968 0.6043 -170.0903 900.0005)" fill="#9FA9AD" width="24.652" height="4.108"/>
			</g>
			<g>
				
					<rect x="842.295" y="576.618" transform="matrix(0.6043 -0.7968 0.7968 0.6043 -123.4201 908.8429)" fill="#9FA9AD" width="21.911" height="4.108"/>
			</g>
			<g>
				<path fill="#9FA9AD" d="M900.445,562.903l15.845-20.893c-0.845-1.154-1.766-2.204-2.738-3.189l-16.38,21.599L900.445,562.903z"
					/>
			</g>
			<g>
				
					<rect x="878.749" y="571.61" transform="matrix(0.6042 -0.7968 0.7968 0.6042 -104.9911 935.9413)" fill="#9FA9AD" width="21.913" height="4.109"/>
			</g>
			<g>
				
					<rect x="847.304" y="613.075" transform="matrix(0.6043 -0.7968 0.7968 0.6043 -150.4859 927.2606)" fill="#9FA9AD" width="21.911" height="4.108"/>
			</g>
			<g>
				<path fill="#9FA9AD" d="M847.52,625.89l-14.725,19.416c1.21,0.672,2.469,1.276,3.808,1.777l14.19-18.71L847.52,625.89z"/>
			</g>
			<g>
				
					<rect x="863.027" y="592.342" transform="matrix(0.6043 -0.7968 0.7968 0.6043 -127.7505 931.5663)" fill="#9FA9AD" width="21.911" height="4.109"/>
			</g>
			<g>
				<polygon fill="#9FA9AD" points="897.682,560.807 880.223,547.566 876.949,545.083 859.49,531.843 856.217,529.359 
					838.758,516.119 835.485,513.637 818.026,500.397 814.753,497.914 797.294,484.672 794.02,482.19 776.561,468.95 
					773.288,466.468 755.83,453.228 752.556,450.744 735.098,437.503 731.824,435.021 719.311,425.532 716.829,428.805 
					729.341,438.295 732.615,440.777 750.073,454.017 753.347,456.5 770.805,469.74 774.079,472.224 791.538,485.464 
					794.811,487.946 812.27,501.186 815.544,503.67 833.002,516.911 836.275,519.393 853.734,532.633 857.007,535.115 
					874.466,548.356 877.74,550.839 895.199,564.081 898.472,566.562 913.239,577.762 915.722,574.488 900.955,563.289 				"/>
			</g>
			<g>
				<polygon fill="#9FA9AD" points="881.958,581.539 864.499,568.298 861.226,565.815 843.767,552.575 840.493,550.091 
					823.035,536.852 819.761,534.369 802.303,521.129 799.029,518.646 781.571,505.404 778.297,502.922 760.838,489.682 
					757.565,487.2 740.106,473.96 736.833,471.477 719.374,458.235 716.1,455.753 703.588,446.264 701.106,449.538 713.618,459.027 
					716.892,461.509 734.351,474.75 737.623,477.234 755.083,490.474 758.355,492.956 775.815,506.196 779.088,508.678 
					796.547,521.919 799.82,524.403 817.279,537.643 820.552,540.125 838.011,553.365 841.284,555.849 858.743,569.089 
					862.017,571.572 879.476,584.812 882.749,587.295 897.517,598.494 899.998,595.22 885.231,584.021 				"/>
			</g>
			<g>
				<polygon fill="#9FA9AD" points="866.235,602.271 848.776,589.03 845.502,586.547 828.044,573.307 824.771,570.823 
					807.311,557.583 804.039,555.101 786.58,541.861 783.307,539.377 765.848,526.136 762.574,523.654 745.115,510.414 
					741.842,507.932 724.383,494.692 721.11,492.208 703.651,478.967 700.377,476.485 687.865,466.996 685.382,470.27 
					697.894,479.759 701.168,482.241 718.627,495.482 721.9,497.966 739.359,511.206 742.632,513.688 760.091,526.928 
					763.365,529.41 780.824,542.651 784.097,545.135 801.556,558.375 804.829,560.857 822.288,574.097 825.561,576.581 
					843.019,589.821 846.293,592.305 863.752,605.544 867.025,608.026 881.793,619.226 884.276,615.952 869.508,604.753 				"/>
			</g>
			<g>
				<path fill="#9FA9AD" d="M850.512,623.002l-17.458-13.239l-3.274-2.482l-17.459-13.24l-3.273-2.483l-17.459-13.241l-3.273-2.482
					l-17.458-13.24l-3.273-2.483l-17.458-13.241l-3.274-2.482l-17.459-13.242l-3.273-2.482l-17.459-13.24l-3.273-2.482
					L687.928,499.7l-3.274-2.482l-12.512-9.489l-1.521,2.003c-0.185,0.244-0.144,0.171-0.962,1.27l12.511,9.487l3.274,2.482
					l17.459,13.241l3.273,2.483l17.459,13.24l3.273,2.482l17.459,13.24l3.274,2.482l17.458,13.242l3.273,2.483l17.459,13.24
					l3.273,2.483l17.459,13.24l3.273,2.483l17.459,13.24l3.274,2.483l17.458,13.24l3.273,2.482l14.694,11.143
					c0.836-1.084,0.851-0.969,1.036-1.214l1.521-2.005l-14.767-11.199L850.512,623.002z"/>
			</g>
		</g>
		<g>
			<path fill="#9FA9AD" d="M828.327,647.429l-154.59-117.24c-13.033-9.884-15.596-28.532-5.711-41.565l49.382-65.114
				c9.885-13.034,28.532-15.595,41.565-5.71l154.59,117.24c13.034,9.884,15.596,28.531,5.711,41.565l-49.383,65.114
				C860.007,654.752,841.361,657.312,828.327,647.429z M754.835,423.254c-10.025-7.604-24.368-5.633-31.971,4.392l-49.383,65.114
				c-7.604,10.028-5.632,24.368,4.393,31.971l154.59,117.24c10.026,7.604,24.368,5.633,31.971-4.392l49.383-65.114
				c7.604-10.028,5.632-24.37-4.394-31.972L754.835,423.254z"/>
		</g>
	</g>
	<g>
		
			<rect x="621.359" y="390.534" transform="matrix(0.6043 -0.7968 0.7968 0.6043 -75.1192 661.3162)" fill="#9FA9AD" width="13.695" height="31.498"/>
	</g>
	<g>
		<g>
			<g>
				
					<rect x="478.126" y="289.816" transform="matrix(0.6043 -0.7968 0.7968 0.6043 -46.1022 508.7218)" fill="none" width="21.912" height="21.912"/>
			</g>
			<g>
				
					<rect x="436.662" y="258.37" transform="matrix(0.6043 -0.7968 0.7968 0.6043 -37.4555 463.2392)" fill="none" width="21.912" height="21.912"/>
			</g>
			<g>
				
					<rect x="519.591" y="321.263" transform="matrix(0.6043 -0.7968 0.7968 0.6043 -54.7575 554.182)" fill="none" width="21.912" height="21.911"/>
			</g>
			<g>
				
					<rect x="457.394" y="274.093" transform="matrix(0.6043 -0.7968 0.7968 0.6043 -41.7866 485.9607)" fill="none" width="21.912" height="21.912"/>
			</g>
			<g>
				
					<rect x="498.859" y="305.54" transform="matrix(0.6043 -0.7968 0.7968 0.6043 -50.435 531.4399)" fill="none" width="21.911" height="21.911"/>
			</g>
			<g>
				
					<rect x="420.939" y="279.102" transform="matrix(0.6043 -0.7968 0.7968 0.6043 -60.1962 458.9171)" fill="none" width="21.912" height="21.912"/>
			</g>
			<g>
				
					<rect x="462.403" y="310.549" transform="matrix(0.6043 -0.7968 0.7968 0.6043 -68.843 504.4001)" fill="none" width="21.912" height="21.912"/>
			</g>
			<g>
				
					<rect x="483.136" y="326.272" transform="matrix(0.6043 -0.7968 0.7968 0.6043 -73.1744 527.1184)" fill="none" width="21.911" height="21.912"/>
			</g>
			<g>
				
					<rect x="441.671" y="294.825" transform="matrix(0.6043 -0.7968 0.7968 0.6043 -64.5242 481.6446)" fill="none" width="21.912" height="21.912"/>
			</g>
			<g>
				
					<rect x="584.068" y="406.243" transform="matrix(0.6043 -0.7968 0.7968 0.6043 -94.2143 637.8594)" fill="none" width="21.912" height="15.064"/>
			</g>
			<g>
				
					<rect x="540.322" y="336.986" transform="matrix(0.6043 -0.7968 0.7968 0.6043 -59.0719 576.9476)" fill="none" width="21.912" height="21.912"/>
			</g>
			<g>
				
					<rect x="503.868" y="341.994" transform="matrix(0.6043 -0.7968 0.7968 0.6043 -77.4984 549.8562)" fill="none" width="21.912" height="21.912"/>
			</g>
			<g>
				
					<rect x="566.064" y="389.164" transform="matrix(0.6043 -0.7968 0.7968 0.6043 -90.4688 618.0799)" fill="none" width="21.912" height="21.912"/>
			</g>
			<g>
				
					<rect x="545.333" y="373.441" transform="matrix(0.6043 -0.7968 0.7968 0.6043 -86.143 595.3469)" fill="none" width="21.911" height="21.911"/>
			</g>
			<g>
				
					<rect x="524.599" y="357.717" transform="matrix(0.6043 -0.7968 0.7968 0.6043 -81.8131 572.6242)" fill="none" width="21.912" height="21.912"/>
			</g>
			<g>
				
					<rect x="556.046" y="316.253" transform="matrix(0.6043 -0.7968 0.7968 0.6043 -36.3411 581.2438)" fill="none" width="21.912" height="21.911"/>
			</g>
			<g>
				<path fill="none" d="M481.173,243.212l14.895-19.641l-14.517-11.009c-0.989-0.75-2.599-2.685-2.699-2.553l-15.139,19.961
					L481.173,243.212z"/>
			</g>
			<g>
				
					<rect x="597.511" y="347.699" transform="matrix(0.6043 -0.7968 0.7968 0.6043 -44.9878 626.7273)" fill="none" width="21.911" height="21.912"/>
			</g>
			<g>
				
					<rect x="615.515" y="364.777" transform="matrix(0.6043 -0.7968 0.7968 0.6043 -48.7379 646.4875)" fill="none" width="21.912" height="15.065"/>
			</g>
			<g>
				
					<rect x="488.298" y="231.538" transform="matrix(0.6043 -0.7968 0.7968 0.6043 4.8989 494.8506)" fill="none" width="24.65" height="21.911"/>
			</g>
			<g>
				<path fill="none" d="M642.12,365.272c5.51-7.853,5.604-19.852,1.434-27.951l-13.981,18.436L642.12,365.272z"/>
			</g>
			<g>
				
					<rect x="535.314" y="300.531" transform="matrix(0.6043 -0.7968 0.7968 0.6043 -32.0168 558.506)" fill="none" width="21.911" height="21.911"/>
			</g>
			<g>
				<path fill="none" d="M559.188,405.502l-16.55,21.823l12.407,9.41c1.758,1.332,3.465,1.39,5.958,2.635l15.644-20.628
					L559.188,405.502z"/>
			</g>
			<g>
				
					<rect x="525.216" y="396.356" transform="matrix(0.6043 -0.7968 0.7968 0.6043 -111.2711 590.5914)" fill="none" width="27.389" height="21.911"/>
			</g>
			<g>
				
					<rect x="576.779" y="331.977" transform="matrix(0.6043 -0.7968 0.7968 0.6043 -40.6536 604.0133)" fill="none" width="21.912" height="21.912"/>
			</g>
			<g>
				<path fill="none" d="M475.045,208.231c-10.677-4.052-22.33-0.353-29.263,8.141l14.658,11.116L475.045,208.231z"/>
			</g>
			<g>
				
					<rect x="571.227" y="294.43" transform="matrix(0.6043 -0.7968 0.7968 0.6043 -12.3976 585.8094)" fill="none" width="24.65" height="21.912"/>
			</g>
			<g>
				
					<rect x="463.019" y="349.187" transform="matrix(0.6043 -0.7968 0.7968 0.6043 -98.3008 522.3677)" fill="none" width="27.389" height="21.911"/>
			</g>
			<g>
				
					<rect x="550.495" y="278.707" transform="matrix(0.6043 -0.7968 0.7968 0.6043 -8.0748 563.0673)" fill="none" width="24.65" height="21.911"/>
			</g>
			<g>
				
					<rect x="483.751" y="364.909" transform="matrix(0.6043 -0.7968 0.7968 0.6043 -102.6235 545.1089)" fill="none" width="27.389" height="21.912"/>
			</g>
			<g>
				
					<rect x="504.483" y="380.631" transform="matrix(0.6043 -0.7968 0.7968 0.6043 -106.9491 567.8416)" fill="none" width="27.389" height="21.912"/>
			</g>
			<g>
				
					<rect x="591.96" y="310.154" transform="matrix(0.6043 -0.7968 0.7968 0.6043 -16.7271 608.5396)" fill="none" width="24.65" height="21.911"/>
			</g>
			<g>
				
					<rect x="509.031" y="247.261" transform="matrix(0.6043 -0.7968 0.7968 0.6043 0.5725 517.5854)" fill="none" width="24.65" height="21.911"/>
			</g>
			<g>
				<path fill="none" d="M626.298,353.272l14.817-19.537c-1.872-2.063-3.215-2.603-4.973-3.935l-12.407-9.41l-14.896,19.641
					L626.298,353.272z"/>
			</g>
			<g>
				
					<rect x="493.85" y="269.084" transform="matrix(0.6043 -0.7968 0.7968 0.6043 -23.3691 513.0248)" fill="none" width="21.912" height="21.911"/>
			</g>
			<g>
				
					<rect x="599.791" y="385.511" transform="matrix(0.6042 -0.7968 0.7968 0.6042 -71.4658 642.2017)" fill="none" width="21.912" height="15.064"/>
			</g>
			<g>
				
					<rect x="452.385" y="237.637" transform="matrix(0.6043 -0.7968 0.7968 0.6043 -14.7133 467.5627)" fill="none" width="21.912" height="21.912"/>
			</g>
			<g>
				<path fill="none" d="M395.512,281.373l-0.279,0.368c-7.125,9.396-6.607,22.309,0.125,31.566l15.431-20.348L395.512,281.373z"/>
			</g>
			<g>
				
					<rect x="421.554" y="317.74" transform="matrix(0.6043 -0.7968 0.7968 0.6043 -89.6544 476.8808)" fill="none" width="27.389" height="21.911"/>
			</g>
			<g>
				<path fill="none" d="M579.919,421.226l-14.809,19.527c8.995,1.737,20.032-1.484,26.533-10.057l0.279-0.367L579.919,421.226z"/>
			</g>
			<g>
				
					<rect x="561.055" y="352.709" transform="matrix(0.6043 -0.7968 0.7968 0.6043 -63.4029 599.6697)" fill="none" width="21.911" height="21.912"/>
			</g>
			<g>
				
					<rect x="581.787" y="368.432" transform="matrix(0.6043 -0.7968 0.7968 0.6043 -67.7208 622.4245)" fill="none" width="21.912" height="21.912"/>
			</g>
			<g>
				<path fill="none" d="M414.062,295.44l-15.966,21.053c-0.101,0.132,1.369,2.252,2.358,3.002l14.517,11.009l16.55-21.823
					L414.062,295.44z"/>
			</g>
			<g>
				
					<rect x="432.744" y="224.111" transform="matrix(0.6042 -0.7968 0.7968 0.6042 -10.6074 446.04)" fill="none" width="21.912" height="19.173"/>
			</g>
			<g>
				
					<rect x="514.582" y="284.807" transform="matrix(0.6043 -0.7968 0.7968 0.6043 -27.684 535.7872)" fill="none" width="21.912" height="21.911"/>
			</g>
			<g>
				
					<rect x="442.286" y="333.463" transform="matrix(0.6042 -0.7968 0.7968 0.6042 -93.9749 499.6316)" fill="none" width="27.389" height="21.912"/>
			</g>
			<g>
				
					<rect x="473.118" y="253.361" transform="matrix(0.6043 -0.7968 0.7968 0.6043 -19.0468 490.2828)" fill="none" width="21.911" height="21.911"/>
			</g>
			<g>
				
					<rect x="417.021" y="244.844" transform="matrix(0.6043 -0.7968 0.7968 0.6043 -33.3624 441.6879)" fill="none" width="21.912" height="19.174"/>
			</g>
			<g>
				
					<rect x="401.298" y="265.576" transform="matrix(0.6043 -0.7968 0.7968 0.6043 -56.1037 437.3628)" fill="none" width="21.912" height="19.174"/>
			</g>
			<g>
				
					<rect x="529.763" y="262.985" transform="matrix(0.6043 -0.7968 0.7968 0.6043 -3.7555 540.3193)" fill="none" width="24.651" height="21.911"/>
			</g>
			<g>
				
					<rect x="576.43" y="405.927" transform="matrix(0.6043 -0.7968 0.7968 0.6043 -92.6224 629.4764)" fill="#9FA9AD" width="21.912" height="4.108"/>
			</g>
			<g>
				
					<rect x="592.153" y="385.195" transform="matrix(0.6043 -0.7968 0.7968 0.6043 -69.8806 633.8016)" fill="#9FA9AD" width="21.912" height="4.109"/>
			</g>
			<g>
				<path fill="#9FA9AD" d="M629.572,355.756l13.981-18.436c-0.744-1.287-1.561-2.474-2.438-3.585l-14.817,19.537L629.572,355.756z"
					/>
			</g>
			<g>
				<path fill="#9FA9AD" d="M576.646,418.742l-15.644,20.628c1.306,0.545,2.669,1.014,4.108,1.383l14.809-19.527L576.646,418.742z"
					/>
			</g>
			<g>
				
					<rect x="607.877" y="364.463" transform="matrix(0.6043 -0.7968 0.7968 0.6043 -47.1496 638.0974)" fill="#9FA9AD" width="21.912" height="4.108"/>
			</g>
			<g>
				
					<rect x="587.145" y="348.74" transform="matrix(0.6043 -0.7968 0.7968 0.6043 -42.8263 615.3574)" fill="#9FA9AD" width="21.911" height="4.108"/>
			</g>
			<g>
				
					<rect x="555.699" y="390.204" transform="matrix(0.6043 -0.7968 0.7968 0.6043 -88.3031 606.7216)" fill="#9FA9AD" width="21.911" height="4.108"/>
			</g>
			<g>
				
					<rect x="535.581" y="413.119" transform="matrix(0.6043 -0.7968 0.7968 0.6043 -113.4347 601.9537)" fill="#9FA9AD" width="27.389" height="4.108"/>
			</g>
			<g>
				
					<rect x="602.326" y="326.917" transform="matrix(0.6043 -0.7968 0.7968 0.6043 -18.8849 619.9177)" fill="#9FA9AD" width="24.65" height="4.108"/>
			</g>
			<g>
				
					<rect x="571.421" y="369.472" transform="matrix(0.6043 -0.7968 0.7968 0.6043 -65.5668 611.0333)" fill="#9FA9AD" width="21.911" height="4.108"/>
			</g>
			<g>
				
					<rect x="550.689" y="353.749" transform="matrix(0.6042 -0.7968 0.7968 0.6042 -61.2297 588.33)" fill="#9FA9AD" width="21.912" height="4.109"/>
			</g>
			<g>
				
					<rect x="581.594" y="311.193" transform="matrix(0.6043 -0.7968 0.7968 0.6043 -14.5599 597.1804)" fill="#9FA9AD" width="24.65" height="4.109"/>
			</g>
			<g>
				
					<rect x="566.412" y="333.016" transform="matrix(0.6043 -0.7968 0.7968 0.6043 -38.4925 592.6398)" fill="#9FA9AD" width="21.912" height="4.109"/>
			</g>
			<g>
				
					<rect x="514.849" y="397.395" transform="matrix(0.6042 -0.7968 0.7968 0.6042 -109.1074 579.2274)" fill="#9FA9AD" width="27.389" height="4.109"/>
			</g>
			<g>
				
					<rect x="534.966" y="374.481" transform="matrix(0.6043 -0.7968 0.7968 0.6043 -83.9757 583.9937)" fill="#9FA9AD" width="21.912" height="4.109"/>
			</g>
			<g>
				
					<rect x="560.861" y="295.47" transform="matrix(0.6043 -0.7968 0.7968 0.6043 -10.2362 574.4376)" fill="#9FA9AD" width="24.65" height="4.108"/>
			</g>
			<g>
				
					<rect x="545.68" y="317.293" transform="matrix(0.6043 -0.7968 0.7968 0.6043 -34.1784 569.876)" fill="#9FA9AD" width="21.911" height="4.108"/>
			</g>
			<g>
				
					<rect x="494.117" y="381.672" transform="matrix(0.6043 -0.7968 0.7968 0.6043 -104.7848 556.4795)" fill="#9FA9AD" width="27.389" height="4.108"/>
			</g>
			<g>
				
					<rect x="529.956" y="338.026" transform="matrix(0.6043 -0.7968 0.7968 0.6043 -56.9101 565.5767)" fill="#9FA9AD" width="21.912" height="4.108"/>
			</g>
			<g>
				
					<rect x="514.233" y="358.758" transform="matrix(0.6043 -0.7968 0.7968 0.6043 -79.6512 561.2535)" fill="#9FA9AD" width="21.912" height="4.108"/>
			</g>
			<g>
				
					<rect x="493.502" y="343.035" transform="matrix(0.6043 -0.7968 0.7968 0.6043 -75.3338 538.4948)" fill="#9FA9AD" width="21.911" height="4.108"/>
			</g>
			<g>
				
					<rect x="540.129" y="279.748" transform="matrix(0.6043 -0.7968 0.7968 0.6043 -5.9135 551.697)" fill="#9FA9AD" width="24.65" height="4.108"/>
			</g>
			<g>
				
					<rect x="524.948" y="301.57" transform="matrix(0.6043 -0.7968 0.7968 0.6043 -29.8449 547.1595)" fill="#9FA9AD" width="21.912" height="4.109"/>
			</g>
			<g>
				
					<rect x="473.385" y="365.95" transform="matrix(0.6043 -0.7968 0.7968 0.6043 -100.465 533.7284)" fill="#9FA9AD" width="27.389" height="4.108"/>
			</g>
			<g>
				
					<rect x="509.225" y="322.303" transform="matrix(0.6043 -0.7968 0.7968 0.6043 -52.5965 542.8098)" fill="#9FA9AD" width="21.911" height="4.108"/>
			</g>
			<g>
				
					<rect x="504.215" y="285.847" transform="matrix(0.6043 -0.7968 0.7968 0.6043 -25.5224 524.4161)" fill="#9FA9AD" width="21.912" height="4.109"/>
			</g>
			<g>
				
					<rect x="472.769" y="327.312" transform="matrix(0.6043 -0.7968 0.7968 0.6043 -71.0052 515.7709)" fill="#9FA9AD" width="21.912" height="4.109"/>
			</g>
			<g>
				
					<rect x="519.397" y="264.024" transform="matrix(0.6043 -0.7968 0.7968 0.6043 -1.5868 528.9626)" fill="#9FA9AD" width="24.65" height="4.109"/>
			</g>
			<g>
				
					<rect x="488.492" y="306.58" transform="matrix(0.6043 -0.7968 0.7968 0.6043 -48.2638 520.0944)" fill="#9FA9AD" width="21.912" height="4.109"/>
			</g>
			<g>
				
					<rect x="452.652" y="350.226" transform="matrix(0.6043 -0.7968 0.7968 0.6043 -96.139 510.9966)" fill="#9FA9AD" width="27.389" height="4.109"/>
			</g>
			<g>
				
					<rect x="498.665" y="248.3" transform="matrix(0.6043 -0.7968 0.7968 0.6043 2.7345 506.215)" fill="#9FA9AD" width="24.65" height="4.108"/>
			</g>
			<g>
				
					<rect x="483.484" y="270.124" transform="matrix(0.6043 -0.7968 0.7968 0.6043 -21.2082 501.6529)" fill="#9FA9AD" width="21.911" height="4.108"/>
			</g>
			<g>
				
					<rect x="431.92" y="334.502" transform="matrix(0.6043 -0.7968 0.7968 0.6043 -91.8147 488.2547)" fill="#9FA9AD" width="27.389" height="4.109"/>
			</g>
			<g>
				
					<rect x="452.037" y="311.588" transform="matrix(0.6043 -0.7968 0.7968 0.6043 -66.6822 493.0259)" fill="#9FA9AD" width="21.912" height="4.108"/>
			</g>
			<g>
				
					<rect x="467.76" y="290.857" transform="matrix(0.6042 -0.7968 0.7968 0.6042 -43.9361 497.3621)" fill="#9FA9AD" width="21.912" height="4.108"/>
			</g>
			<g>
				
					<rect x="462.751" y="254.401" transform="matrix(0.6043 -0.7968 0.7968 0.6043 -16.8755 478.9335)" fill="#9FA9AD" width="21.912" height="4.108"/>
			</g>
			<g>
				
					<rect x="431.305" y="295.866" transform="matrix(0.6043 -0.7968 0.7968 0.6043 -62.3649 470.267)" fill="#9FA9AD" width="21.911" height="4.108"/>
			</g>
			<g>
				
					<rect x="411.188" y="318.78" transform="matrix(0.6043 -0.7968 0.7968 0.6043 -87.4922 465.5133)" fill="#9FA9AD" width="27.389" height="4.108"/>
			</g>
			<g>
				
					<rect x="477.932" y="232.578" transform="matrix(0.6043 -0.7968 0.7968 0.6043 7.0532 483.4666)" fill="#9FA9AD" width="24.65" height="4.108"/>
			</g>
			<g>
				
					<rect x="447.028" y="275.134" transform="matrix(0.6043 -0.7968 0.7968 0.6043 -39.6249 474.5905)" fill="#9FA9AD" width="21.911" height="4.108"/>
			</g>
			<g>
				<path fill="#9FA9AD" d="M410.789,292.958l-15.431,20.348c0.844,1.153,1.766,2.204,2.738,3.187l15.966-21.053L410.789,292.958z"
					/>
			</g>
			<g>
				
					<rect x="410.573" y="280.143" transform="matrix(0.6043 -0.7968 0.7968 0.6043 -58.035 447.5452)" fill="#9FA9AD" width="21.912" height="4.108"/>
			</g>
			<g>
				
					<rect x="442.019" y="238.677" transform="matrix(0.6043 -0.7968 0.7968 0.6043 -12.5507 456.1932)" fill="#9FA9AD" width="21.912" height="4.108"/>
			</g>
			<g>
				<path fill="#9FA9AD" d="M463.714,229.97l15.139-19.961c-1.21-0.67-2.47-1.276-3.808-1.777l-14.605,19.257L463.714,229.97z"/>
			</g>
			<g>
				
					<rect x="426.296" y="259.411" transform="matrix(0.6043 -0.7968 0.7968 0.6043 -35.294 451.8682)" fill="#9FA9AD" width="21.912" height="4.108"/>
			</g>
			<g>
				<polygon fill="#9FA9AD" points="414.098,295.468 431.557,308.708 434.831,311.19 452.289,324.432 455.563,326.914 
					473.022,340.155 476.295,342.638 493.754,355.877 497.027,358.36 514.486,371.601 517.76,374.083 535.218,387.325 
					538.492,389.807 555.951,403.047 559.224,405.529 576.683,418.771 579.956,421.254 591.923,430.329 594.405,427.056 
					582.438,417.98 579.165,415.498 561.706,402.256 558.434,399.774 540.975,386.533 537.701,384.051 520.243,370.81 
					516.969,368.329 499.51,355.087 496.237,352.603 478.778,339.364 475.505,336.881 458.046,323.642 454.772,321.159 
					437.314,307.918 434.04,305.435 416.581,292.194 413.308,289.712 397.995,278.099 395.512,281.373 410.825,292.986 				"/>
			</g>
			<g>
				<polygon fill="#9FA9AD" points="429.822,274.736 447.281,287.977 450.555,290.458 468.013,303.7 471.287,306.182 
					488.745,319.423 492.019,321.906 509.478,335.146 512.75,337.628 530.209,350.869 533.483,353.351 550.941,366.593 
					554.215,369.075 571.674,382.315 574.947,384.797 592.406,398.039 595.679,400.522 607.646,409.597 610.128,406.323 
					598.162,397.248 594.888,394.766 577.43,381.524 574.156,379.043 556.697,365.801 553.423,363.319 535.965,350.079 
					532.691,347.597 515.233,334.355 511.96,331.872 494.501,318.632 491.228,316.149 473.769,302.91 470.495,300.427 
					453.037,287.186 449.763,284.703 432.304,271.462 429.031,268.98 413.718,257.367 411.236,260.64 426.549,272.254 				"/>
			</g>
			<g>
				<polygon fill="#9FA9AD" points="445.545,254.004 463.003,267.244 466.277,269.727 483.735,282.968 487.009,285.45 
					504.468,298.691 507.741,301.173 525.2,314.414 528.474,316.896 545.932,330.137 549.206,332.619 566.664,345.861 
					569.938,348.343 587.397,361.583 590.67,364.065 608.129,377.307 611.402,379.79 623.369,388.865 625.852,385.591 
					613.885,376.516 610.612,374.033 593.153,360.791 589.88,358.309 572.421,345.069 569.147,342.587 551.689,329.345 
					548.415,326.863 530.956,313.622 527.683,311.14 510.224,297.9 506.951,295.418 489.492,282.176 486.218,279.694 
					468.76,266.453 465.486,263.97 448.028,250.73 444.754,248.248 429.441,236.634 426.958,239.908 442.271,251.522 				"/>
			</g>
			<g>
				<path fill="#9FA9AD" d="M461.268,233.273l17.459,13.24l3.274,2.482l17.458,13.24l3.274,2.482l17.459,13.241l3.273,2.483
					l17.459,13.24l3.273,2.482l17.459,13.24l3.274,2.482l17.458,13.242l3.274,2.483l17.459,13.24l3.273,2.482l17.459,13.24
					l3.273,2.483l11.967,9.075l1.934-2.55c0.185-0.243,0.275,0.788,1.093-0.31l-12.512-9.487l-3.273-2.484l-17.458-13.241
					l-3.273-2.482l-17.458-13.24l-3.274-2.482l-17.458-13.242l-3.274-2.482l-17.458-13.242l-3.273-2.482l-17.459-13.24l-3.273-2.482
					l-17.458-13.241l-3.274-2.482l-17.458-13.241l-3.273-2.482l-17.459-13.24l-3.273-2.482l-14.694-11.144
					c-0.835,1.084-0.982,0.009-1.166,0.254l-1.934,2.55l15.313,11.612L461.268,233.273z"/>
			</g>
		</g>
		<g>
			<path fill="#9FA9AD" d="M552.261,438.062l-154.59-117.24c-13.034-9.885-15.596-28.53-5.711-41.564l49.383-65.114
				c9.885-13.034,28.531-15.597,41.565-5.712l154.59,117.24c13.034,9.886,15.597,28.531,5.711,41.565l-49.383,65.114
				C583.942,445.386,565.295,447.948,552.261,438.062z M478.77,213.888c-10.026-7.604-24.368-5.633-31.972,4.392l-49.382,65.114
				c-7.603,10.028-5.632,24.37,4.393,31.973l154.59,117.24c10.025,7.603,24.368,5.633,31.971-4.393l49.382-65.114
				c7.604-10.026,5.633-24.369-4.393-31.972L478.77,213.888z"/>
		</g>
	</g>
	<g>
		<g>
			
				<rect x="580.001" y="500.46" transform="matrix(0.6043 -0.7968 0.7968 0.6043 -170.0892 674.8897)" fill="#CECFD1" width="28.758" height="16.433"/>
		</g>
		<g>
			<polygon fill="#CECFD1" points="627.111,508.578 584.556,476.303 689.425,328.959 740.71,367.854 			"/>
		</g>
		<g>
			<path fill="#CECFD1" d="M702.364,427.48c-2.92,3.852-8.407,4.605-12.257,1.685l-44.982-34.114
				c-3.85-2.921-4.604-8.407-1.684-12.259l39.08-51.529c2.92-3.849,8.407-4.603,12.256-1.683l44.982,34.114
				c3.85,2.919,4.605,8.407,1.685,12.256L702.364,427.48z"/>
		</g>
		<g>
			<path fill="#CECFD1" d="M653.453,482.91c-2.539,3.349-7.313,4.004-10.662,1.464l-39.157-29.696
				c-3.349-2.54-4.005-7.313-1.465-10.662l18.11-23.88c2.54-3.35,7.315-4.007,10.664-1.466l39.157,29.695
				c3.349,2.541,4.004,7.315,1.464,10.664L653.453,482.91z"/>
		</g>
		<g>
			<path fill="#9FA9AD" d="M632.2,505.564c-7.007,9.24-23.092,8.841-35.927-0.892c-12.834-9.733-17.556-25.116-10.549-34.354"/>
		</g>
		<g>
			<path fill="#CECFD1" d="M510.183,520.736c23.914-31.531,56.152-30.749,81.865-11.247c25.712,19.499,35.162,50.332,11.248,81.864"
				/>
		</g>
		<g>
			<path fill="#9FA9AD" d="M602.883,591.896c-4.951,6.527-29.809-3.986-55.521-23.486c-25.712-19.501-42.543-40.602-37.592-47.13
				c4.951-6.528,29.81,3.987,55.522,23.487C591.004,564.268,607.834,585.369,602.883,591.896z"/>
		</g>
		<g>
			
				<rect x="553.775" y="542.759" transform="matrix(0.6043 -0.7968 0.7968 0.6043 -211.9828 666.9092)" fill="#CECFD1" width="23.282" height="8.216"/>
		</g>
		<g>
			<path fill="#CECFD1" d="M564.986,563.299c-3.199,4.218-9.212,5.044-13.431,1.846c-4.219-3.199-5.045-9.212-1.846-13.431
				c3.2-4.22,9.212-5.045,13.431-1.846C567.359,553.068,568.185,559.081,564.986,563.299z"/>
		</g>
	</g>
</g>

</svg>
