<?xml version="1.0" encoding="utf-8"?>
<!-- Generator: Adobe Illustrator 24.3.0, SVG Export Plug-In . SVG Version: 6.00 Build 0)  -->
<svg version="1.1" id="Layer_1" xmlns="http://www.w3.org/2000/svg" xmlns:xlink="http://www.w3.org/1999/xlink" x="0px" y="0px"
	 viewBox="0 0 1400 980" style="enable-background:new 0 0 1400 980;" xml:space="preserve">
<style type="text/css">
	.stars0{fill:#0084C8;}
	.stars1{fill:#A19700;}
	.stars2{fill:#FFD800;}
	.stars3{fill:#FFED80;}
</style>
<rect class="stars0" width="100%" height="100%"/>
<g>
	<g>
		<g>
			<path class="stars1" d="M897.73,626.17c-0.33,0-0.67-0.03-1-0.1L566.22,557.5c-1.21-0.25-2.27-0.94-2.99-1.94l-87.79-121.63
				l-109.8,126.26c-1.79,2.05-4.9,2.27-6.95,0.48c-2.05-1.78-2.27-4.89-0.49-6.95l113.87-130.95c0.99-1.13,2.45-1.74,3.94-1.69
				c1.51,0.07,2.89,0.82,3.77,2.04l90.3,125.11l323.06,67.03l8.53-143.87l-99.97-87.3c-1.39-1.22-1.99-3.11-1.54-4.9l25.22-101.39
				c0.44-1.75,1.79-3.13,3.54-3.58l121.74-31.56c1.29-0.34,2.65-0.13,3.79,0.56l96.39,58.56c2.33,1.41,3.07,4.44,1.65,6.76
				c-1.41,2.33-4.44,3.07-6.76,1.65l-94.62-57.48l-116.89,30.3l-23.79,95.63l99.52,86.91c1.15,1,1.77,2.48,1.68,4l-9.01,151.97
				c-0.08,1.43-0.79,2.75-1.92,3.62C899.86,625.82,898.81,626.17,897.73,626.17z"/>
		</g>
		<polygon id="s1" class="stars2" points="362.87,517.72 376.04,538.06 399.45,544.3 384.18,563.12 385.48,587.32 362.87,578.61 340.25,587.32 
			341.55,563.12 326.28,544.3 349.69,538.06 		"/>
		<polygon id="s2" class="stars2" points="907.68,430.04 920.86,450.38 944.27,456.63 929,475.44 930.3,499.64 907.68,490.93 885.07,499.64 
			886.37,475.44 871.09,456.63 894.51,450.38 		"/>
		<polygon id="s3" class="stars2" points="476.38,401.7 484.54,414.3 499.05,418.17 489.59,429.82 490.39,444.82 476.38,439.42 462.37,444.82 
			463.17,429.82 453.71,418.17 468.22,414.3 		"/>
		<polygon id="s4" class="stars2" points="805.54,356.08 813.7,368.68 828.21,372.55 818.74,384.21 819.55,399.2 805.54,393.8 791.53,399.2 
			792.33,384.21 782.87,372.55 797.37,368.68 		"/>
		<polygon id="s5" class="stars2" points="952.49,223.13 960.66,235.73 975.16,239.6 965.7,251.26 966.5,266.25 952.49,260.86 938.48,266.25 
			939.29,251.26 929.83,239.6 944.33,235.73 		"/>
		<polygon id="s6" class="stars2" points="1048.88,281.7 1057.05,294.3 1071.56,298.17 1062.09,309.82 1062.9,324.81 1048.88,319.42 
			1034.88,324.81 1035.68,309.82 1026.22,298.17 1040.72,294.3 		"/>
		<polygon id="s7" class="stars2" points="568.4,503.49 584.92,528.98 614.27,536.81 595.13,560.4 596.75,590.73 568.4,579.82 540.05,590.73 
			541.68,560.4 522.53,536.81 551.89,528.98 		"/>
		<polygon id="s8" class="stars2" points="898.4,593.57 907.69,607.92 924.2,612.33 913.43,625.59 914.35,642.66 898.4,636.52 882.45,642.66 
			883.36,625.59 872.59,612.33 889.1,607.92 		"/>
		<polygon id="s9" class="stars2" points="830.84,251.32 840.13,265.67 856.64,270.07 845.87,283.34 846.78,300.41 830.84,294.27 
			814.89,300.41 815.8,283.34 805.03,270.07 821.54,265.67 		"/>
		<path  class="stars3" d="M376.45,556.96c0,8.02-6.5,14.53-14.53,14.53c-8.02,0-14.53-6.5-14.53-14.53c0-8.02,6.5-14.52,14.53-14.52
			C369.95,542.43,376.45,548.94,376.45,556.96z"/>
		<path class="stars3" d="M921.27,469.28c0,8.02-6.5,14.53-14.52,14.53c-8.02,0-14.53-6.5-14.53-14.53c0-8.02,6.5-14.52,14.53-14.52
			C914.76,454.76,921.27,461.26,921.27,469.28z"/>
		<path class="stars3" d="M484.8,426.01c0,4.97-4.03,9-9,9c-4.97,0-9-4.03-9-9c0-4.97,4.03-9,9-9
			C480.77,417.01,484.8,421.04,484.8,426.01z"/>
		<path class="stars3" d="M813.95,380.39c0,4.97-4.03,9-9,9c-4.97,0-9-4.03-9-9c0-4.97,4.03-9,9-9
			C809.92,371.39,813.95,375.42,813.95,380.39z"/>
		<path class="stars3" d="M960.91,247.44c0,4.97-4.03,9-9,9c-4.97,0-9-4.03-9-9c0-4.97,4.03-9,9-9
			C956.88,238.44,960.91,242.47,960.91,247.44z"/>
		<path class="stars3" d="M1057.3,306c0,4.97-4.03,9-9,9c-4.97,0-9-4.03-9-9c0-4.97,4.03-9,9-9
			C1053.27,297.01,1057.3,301.03,1057.3,306z"/>
		<path class="stars3" d="M585.43,552.67c0,10.06-8.15,18.21-18.21,18.21c-10.06,0-18.21-8.15-18.21-18.21
			c0-10.06,8.15-18.21,18.21-18.21C577.28,534.46,585.43,542.62,585.43,552.67z"/>
		<path class="stars3" d="M907.98,621.25c0,5.66-4.59,10.25-10.25,10.25c-5.66,0-10.24-4.59-10.24-10.25c0-5.66,4.59-10.24,10.24-10.24
			C903.39,611,907.98,615.59,907.98,621.25z"/>
		<path class="stars3" d="M840.42,279c0,5.66-4.59,10.25-10.25,10.25c-5.66,0-10.24-4.59-10.24-10.25c0-5.66,4.59-10.24,10.24-10.24
			C835.83,268.75,840.42,273.34,840.42,279z"/>
	</g>
</g>
</svg>
