<?xml version="1.0" encoding="utf-8"?>
<!-- Generator: Adobe Illustrator 24.3.0, SVG Export Plug-In . SVG Version: 6.00 Build 0)  -->
<svg version="1.1" id="Layer_1" xmlns="http://www.w3.org/2000/svg" xmlns:xlink="http://www.w3.org/1999/xlink" x="0px" y="0px"
	 viewBox="0 0 1400 980" style="enable-background:new 0 0 1400 980;" xml:space="preserve">
<style type="text/css">
	.s0{fill:#005D8A;}
	.s1{fill:#E8962C;}
	.s2{fill:#FFE76D;}
	.s3{fill:#FFD800;}
	.s4{fill:#FFE242;}
</style>
<rect class="s0" width="1400" height="980"/>
<g>
	<g>
		
		<path id="orange" class="s1" d="M902.92,570.75c2.83-9.04,10.13-15.52,19.32-18.43c-7.26-6.53-11.37-15.53-10.42-24.98
			c0.96-9.45,6.79-17.37,15.2-22.19c-8.41-4.83-14.24-12.74-15.2-22.19c-0.96-9.45,3.16-18.45,10.42-24.99
			c-9.19-2.91-16.48-9.39-19.32-18.43c-2.83-9.04-0.61-18.73,5.18-26.68c-9.57-0.86-18.01-5.63-22.59-13.86
			c-4.59-8.23-4.35-18.19-0.29-27.22c-9.54,1.22-18.74-1.63-24.88-8.69c-6.14-7.06-7.91-16.85-5.74-26.56
			c-9.08,3.25-18.66,2.45-26.08-3.14c-7.42-5.59-11.12-14.78-10.94-24.74c-8.23,5.14-17.76,6.42-26.14,2.55
			c-8.38-3.87-13.84-12.06-15.66-21.84c-7.02,6.8-16.09,10.1-25.06,8.13c-8.97-1.98-15.95-8.81-19.7-17.99
			c-5.51,8.16-13.71,13.35-22.88,13.35c-9.17,0-17.37-5.19-22.88-13.35c-3.75,9.17-10.73,16.01-19.7,17.99
			c-8.97,1.98-18.03-1.33-25.06-8.13c-1.83,9.78-7.29,17.98-15.66,21.84c-8.38,3.87-17.91,2.59-26.14-2.55
			c0.17,9.96-3.52,19.16-10.94,24.74c-7.42,5.59-16.99,6.39-26.08,3.14c2.17,9.71,0.4,19.5-5.74,26.56
			c-6.14,7.06-15.34,9.91-24.88,8.69c4.07,9.03,4.3,18.98-0.29,27.22c-4.58,8.23-13.02,13-22.59,13.87
			c5.79,7.95,8.01,17.64,5.18,26.68c-2.83,9.04-10.13,15.52-19.32,18.43c7.26,6.53,11.38,15.53,10.42,24.98
			c-0.96,9.45-6.79,17.37-15.2,22.19c8.41,4.82,14.24,12.74,15.2,22.19c0.96,9.45-3.16,18.45-10.42,24.99
			c9.19,2.91,16.49,9.39,19.32,18.43c2.83,9.04,0.61,18.73-5.18,26.68c9.57,0.86,18.01,5.63,22.59,13.87
			c4.59,8.23,4.35,18.19,0.29,27.22c9.54-1.22,18.75,1.63,24.88,8.69c6.14,7.06,7.91,16.85,5.74,26.56
			c9.09-3.25,18.66-2.45,26.08,3.14c7.42,5.59,11.11,14.78,10.94,24.74c8.24-5.14,17.76-6.42,26.14-2.55
			c8.38,3.87,13.84,12.06,15.66,21.85c7.03-6.8,16.09-10.11,25.06-8.13c8.97,1.97,15.95,8.81,19.7,17.99
			c5.51-8.17,13.71-13.35,22.88-13.35c9.17,0,17.37,5.18,22.88,13.35c3.75-9.18,10.73-16.02,19.7-17.99
			c8.97-1.98,18.03,1.33,25.06,8.13c1.83-9.78,7.29-17.98,15.66-21.84c8.38-3.87,17.91-2.59,26.14,2.55
			c-0.17-9.96,3.52-19.15,10.94-24.74c7.42-5.59,17-6.39,26.08-3.14c-2.17-9.71-0.4-19.5,5.74-26.56
			c6.14-7.06,15.34-9.91,24.88-8.69c-4.07-9.03-4.3-18.98,0.29-27.21c4.58-8.23,13.02-13,22.59-13.87
			C902.31,589.48,900.09,579.79,902.92,570.75z"/>
		
		<ellipse id="yellow" class="s2" cx="708.14" cy="505.14" rx="183.97" ry="190.71"/>
		
		<ellipse class="s3" cx="708.14" cy="505.14" rx="158" ry="163.79"/>
		<path class="s4" d="M597.1,542.28c0-90.46,70.74-163.79,158-163.79c25.38,0,49.36,6.21,70.61,17.24
			c-28.92-33.38-70.88-54.38-117.57-54.38c-87.26,0-158,73.33-158,163.79c0,64.15,35.58,119.67,87.39,146.55
			C612.39,622.69,597.1,584.34,597.1,542.28z"/>
	</g>
</g>
</svg>
