<?xml version="1.0" encoding="utf-8"?>
<!-- Generator: Adobe Illustrator 24.3.0, SVG Export Plug-In . SVG Version: 6.00 Build 0)  -->
<svg version="1.1" xmlns="http://www.w3.org/2000/svg" xmlns:xlink="http://www.w3.org/1999/xlink" x="0px" y="0px"
	 viewBox="0 0 1400 980" style="enable-background:new 0 0 1400 980;" xml:space="preserve">
<style type="text/css">
	.es0{fill:#57BA5E;}
	.es1{fill:#001B44;}
	.es2{fill:#F9F0DF;}
	.es3{fill:#E72828;}
	.es4{fill:#1D98D5;}
	.es5{fill:#FCE699;}
	.es6{fill:#EB6229;}
	.es7{fill:#2DAEE4;}
	.es8{fill:#FFF1C5;}
	.es9{fill:#292C6A;}
	.es10{fill:#413B89;}
	.es11{fill:#4C4C9A;}
	.es12{fill:#67C0EC;}
	.es13{fill:#94D9F7;}
	.es14{fill:#49B8D4;}
	.es15{fill:#77BB5B;}
	.es16{fill:#FFFFFF;}
	.es17{fill:#EB6276;}
	.es18{fill:#4FBAAF;}
	.es19{fill:#FBD278;}
</style>
<g id="_x31_">
	<rect x="0.93" y="-0.51" class="es0" width="1400.33" height="980.51"/>
	<path class="es1" d="M321.68,171.19"/>
	<g>
		<path class="star" d="M1021.7,306.74c4.7-0.25,5.54,1.97,1.89,4.93l-14.01,11.35c-3.65,2.96-5.26,8.97-3.58,13.36l6.47,16.83
			c1.69,4.39-0.16,5.89-4.1,3.33l-15.14-9.82c-3.95-2.56-10.16-2.22-13.81,0.73l-14.01,11.35c-3.66,2.96-5.65,1.67-4.44-2.88
			l4.66-17.42c1.21-4.54-1.02-10.36-4.96-12.92l-15.13-9.81c-3.95-2.56-3.33-4.86,1.36-5.11l18.02-0.95
			c4.7-0.25,9.53-4.17,10.75-8.71l4.67-17.43c1.22-4.54,3.59-4.66,5.28-0.27l6.47,16.83c1.69,4.39,6.92,7.78,11.6,7.53
			L1021.7,306.74z"/>
		<path class="star" d="M761.83,327.36c3.55-3.08,5.59-1.86,4.52,2.73l-4.06,17.56c-1.06,4.58,1.36,10.32,5.4,12.74l15.45,9.3
			c4.03,2.42,3.5,4.74-1.18,5.15l-17.98,1.57c-4.68,0.4-9.38,4.49-10.44,9.07l-4.07,17.57c-1.05,4.58-3.43,4.79-5.26,0.46
			l-7.04-16.6c-1.84-4.33-7.17-7.54-11.86-7.12l-17.97,1.56c-4.68,0.41-5.62-1.78-2.06-4.86l13.62-11.83
			c3.55-3.08,4.95-9.15,3.12-13.47l-7.04-16.62c-1.83-4.33-0.04-5.89,4-3.47l15.45,9.3c4.03,2.42,10.23,1.88,13.79-1.2
			L761.83,327.36z"/>
		<path class="star" d="M1030.92,457.6c3.59-2.3,6.23-0.71,5.88,3.54l-0.9,10.85c-0.35,4.25,2.06,9.93,5.35,12.63l8.43,6.89
			c3.3,2.71,2.59,5.71-1.54,6.68l-10.61,2.5c-4.14,0.97-8.81,5.03-10.35,8.99l-3.96,10.15c-1.55,3.97-4.62,4.24-6.83,0.6l-5.65-9.32
			c-2.21-3.64-7.5-6.83-11.75-7.07l-10.88-0.63c-4.25-0.25-5.46-3.08-2.68-6.31l7.12-8.25c2.78-3.23,4.17-9.24,3.09-13.37
			l-2.76-10.53c-1.09-4.12,1.24-6.15,5.18-4.5l10.04,4.21c3.93,1.65,10.08,1.11,13.66-1.19L1030.92,457.6z"/>
		<path class="star" d="M520.08,167.74c4.41-1.62,5.88,0.25,3.27,4.16l-10.04,14.99c-2.62,3.9-2.38,10.13,0.53,13.82l11.15,14.18
			c2.91,3.69,1.59,5.67-2.94,4.39l-17.36-4.91c-4.53-1.28-10.37,0.87-12.99,4.78l-10.04,14.99c-2.62,3.91-4.9,3.26-5.08-1.44
			l-0.69-18.03c-0.18-4.7-4.03-9.59-8.55-10.87l-17.35-4.92c-4.52-1.28-4.62-3.65-0.21-5.28l16.93-6.23
			c4.41-1.62,7.88-6.8,7.7-11.49l-0.68-18.03c-0.18-4.7,2.05-5.52,4.96-1.82l11.15,14.17c2.91,3.7,8.9,5.39,13.31,3.77
			L520.08,167.74z"/>
		<polygon class="star" points="422.72,296.29 424.09,282.8 408.51,271.02 427,271.17 432.15,258.62 438.97,270.34 452.49,271.36 
			443.46,281.46 446.66,294.64 434.26,289.17 		"/>
		<path class="star" d="M396.47,370.02c3.92-4.66,8.2-3.6,9.51,2.34l3.33,15.19c1.31,5.94,6.99,12.68,12.62,14.96l14.41,5.86
			c5.63,2.29,5.95,6.69,0.71,9.76L423.64,426c-5.25,3.07-9.89,10.56-10.33,16.62l-1.12,15.51c-0.43,6.07-4.51,7.73-9.07,3.69
			L391.5,451.5c-4.55-4.03-13.11-6.14-19.01-4.69l-15.1,3.73c-5.91,1.46-8.74-1.91-6.31-7.48l6.22-14.26
			c2.44-5.57,1.8-14.36-1.41-19.53l-8.22-13.2c-3.21-5.17-0.88-8.91,5.17-8.32l15.48,1.52c6.05,0.59,14.21-2.73,18.13-7.38
			L396.47,370.02z"/>
		<path class="star" d="M573.44,309.16c2.75-3.26,5.74-2.52,6.66,1.64l2.34,10.64c0.92,4.17,4.9,8.88,8.85,10.48l10.09,4.1
			c3.95,1.6,4.17,4.68,0.5,6.83l-9.4,5.52c-3.67,2.15-6.93,7.4-7.23,11.65l-0.79,10.87c-0.3,4.25-3.16,5.41-6.35,2.58l-8.15-7.23
			c-3.19-2.83-9.18-4.3-13.32-3.28l-10.57,2.61c-4.14,1.02-6.13-1.34-4.43-5.24l4.37-9.98c1.71-3.9,1.25-10.06-0.99-13.68
			l-5.76-9.25c-2.25-3.62-0.62-6.24,3.62-5.83l10.84,1.06c4.24,0.41,9.96-1.92,12.71-5.17L573.44,309.16z"/>
	</g>
	<g class="rocket">
		<path class="es3" d="M914.3,784.3l22.1-38.2c5.2-9,14.4-15.1,24.8-16.5l107.2-14c4.1-0.5,7,4,4.8,7.5l-3.1,4.9l-29.4,11.2
			l-54.8,45.2h-71.6V784.3z"/>
		<polygon class="es4" points="1036.9,820.1 1085.9,820.1 1085.9,765 1036.9,783.5 		"/>
		<path class="es3" d="M774.2,820.1h82.3c0,0,3.9-18.5-17.9-49.4C807.3,777.8,782.5,792.6,774.2,820.1z"/>
		<path class="es5" d="M856.4,820.1h180.5v-36.6c0,0-119.7-30.8-198.4-12.9C860.3,801.6,856.4,820.1,856.4,820.1z"/>
		<path class="es6" d="M914.3,855.9l22.1,38.2c5.2,9,14.4,15.1,24.8,16.5l107.2,14c4.1,0.5,7-4,4.8-7.5l-3.1-4.9l-29.4-11.2
			l-54.8-45.2h-71.6V855.9z"/>
		<polygon class="es7" points="1036.9,820.1 1085.9,820.1 1085.9,875.1 1036.9,856.6 		"/>
		<path class="es6" d="M774.2,820.1h82.3c0,0,3.9,18.5-17.9,49.4C807.3,862.4,782.5,847.5,774.2,820.1z"/>
		<path class="es8" d="M856.4,820.1h180.5v36.6c0,0-119.7,30.8-198.4,12.9C860.3,838.5,856.4,820.1,856.4,820.1z"/>
		<g>
			<circle class="es9" cx="914.1" cy="820.1" r="30.4"/>
			<circle class="es10" cx="914.1" cy="820.1" r="27.7"/>
			<g>
				<g>
					<path class="es11" d="M909.1,842.5c0,0.3-0.1,0.6-0.2,1c-0.5,1.5-2.2,2.3-3.7,1.8c-10.7-3.8-17.8-13.9-17.8-25.2
						c0-6.6,2.4-13,6.9-17.9c1.1-1.2,2.9-1.3,4.1-0.2c1.2,1.1,1.3,2.9,0.2,4.1c-3.5,3.8-5.4,8.8-5.4,14c0,8.8,5.6,16.7,13.9,19.7
						C908.4,840.1,909.1,841.3,909.1,842.5z"/>
				</g>
			</g>
			<circle class="es9" cx="914.1" cy="820.1" r="19.8"/>
			<circle class="es12" cx="914.1" cy="820.1" r="17.5"/>
			<circle class="es13" cx="906.8" cy="823.7" r="9.1"/>
		</g>
	</g>
	<g>
		<path class="es14" d="M149.6,705.64c-3.08,5.39-8.87,9.04-15.52,9.04c-9.58,0-17.38-7.54-17.83-17.01
			c-9.02,1.94-17.54,7.07-25.28,14.35c3.74,3.28,6.12,8.08,6.12,13.44c0,9.87-8,17.87-17.87,17.87c-3.51,0-6.77-1.02-9.53-2.77
			c-11.79,21.68-18.97,47.71-18.97,69.07c0,0.01,0,0.02,0,0.03c2.41-1.22,5.13-1.92,8.02-1.92c9.87,0,17.87,8,17.87,17.87
			c0,9.87-8,17.87-17.87,17.87c-1.17,0-2.32-0.12-3.43-0.34c5.17,19.22,15.28,39.21,33.23,50.77c0.74-9.19,8.42-16.41,17.8-16.41
			c9.87,0,17.87,8,17.87,17.87c0,3.04-0.76,5.9-2.1,8.4c0.68,0.02,1.37,0.03,2.07,0.03c10.8,0,20.11-1.93,28.11-5.31
			c-0.21-1.1-0.33-2.24-0.33-3.41c0-9.87,8-17.87,17.87-17.87c2.7,0,5.26,0.62,7.55,1.69c15.37-19.9,20.25-47.9,20.25-69.28
			C197.62,773.99,177.63,725.35,149.6,705.64z"/>
		<circle class="es15" cx="159.5" cy="755.16" r="17.87"/>
		
			<ellipse transform="matrix(0.9874 -0.158 0.158 0.9874 -122.2416 25.816)" class="es16" cx="101.26" cy="781.81" rx="17.87" ry="17.87"/>
		<circle class="es17" cx="173.8" cy="820.54" r="17.87"/>
		<path class="es17" d="M97.09,725.46c0-5.37-2.38-10.17-6.12-13.44c-8.06,7.59-15.27,17.5-21.28,28.54
			c2.76,1.74,6.02,2.77,9.53,2.77C89.09,743.33,97.09,735.33,97.09,725.46z"/>
		<path class="es16" d="M106.34,877.5c-9.38,0-17.05,7.23-17.8,16.41c9.07,5.84,20.13,9.52,33.56,9.86c1.34-2.51,2.1-5.36,2.1-8.4
			C124.21,885.5,116.21,877.5,106.34,877.5z"/>
		<path class="es15" d="M177.37,878.91c-2.3-1.07-4.85-1.69-7.55-1.69c-9.87,0-17.87,8-17.87,17.87c0,1.17,0.12,2.3,0.33,3.41
			C162.74,894.08,170.97,887.2,177.37,878.91z"/>
		<path class="es16" d="M134.08,714.67c6.65,0,12.44-3.64,15.52-9.04c-7.92-5.57-16.49-8.83-25.43-8.83c-2.68,0-5.32,0.3-7.92,0.86
			C116.7,707.13,124.5,714.67,134.08,714.67z"/>
		<path class="es15" d="M76.61,825.61c0-9.87-8-17.87-17.87-17.87c-2.89,0-5.61,0.7-8.02,1.92c0,9.25,1.29,21.21,4.59,33.49
			c1.11,0.22,2.26,0.34,3.43,0.34C68.61,843.48,76.61,835.48,76.61,825.61z"/>
		<circle class="es17" cx="112.2" cy="840.8" r="17.87"/>
	</g>
	<g>
		<path class="es18" d="M151.47,139.44c0-8.99,7.29-16.29,16.29-16.29c1.89,0,3.7,0.34,5.38,0.93
			c-1.91-11.85-5.49-24.26-10.42-36.06c-16.52,9.44-37.99,15.15-61.46,15.15c-23.47,0-44.94-5.71-61.46-15.15
			c-4.93,11.79-8.51,24.21-10.42,36.06c1.69-0.59,3.49-0.93,5.38-0.93c8.99,0,16.29,7.29,16.29,16.29c0,8.99-7.29,16.29-16.29,16.29
			c-2.24,0-4.38-0.45-6.32-1.27c1.11,10.99,3.78,23.75,8.76,35.91c16.84-10.36,39.34-16.68,64.05-16.68
			c25.11,0,47.92,6.53,64.85,17.18c4.69-11.92,7.15-24.7,8.11-36.47c-1.98,0.86-4.17,1.34-6.47,1.34
			C158.76,155.73,151.47,148.44,151.47,139.44z"/>
		<path class="es19" d="M162.72,88.03c-13.12-31.39-35.75-58.35-61.46-58.35c-25.71,0-48.34,26.97-61.46,58.35
			c16.52,9.44,37.99,15.15,61.46,15.15C124.73,103.18,146.2,97.47,162.72,88.03z"/>
		<path class="es19" d="M101.26,236.68c35.65,0,55.08-21.01,64.85-45.82c-16.92-10.65-39.74-17.18-64.85-17.18
			c-24.72,0-47.21,6.33-64.05,16.68C47.22,214.77,66.55,236.68,101.26,236.68z"/>
		<circle class="es17" cx="79.1" cy="139.44" r="16.29"/>
		<circle class="es17" cx="123.43" cy="139.44" r="16.29"/>
		<path class="es17" d="M51.06,139.44c0-8.99-7.29-16.29-16.29-16.29c-1.89,0-3.7,0.34-5.38,0.93c-1.02,6.36-1.57,12.56-1.57,18.41
			c0,3.61,0.2,7.65,0.64,11.96c1.94,0.82,4.08,1.27,6.32,1.27C43.76,155.73,51.06,148.44,51.06,139.44z"/>
		<path class="es17" d="M173.14,124.09c-1.69-0.59-3.49-0.93-5.38-0.93c-8.99,0-16.29,7.29-16.29,16.29
			c0,8.99,7.29,16.29,16.29,16.29c2.3,0,4.48-0.48,6.47-1.34c0.34-4.11,0.49-8.11,0.49-11.89
			C174.71,136.65,174.16,130.45,173.14,124.09z"/>
	</g>
	<g>
		<path class="es18" d="M1350.62,119.15c0-7.49,5.26-13.73,12.29-15.27c-3.51-11.35-8.32-22.6-14.16-32.75
			c-1.73,0.66-3.6,1.03-5.56,1.03c-8.64,0-15.64-7-15.64-15.64c0-3.54,1.19-6.79,3.17-9.41c-10.35-10.27-22.19-16.72-34.77-16.72
			c-6.9,0-13.57,1.94-19.9,5.39c2.6,2.79,4.21,6.53,4.21,10.65c0,8.64-7,15.64-15.64,15.64c-4.72,0-8.95-2.1-11.81-5.41
			c-9.4,12.15-17.12,27.33-22.41,42.95c1.84-0.76,3.84-1.18,5.95-1.18c8.64,0,15.64,7,15.64,15.64s-7,15.64-15.64,15.64
			c-4.9,0-9.26-2.25-12.13-5.77c-1.12,6.67-1.71,13.17-1.71,19.28c0,31.39,14.69,94.18,73.45,94.18c25.28,0,42.39-10.57,53.7-25.56
			c-5.78-2.3-9.88-7.93-9.88-14.53c0-8.64,7-15.64,15.64-15.64c2.95,0,5.71,0.83,8.06,2.26c4.31-13.89,5.93-28.4,5.93-40.71
			c0-2.82-0.13-5.72-0.37-8.68c-0.9,0.16-1.83,0.26-2.78,0.26C1357.62,134.79,1350.62,127.78,1350.62,119.15z"/>
		
			<ellipse transform="matrix(0.3864 -0.9223 0.9223 0.3864 709.4907 1252.3762)" class="es19" cx="1295.95" cy="92.98" rx="15.64" ry="15.64"/>
		
			<ellipse transform="matrix(0.9883 -0.1525 0.1525 0.9883 -7.4953 201.7638)" class="es19" cx="1311.59" cy="149.75" rx="15.64" ry="15.64"/>
		<circle class="es19" cx="1248.98" cy="171.46" r="15.64"/>
		<path class="es19" d="M1264.62,62.06c8.64,0,15.64-7,15.64-15.64c0-4.12-1.6-7.85-4.21-10.65c-8.47,4.61-16.31,11.92-23.25,20.87
			C1255.67,59.96,1259.89,62.06,1264.62,62.06z"/>
		<path class="es19" d="M1343.19,72.16c1.96,0,3.83-0.38,5.56-1.03c-5.25-9.13-11.32-17.37-18.02-24.02
			c-1.98,2.62-3.17,5.88-3.17,9.41C1327.55,65.16,1334.55,72.16,1343.19,72.16z"/>
		<path class="es19" d="M1236.34,129.7c8.64,0,15.64-7,15.64-15.64s-7-15.64-15.64-15.64c-2.11,0-4.12,0.42-5.95,1.18
			c-2.75,8.11-4.84,16.34-6.18,24.32C1227.08,127.45,1231.45,129.7,1236.34,129.7z"/>
		<path class="es19" d="M1350.62,119.15c0,8.64,7,15.64,15.64,15.64c0.95,0,1.88-0.1,2.78-0.26c-0.81-9.8-2.92-20.27-6.13-30.65
			C1355.88,105.41,1350.62,111.66,1350.62,119.15z"/>
		<path class="es19" d="M1339.78,197.3c0,6.6,4.09,12.23,9.88,14.53c6.26-8.3,10.73-17.94,13.82-27.91
			c-2.36-1.42-5.11-2.26-8.06-2.26C1346.78,181.66,1339.78,188.66,1339.78,197.3z"/>
		
			<ellipse transform="matrix(0.9729 -0.2313 0.2313 0.9729 -15.7952 303.9241)" class="es19" cx="1288.26" cy="219.32" rx="15.64" ry="15.64"/>
	</g>
</g>

</svg>
