<?xml version="1.0" encoding="utf-8"?>
<!-- Generator: Adobe Illustrator 24.3.0, SVG Export Plug-In . SVG Version: 6.00 Build 0)  -->
<svg version="1.1" id="Layer_1" xmlns="http://www.w3.org/2000/svg" xmlns:xlink="http://www.w3.org/1999/xlink" x="0px" y="0px"
	 viewBox="0 0 1400 980" style="enable-background:new 0 0 1400 980;" xml:space="preserve">
<style type="text/css">
	.estars0{fill:#31B456;}
	.estars1{fill:#A19700;}
	.estars2{fill:#FFD800;}
	.estars3{fill:#FFED80;}
	.estars4{fill:#FFFFFF;stroke:#BFADA2;stroke-width:5;stroke-linecap:round;stroke-miterlimit:10;}
	.estars5{fill:#EDCCB6;stroke:#BFADA2;stroke-width:5;stroke-miterlimit:10;}
	.estars6{fill:#FCF8C4;stroke:#BFADA2;stroke-width:5;stroke-linecap:round;stroke-miterlimit:10;}
	.estars7{fill:#BFADA2;stroke:#BFADA2;stroke-width:5;stroke-linecap:round;stroke-miterlimit:10;}
	.estars8{fill:none;stroke:#BFADA2;stroke-width:5;stroke-linecap:round;stroke-miterlimit:10;}
</style>
<rect class="estars0" width="100%" height="100%"/>
<g>
	<g>
		<g>
			<path class="estars1" d="M897.73,626.17c-0.33,0-0.67-0.03-1-0.1L566.22,557.5c-1.21-0.25-2.27-0.94-2.99-1.94l-87.79-121.63
				l-109.8,126.26c-1.79,2.05-4.9,2.27-6.95,0.48c-2.05-1.78-2.27-4.89-0.49-6.95l113.87-130.95c0.99-1.13,2.45-1.74,3.94-1.69
				c1.51,0.07,2.89,0.82,3.77,2.04l90.3,125.11l323.06,67.03l8.53-143.87l-99.97-87.3c-1.39-1.22-1.99-3.11-1.54-4.9l25.22-101.39
				c0.44-1.75,1.79-3.13,3.54-3.58l121.74-31.56c1.29-0.34,2.65-0.13,3.79,0.56l96.39,58.56c2.33,1.41,3.07,4.44,1.65,6.76
				c-1.41,2.33-4.44,3.07-6.76,1.65l-94.62-57.48l-116.89,30.3l-23.79,95.63l99.52,86.91c1.15,1,1.77,2.48,1.68,4l-9.01,151.97
				c-0.08,1.43-0.79,2.75-1.92,3.62C899.86,625.82,898.81,626.17,897.73,626.17z"/>
		</g>
		<polygon id="s1" class="estars2" points="362.87,517.72 376.04,538.06 399.45,544.3 384.18,563.12 385.48,587.32 362.87,578.61 340.25,587.32 
			341.55,563.12 326.28,544.3 349.69,538.06 		"/>
		<polygon id="s2" class="estars2" points="907.68,430.04 920.86,450.38 944.27,456.63 929,475.44 930.3,499.64 907.68,490.93 885.07,499.64 
			886.37,475.44 871.09,456.63 894.51,450.38 		"/>
		<polygon id="s3" class="estars2" points="476.38,401.7 484.54,414.3 499.05,418.17 489.59,429.82 490.39,444.82 476.38,439.42 462.37,444.82 
			463.17,429.82 453.71,418.17 468.22,414.3 		"/>
		<polygon id="s4" class="estars2" points="805.54,356.08 813.7,368.68 828.21,372.55 818.74,384.21 819.55,399.2 805.54,393.8 791.53,399.2 
			792.33,384.21 782.87,372.55 797.37,368.68 		"/>
		<polygon id="s5" class="estars2" points="952.49,223.13 960.66,235.73 975.16,239.6 965.7,251.26 966.5,266.25 952.49,260.86 938.48,266.25 
			939.29,251.26 929.83,239.6 944.33,235.73 		"/>
		<polygon id="s6" class="estars2" points="1048.88,281.7 1057.05,294.3 1071.56,298.17 1062.09,309.82 1062.9,324.81 1048.88,319.42 
			1034.88,324.81 1035.68,309.82 1026.22,298.17 1040.72,294.3 		"/>
		<polygon id="s7" class="estars2" points="568.4,503.49 584.92,528.98 614.27,536.81 595.13,560.4 596.75,590.73 568.4,579.82 540.05,590.73 
			541.68,560.4 522.53,536.81 551.89,528.98 		"/>
		<polygon id="s8" class="estars2" points="898.4,593.57 907.69,607.92 924.2,612.33 913.43,625.59 914.35,642.66 898.4,636.52 882.45,642.66 
			883.36,625.59 872.59,612.33 889.1,607.92 		"/>
		<polygon id="s9" class="estars2" points="830.84,251.32 840.13,265.67 856.64,270.07 845.87,283.34 846.78,300.41 830.84,294.27 
			814.89,300.41 815.8,283.34 805.03,270.07 821.54,265.67 		"/>
		<path class="estars3" d="M376.45,556.96c0,8.02-6.5,14.53-14.53,14.53c-8.02,0-14.53-6.5-14.53-14.53c0-8.02,6.5-14.52,14.53-14.52
			C369.95,542.43,376.45,548.94,376.45,556.96z"/>
		<path class="estars3" d="M921.27,469.28c0,8.02-6.5,14.53-14.52,14.53c-8.02,0-14.53-6.5-14.53-14.53c0-8.02,6.5-14.52,14.53-14.52
			C914.76,454.76,921.27,461.26,921.27,469.28z"/>
		<path class="estars3" d="M484.8,426.01c0,4.97-4.03,9-9,9c-4.97,0-9-4.03-9-9c0-4.97,4.03-9,9-9
			C480.77,417.01,484.8,421.04,484.8,426.01z"/>
		<path class="estars3" d="M813.95,380.39c0,4.97-4.03,9-9,9c-4.97,0-9-4.03-9-9c0-4.97,4.03-9,9-9
			C809.92,371.39,813.95,375.42,813.95,380.39z"/>
		<path class="estars3" d="M960.91,247.44c0,4.97-4.03,9-9,9c-4.97,0-9-4.03-9-9c0-4.97,4.03-9,9-9
			C956.88,238.44,960.91,242.47,960.91,247.44z"/>
		<path class="estars3" d="M1057.3,306c0,4.97-4.03,9-9,9c-4.97,0-9-4.03-9-9c0-4.97,4.03-9,9-9
			C1053.27,297.01,1057.3,301.03,1057.3,306z"/>
		<path class="estars3" d="M585.43,552.67c0,10.06-8.15,18.21-18.21,18.21c-10.06,0-18.21-8.15-18.21-18.21
			c0-10.06,8.15-18.21,18.21-18.21C577.28,534.46,585.43,542.62,585.43,552.67z"/>
		<path class="estars3" d="M907.98,621.25c0,5.66-4.59,10.25-10.25,10.25c-5.66,0-10.24-4.59-10.24-10.25c0-5.66,4.59-10.24,10.24-10.24
			C903.39,611,907.98,615.59,907.98,621.25z"/>
		<path class="estars3" d="M840.42,279c0,5.66-4.59,10.25-10.25,10.25c-5.66,0-10.24-4.59-10.24-10.25c0-5.66,4.59-10.24,10.24-10.24
			C835.83,268.75,840.42,273.34,840.42,279z"/>
	</g>
</g>
<g class="rabbit">
<path id="rabbit" class="estars4" d="M222.62,824.7c-0.7-3.03-1.75-5.98-3.15-8.77c-0.73-2.03-1.45-4.07-2.17-6.1c-0.78-2.23-2.17-3.96-3.85-5.12
	c4.54-4,8.98-8.13,13.26-12.42c9.84-9.84,24.2-22.93,19.4-38.49c-4.05-13.09-20.1-18.47-32.23-13.78
	c-13.66,5.28-21.91,18.92-29.25,30.84c-2.56,4.16-4.97,8.4-7.25,12.72c-11.36-16.46-26.68-30.12-44.85-38.93
	c-8.13-3.94-17.41-7.52-26.46-4.46c-8.04,2.73-13.67,9.94-15.08,18.23c-3.1,18.2,11.06,30.95,24.13,40.97
	c5.99,4.59,12.28,8.72,18.81,12.41c-1.4,5.26-1.61,10.85-0.71,16.22c-6.53-0.79-13.11-1.23-19.67-1.31
	c-14.13-0.16-29.13,0.81-42.52,5.68c-6.55,2.38-12.83,5.67-18.12,10.06c-6.79-4.63-14.45-6.51-22.41-1.64
	c-3.37,1.22-6.35,3.58-8.31,7c-2.95,5.14-2.91,11.56-0.32,16.69c2.21,6.88,9.8,11.37,16.51,13.99c0.49,4.67,1.72,9.27,3.6,13.6
	c-8.33,9.8-15.53,21.23-19.24,33.22c-2.71,8.77,0.31,17.39,7.75,22.61c5.98,4.2,13.66,5.24,20.78,5.37
	c17.89,0.31,35.61-4.07,53-7.73c5.2-1.1,10.39-2.19,15.59-3.29c10.62,5.24,42.01,6.97,46.84,6.4c6.5-0.77,11.81-5.11,13.47-11.53
	c1.37-5.29-0.21-10.67-1.76-15.71c-1.5-4.87-2.71-3.17-4.21-8.04c6.54-8.3,11.33-18.12,13.41-28.44c0.17-0.87,0.33-1.74,0.46-2.62
	c1.72,0.26,3.44,0.49,5.19,0.66c10.57,1.04,24.1,1.21,31.84-7.29c8.05-8.84,7.58-21.14,4.11-31.85
	C227.15,837.42,224.9,831.05,222.62,824.7z"/>
<path class="estars4" d="M38.4,878.48c0,0-7.05-19.35,14.52-36.04"/>
<path class="estars4" d="M174.22,913.37c0,0-11.59,20.09-54.34,28.88"/>
<path class="estars4" d="M188.09,882.31c0,0-38.68-7.43-51.2-35.46"/>
<path class="estars5" d="M184.13,785.86c0,0,29.11-46.04,45.74-33.46S207,798.91,207,798.91"/>
<path class="estars5" d="M138.73,804.7c0,0-49.79-27.43-35.89-49.6s53.28,20.31,65.06,29.87"/>
<path class="estars4" d="M133.94,811.79c0,0,8.66-15.99,21.36-20.06"/>
<path class="estars4" d="M167.9,784.97c0,0,2.95-3.32,9.49-1.4c22.94,6.73,36.08,21.13,36.08,21.13"/>
<path class="estars4" d="M73.4,931.35c0,0,40.4-20.83,21.4-36.45s-39.1-22.81-52.8-2.83"/>
<line class="estars4" x1="155.31" y1="929.57" x2="165.8" y2="934.02"/>
<path class="estars6" d="M177.96,908.16c0,0-14.66-6.13-36.41,0c-21.75,6.13-43.21,1.95-43.21,1.95L48.8,937.91l36,11.01
	C84.8,948.92,163.62,937.53,177.96,908.16z"/>
<path class="estars4" d="M145.59,902.78c-12.21,13-4.79,25.02-4.79,25.02s-5-1.2-13.5-3.36l13.5,3.36c26.47,11.66,30,35.98,0,26.77
	c-30-9.21-25.5-17.29-26.59-33.81c-1.09-16.52,14.59-28.48,14.59-28.48"/>
<path class="estars4" d="M48.8,928.35c9,5.56,32,2.94,46.5,0s14.62,16.01,3.04,18.47c0,0-34.64,9.26-56.34,5.62
	c0,0-22.77-2.12-19.24-27.13"/>
<ellipse class="estars7" cx="174.22" cy="830.93" rx="4.21" ry="3.98"/>
<ellipse class="estars7" cx="213.46" cy="824.48" rx="4.21" ry="3.98"/>
<path class="estars7" d="M204.17,856.62h9.15c0.31,0,0.5,0.34,0.33,0.6l-4.57,7.31c-0.15,0.25-0.51,0.25-0.67,0l-4.57-7.31
	C203.67,856.96,203.86,856.62,204.17,856.62z"/>
<path class="estars8" d="M209.08,864.53v9.33c0,0-11.73,1.98-14.63-4.66"/>
<path class="estars8" d="M209.08,873.86c0,0,10.44,3.97,14.98-3.67"/>
</g>
</svg>
