<?xml version="1.0" encoding="utf-8"?>
<!-- Generator: Adobe Illustrator 24.3.0, SVG Export Plug-In . SVG Version: 6.00 Build 0)  -->
<svg version="1.1" id="Layer_1" xmlns="http://www.w3.org/2000/svg" xmlns:xlink="http://www.w3.org/1999/xlink" x="0px" y="0px"
	 viewBox="0 0 1400 980" style="enable-background:new 0 0 1400 980;" xml:space="preserve">
<style type="text/css">
	.seaster0{fill:#92C958;}
	.seaster1{fill:#E8962C;}
	.seaster2{fill:#FFE76D;}
	.seaster3{fill:#FFD800;}
	.seaster4{fill:#FFE242;}
	.seaster5{fill:#E091BA;}
	.seaster6{fill:#78BA5B;}
	.seaster7{fill:#FBD278;}
	.seaster8{fill:#FFFFFF;}
	.seaster9{fill:#48B7D3;}
	.seaster10{fill:#4DB9AE;}
</style>
<rect class="seaster0" width="100%" height="100%"/>
<g>
	<g>
		<path id="orange" class="seaster1" d="M902.92,570.75c2.83-9.04,10.13-15.52,19.32-18.43c-7.26-6.53-11.37-15.53-10.42-24.98
			c0.96-9.45,6.79-17.37,15.2-22.19c-8.41-4.83-14.24-12.74-15.2-22.19c-0.96-9.45,3.16-18.45,10.42-24.99
			c-9.19-2.91-16.48-9.39-19.32-18.43c-2.83-9.04-0.61-18.73,5.18-26.68c-9.57-0.86-18.01-5.63-22.59-13.86
			c-4.59-8.23-4.35-18.19-0.29-27.22c-9.54,1.22-18.74-1.63-24.88-8.69c-6.14-7.06-7.91-16.85-5.74-26.56
			c-9.08,3.25-18.66,2.45-26.08-3.14c-7.42-5.59-11.12-14.78-10.94-24.74c-8.23,5.14-17.76,6.42-26.14,2.55
			c-8.38-3.87-13.84-12.06-15.66-21.84c-7.02,6.8-16.09,10.1-25.06,8.13c-8.97-1.98-15.95-8.81-19.7-17.99
			c-5.51,8.16-13.71,13.35-22.88,13.35c-9.17,0-17.37-5.19-22.88-13.35c-3.75,9.17-10.73,16.01-19.7,17.99
			c-8.97,1.98-18.03-1.33-25.06-8.13c-1.83,9.78-7.29,17.98-15.66,21.84c-8.38,3.87-17.91,2.59-26.14-2.55
			c0.17,9.96-3.52,19.16-10.94,24.74c-7.42,5.59-16.99,6.39-26.08,3.14c2.17,9.71,0.4,19.5-5.74,26.56
			c-6.14,7.06-15.34,9.91-24.88,8.69c4.07,9.03,4.3,18.98-0.29,27.22c-4.58,8.23-13.02,13-22.59,13.87
			c5.79,7.95,8.01,17.64,5.18,26.68c-2.83,9.04-10.13,15.52-19.32,18.43c7.26,6.53,11.38,15.53,10.42,24.98
			c-0.96,9.45-6.79,17.37-15.2,22.19c8.41,4.82,14.24,12.74,15.2,22.19c0.96,9.45-3.16,18.45-10.42,24.99
			c9.19,2.91,16.49,9.39,19.32,18.43c2.83,9.04,0.61,18.73-5.18,26.68c9.57,0.86,18.01,5.63,22.59,13.87
			c4.59,8.23,4.35,18.19,0.29,27.22c9.54-1.22,18.75,1.63,24.88,8.69c6.14,7.06,7.91,16.85,5.74,26.56
			c9.09-3.25,18.66-2.45,26.08,3.14c7.42,5.59,11.11,14.78,10.94,24.74c8.24-5.14,17.76-6.42,26.14-2.55
			c8.38,3.87,13.84,12.06,15.66,21.85c7.03-6.8,16.09-10.11,25.06-8.13c8.97,1.97,15.95,8.81,19.7,17.99
			c5.51-8.17,13.71-13.35,22.88-13.35c9.17,0,17.37,5.18,22.88,13.35c3.75-9.18,10.73-16.02,19.7-17.99
			c8.97-1.98,18.03,1.33,25.06,8.13c1.83-9.78,7.29-17.98,15.66-21.84c8.38-3.87,17.91-2.59,26.14,2.55
			c-0.17-9.96,3.52-19.15,10.94-24.74c7.42-5.59,17-6.39,26.08-3.14c-2.17-9.71-0.4-19.5,5.74-26.56
			c6.14-7.06,15.34-9.91,24.88-8.69c-4.07-9.03-4.3-18.98,0.29-27.21c4.58-8.23,13.02-13,22.59-13.87
			C902.31,589.48,900.09,579.79,902.92,570.75z"/>
		<ellipse id="yellow" class="seaster2" cx="708.14" cy="505.14" rx="183.97" ry="190.71"/>
		<ellipse class="seaster3" cx="708.14" cy="505.14" rx="158" ry="163.79"/>
		<path class="seaster4" d="M597.1,542.28c0-90.46,70.74-163.79,158-163.79c25.38,0,49.36,6.21,70.61,17.24
			c-28.92-33.38-70.88-54.38-117.57-54.38c-87.26,0-158,73.33-158,163.79c0,64.15,35.58,119.67,87.39,146.55
			C612.39,622.69,597.1,584.34,597.1,542.28z"/>
	</g>
</g>
<g>
	<path class="seaster5" d="M187.87,195.15c3.08-12.06,4.28-24.28,4.28-34.87c0-7.55-0.9-15.69-2.59-24.02c-0.1,0-0.19,0.01-0.29,0.01
		c-12.51,0-22.65-10.14-22.65-22.65c0-7.32,3.48-13.83,8.87-17.97c-2.17-4.32-4.52-8.5-7.04-12.47c-3.67,2.57-8.15,4.09-12.97,4.09
		c-12.51,0-22.65-10.14-22.65-22.65c0-4.72,1.45-9.1,3.92-12.73c-5.78-2.85-11.83-4.44-18.06-4.44c-3.07,0-6.09,0.39-9.06,1.12
		c4.12,4.1,6.67,9.78,6.67,16.05c0,12.51-10.14,22.65-22.65,22.65c-8.44,0-15.8-4.62-19.69-11.46c-3.47,4.71-6.7,9.82-9.65,15.21
		c0.43-0.02,0.86-0.04,1.3-0.04c12.51,0,22.65,10.14,22.65,22.65c0,12.51-10.14,22.65-22.65,22.65c-6.37,0-12.12-2.63-16.23-6.86
		c-1.83,7.29-3.08,14.52-3.7,21.43c5.35,4.14,8.79,10.62,8.79,17.91c0,6.3-2.57,12-6.73,16.1c0.97,4.93,2.24,10.01,3.89,15.09
		c3.85-3.03,8.7-4.84,13.98-4.84c12.51,0,22.65,10.14,22.65,22.65c0,9.16-5.45,17.05-13.27,20.62c5.48,4.96,11.88,9.06,19.33,11.88
		c3.82,0.11,7.4,1.17,10.53,2.94c4.32,0.83,8.92,1.27,13.85,1.27c24.14,0,40.84-9.64,52.14-23.57c-2.65-3.71-4.21-8.24-4.21-13.15
		C166.63,205.71,176.02,195.87,187.87,195.15z"/>
	<g>
		<circle class="seaster6" cx="127.45" cy="113.62" r="22.65"/>
		<ellipse transform="matrix(0.987 -0.161 0.161 0.987 -16.629 22)" class="seaster7" cx="127.45" cy="113.62" rx="16.01" ry="16.01"/>
		<circle class="seaster8" cx="127.45" cy="113.62" r="8.6"/>
	</g>
	<g>
		<circle class="seaster6" cx="127.45" cy="113.62" r="22.65"/>
		<ellipse transform="matrix(0.987 -0.161 0.161 0.987 -16.629 22)" class="seaster7" cx="127.45" cy="113.62" rx="16.01" ry="16.01"/>
		<circle class="seaster8" cx="127.45" cy="113.62" r="8.6"/>
	</g>
	<g>
		<circle class="seaster6" cx="127.45" cy="113.62" r="22.65"/>
		<ellipse transform="matrix(0.987 -0.161 0.161 0.987 -16.629 22)" class="seaster7" cx="127.45" cy="113.62" rx="16.01" ry="16.01"/>
		<circle class="seaster8" cx="127.45" cy="113.62" r="8.6"/>
	</g>
	<g>
		<circle class="seaster6" cx="127.45" cy="113.62" r="22.65"/>
		<ellipse transform="matrix(0.987 -0.161 0.161 0.987 -16.629 22)" class="seaster7" cx="127.45" cy="113.62" rx="16.01" ry="16.01"/>
		<circle class="seaster8" cx="127.45" cy="113.62" r="8.6"/>
	</g>
	<g>
		<circle class="seaster6" cx="127.45" cy="113.62" r="22.65"/>
		<ellipse transform="matrix(0.987 -0.161 0.161 0.987 -16.629 22)" class="seaster7" cx="127.45" cy="113.62" rx="16.01" ry="16.01"/>
		<circle class="seaster8" cx="127.45" cy="113.62" r="8.6"/>
	</g>
	<g>
		<circle class="seaster6" cx="93.67" cy="168.74" r="22.65"/>
		
			<ellipse transform="matrix(0.7071 -0.7071 0.7071 0.7071 -91.886 115.656)" class="seaster7" cx="93.67" cy="168.74" rx="16.01" ry="16.01"/>
		<circle class="seaster8" cx="93.67" cy="168.74" r="8.6"/>
	</g>
	<g>
		<circle class="seaster6" cx="93.67" cy="168.74" r="22.65"/>
		
			<ellipse transform="matrix(0.7071 -0.7071 0.7071 0.7071 -91.886 115.656)" class="seaster7" cx="93.67" cy="168.74" rx="16.01" ry="16.01"/>
		<circle class="seaster8" cx="93.67" cy="168.74" r="8.6"/>
	</g>
	<g>
		<circle class="seaster6" cx="155.5" cy="168.74" r="22.65"/>
		
			<ellipse transform="matrix(0.7071 -0.7071 0.7071 0.7071 -73.7767 159.3757)" class="seaster7" cx="155.5" cy="168.74" rx="16.01" ry="16.01"/>
		<circle class="seaster8" cx="155.5" cy="168.74" r="8.6"/>
	</g>
	<g>
		<circle class="seaster6" cx="155.5" cy="168.74" r="22.65"/>
		
			<ellipse transform="matrix(0.7071 -0.7071 0.7071 0.7071 -73.7767 159.3757)" class="seaster7" cx="155.5" cy="168.74" rx="16.01" ry="16.01"/>
		<circle class="seaster8" cx="155.5" cy="168.74" r="8.6"/>
	</g>
	<g>
		
			<ellipse transform="matrix(0.3775 -0.926 0.926 0.3775 -122.2924 253.5815)" class="seaster6" cx="127.45" cy="217.74" rx="22.65" ry="22.65"/>
		
			<ellipse transform="matrix(0.987 -0.161 0.161 0.987 -33.3912 23.3581)" class="seaster7" cx="127.45" cy="217.74" rx="16.01" ry="16.01"/>
		
			<ellipse transform="matrix(0.987 -0.1606 0.1606 0.987 -33.3179 23.2974)" class="seaster8" cx="127.45" cy="217.74" rx="8.6" ry="8.6"/>
	</g>
	<g>
		
			<ellipse transform="matrix(0.3775 -0.926 0.926 0.3775 -122.2924 253.5815)" class="seaster6" cx="127.45" cy="217.74" rx="22.65" ry="22.65"/>
		
			<ellipse transform="matrix(0.987 -0.161 0.161 0.987 -33.3912 23.3581)" class="seaster7" cx="127.45" cy="217.74" rx="16.01" ry="16.01"/>
		
			<ellipse transform="matrix(0.987 -0.1606 0.1606 0.987 -33.3179 23.2974)" class="seaster8" cx="127.45" cy="217.74" rx="8.6" ry="8.6"/>
	</g>
	<g>
		
			<ellipse transform="matrix(0.3775 -0.926 0.926 0.3775 -122.2924 253.5815)" class="seaster6" cx="127.45" cy="217.74" rx="22.65" ry="22.65"/>
		
			<ellipse transform="matrix(0.987 -0.161 0.161 0.987 -33.3912 23.3581)" class="seaster7" cx="127.45" cy="217.74" rx="16.01" ry="16.01"/>
		
			<ellipse transform="matrix(0.987 -0.1606 0.1606 0.987 -33.3179 23.2974)" class="seaster8" cx="127.45" cy="217.74" rx="8.6" ry="8.6"/>
	</g>
	<path class="seaster6" d="M93.67,87.27c12.51,0,22.65-10.14,22.65-22.65c0-6.27-2.55-11.95-6.67-16.05c-2.5,0.61-4.96,1.47-7.38,2.55
		c4.45,2.84,7.42,7.82,7.42,13.49c0,8.84-7.17,16.01-16.01,16.01c-6.96,0-12.87-4.45-15.08-10.66c-1.58,1.86-3.12,3.81-4.61,5.83
		C77.87,82.65,85.23,87.27,93.67,87.27z"/>
	<path class="seaster7" d="M93.67,56.02c4.75,0,8.6,3.85,8.6,8.6s-3.85,8.6-8.6,8.6s-8.6-3.85-8.6-8.6c0-0.59,0.06-1.16,0.17-1.72
		c-2.29,2.18-4.51,4.54-6.65,7.07c2.2,6.21,8.11,10.66,15.08,10.66c8.84,0,16.01-7.17,16.01-16.01c0-5.68-2.96-10.65-7.42-13.49
		c-2.94,1.32-5.82,2.96-8.61,4.9C93.66,56.03,93.66,56.02,93.67,56.02z"/>
	<path class="seaster8" d="M93.67,73.22c4.75,0,8.6-3.85,8.6-8.6s-3.85-8.6-8.6-8.6c0,0-0.01,0-0.01,0c-2.89,2-5.7,4.31-8.41,6.88
		c-0.11,0.55-0.17,1.13-0.17,1.72C85.07,69.37,88.92,73.22,93.67,73.22z"/>
	<path class="seaster6" d="M155.5,87.27c4.83,0,9.3-1.51,12.97-4.09c-1.2-1.89-2.43-3.73-3.7-5.52c-2.62,1.87-5.81,2.98-9.28,2.98
		c-8.84,0-16.01-7.17-16.01-16.01c0-3.52,1.15-6.76,3.07-9.4c-1.9-1.25-3.83-2.36-5.79-3.33c-2.47,3.63-3.92,8.01-3.92,12.73
		C132.85,77.13,142.99,87.27,155.5,87.27z"/>
	<path class="seaster7" d="M155.5,73.22c-4.75,0-8.6-3.85-8.6-8.6c0-1.86,0.59-3.57,1.6-4.98c-1.94-1.62-3.92-3.1-5.94-4.43
		c-1.92,2.64-3.07,5.89-3.07,9.4c0,8.84,7.17,16.01,16.01,16.01c3.46,0,6.66-1.11,9.28-2.98c-1.45-2.04-2.94-4.02-4.48-5.91
		C158.92,72.68,157.27,73.22,155.5,73.22z"/>
	<path class="seaster8" d="M155.5,73.22c1.78,0,3.43-0.54,4.8-1.46c-3.7-4.56-7.65-8.65-11.8-12.11c-1,1.41-1.6,3.12-1.6,4.98
		C146.9,69.37,150.75,73.22,155.5,73.22z"/>
	<path class="seaster6" d="M166.63,113.62c0,12.51,10.14,22.65,22.65,22.65c0.1,0,0.19-0.01,0.29-0.01c-0.45-2.22-0.95-4.45-1.51-6.69
		c-8.27-0.63-14.79-7.52-14.79-15.95c0-4.66,2-8.84,5.18-11.77c-0.94-2.09-1.92-4.16-2.95-6.2
		C170.11,99.79,166.63,106.3,166.63,113.62z"/>
	<path class="seaster7" d="M180.69,113.62c0-1.46,0.37-2.83,1.01-4.03c-1.02-2.61-2.1-5.19-3.24-7.74c-3.18,2.93-5.18,7.11-5.18,11.77
		c0,8.43,6.52,15.33,14.79,15.95c-0.67-2.69-1.42-5.39-2.24-8.09C182.8,120.15,180.69,117.14,180.69,113.62z"/>
	<path class="seaster8" d="M185.82,121.49c-1.22-3.99-2.6-7.97-4.13-11.89c-0.64,1.2-1.01,2.57-1.01,4.03
		C180.69,117.14,182.8,120.15,185.82,121.49z"/>
	<path class="seaster6" d="M65.62,136.27c12.51,0,22.65-10.14,22.65-22.65c0-12.51-10.14-22.65-22.65-22.65c-0.43,0-0.87,0.02-1.3,0.04
		c-1.32,2.43-2.59,4.91-3.79,7.43c1.6-0.54,3.31-0.84,5.09-0.84c8.84,0,16.01,7.17,16.01,16.01s-7.17,16.01-16.01,16.01
		c-6.03,0-11.27-3.33-14-8.25c-0.82,2.67-1.56,5.35-2.23,8.02C53.5,133.64,59.25,136.27,65.62,136.27z"/>
	<path class="seaster7" d="M65.62,129.64c8.84,0,16.01-7.17,16.01-16.01s-7.17-16.01-16.01-16.01c-1.78,0-3.49,0.3-5.09,0.84
		c-3.53,7.39-6.53,15.14-8.92,22.93C54.35,126.3,59.6,129.64,65.62,129.64z M65.62,105.03c4.75,0,8.6,3.85,8.6,8.6
		c0,4.75-3.85,8.6-8.6,8.6c-4.75,0-8.6-3.85-8.6-8.6C57.03,108.87,60.88,105.03,65.62,105.03z"/>
	
		<ellipse transform="matrix(0.3808 -0.9247 0.9247 0.3808 -64.4263 131.0396)" class="seaster8" cx="65.62" cy="113.62" rx="8.6" ry="8.6"/>
	<path class="seaster6" d="M54.48,168.74c0-7.29-3.45-13.77-8.79-17.91c-0.28,3.13-0.43,6.2-0.44,9.18c1.64,2.51,2.6,5.51,2.6,8.73
		c0,2.47-0.58,4.81-1.58,6.9c0.38,2.98,0.87,6.06,1.49,9.2C51.91,180.74,54.48,175.04,54.48,168.74z"/>
	<path class="seaster7" d="M46.27,175.64c1-2.09,1.58-4.43,1.58-6.9c0-3.22-0.96-6.22-2.6-8.73c0,0.09,0,0.17,0,0.26
		C45.25,164.83,45.56,170.05,46.27,175.64z"/>
	<path class="seaster6" d="M88.27,217.74c0-12.51-10.14-22.65-22.65-22.65c-5.28,0-10.13,1.81-13.98,4.84c0.73,2.26,1.54,4.51,2.42,6.75
		c2.92-3.04,7.01-4.95,11.56-4.95c8.84,0,16.01,7.17,16.01,16.01c0,7.38-4.99,13.57-11.78,15.43c1.61,1.81,3.33,3.55,5.14,5.19
		C82.83,234.79,88.27,226.91,88.27,217.74z"/>
	<path class="seaster7" d="M65.62,209.15c4.75,0,8.6,3.85,8.6,8.6s-3.85,8.6-8.6,8.6c-0.42,0-0.83-0.04-1.23-0.1
		c1.68,2.41,3.51,4.73,5.46,6.93c6.79-1.86,11.78-8.05,11.78-15.43c0-8.84-7.17-16.01-16.01-16.01c-4.55,0-8.64,1.9-11.56,4.95
		c1.06,2.7,2.24,5.38,3.53,8C58.83,211.45,61.96,209.15,65.62,209.15z"/>
	<path class="seaster8" d="M74.22,217.74c0-4.75-3.85-8.6-8.6-8.6c-3.67,0-6.79,2.3-8.02,5.53c1.98,4,4.23,7.89,6.79,11.56
		c0.4,0.06,0.81,0.1,1.23,0.1C70.37,226.34,74.22,222.49,74.22,217.74z"/>
	<path class="seaster6" d="M173.27,217.74c0-7.67,5.4-14.08,12.61-15.64c0.74-2.3,1.4-4.63,2-6.96c-11.85,0.73-21.24,10.56-21.24,22.6
		c0,4.9,1.56,9.44,4.21,13.15c1.5-1.85,2.91-3.78,4.23-5.77C173.93,222.91,173.27,220.41,173.27,217.74z"/>
	<path class="seaster7" d="M173.27,217.74c0,2.66,0.66,5.16,1.81,7.37c4.67-7.06,8.2-14.92,10.8-23.02
		C178.67,203.66,173.27,210.07,173.27,217.74z"/>
	<path class="seaster6" d="M104.86,253.18c-3.12-1.78-6.7-2.83-10.53-2.94C97.63,251.48,101.14,252.47,104.86,253.18z"/>
</g>
<g>
	<path class="seaster9" d="M135.7,771.12l-16.24-16.24c-12.2,6.68-23.11,18.96-31.85,33.7l15.31,15.31L135.7,771.12z"/>
	<path class="seaster9" d="M154.37,752.44c-4.81-1.95-9.79-3.01-14.89-3.01c-2.8,0-5.56,0.33-8.27,0.94l12.62,12.62L154.37,752.44z"/>
	<path class="seaster9" d="M81.92,799.16c-6.07,12.44-10.65,25.96-13.3,39.03l26.17-26.17L81.92,799.16z"/>
	<path class="seaster9" d="M184.73,803.89l9.74-9.74c-7.97-14.92-18.12-27.86-29.62-35.93l-12.9,12.9L184.73,803.89z"/>
	<path class="seaster9" d="M151.96,852.93l32.77,32.77l28.09-28.09c-0.15-3.35-0.47-6.8-0.94-10.31l-27.14-27.14L151.96,852.93z"/>
	<path class="seaster9" d="M66.07,865.11c0.35,13.18,3.17,30.86,10.28,47.17l18.45-18.45L66.07,865.11z"/>
	<path class="seaster9" d="M207.55,826.71c-2.06-7.29-4.67-14.58-7.76-21.61l-6.93,6.93L207.55,826.71z"/>
	
		<rect x="120.65" y="788.85" transform="matrix(0.7071 -0.7071 0.7071 0.7071 -532.0615 339.538)" class="seaster9" width="46.35" height="46.35"/>
	
		<rect x="79.75" y="829.75" transform="matrix(0.7071 -0.7071 0.7071 0.7071 -572.9665 322.5946)" class="seaster9" width="46.35" height="46.35"/>
	<path class="seaster9" d="M205.76,906.73c3.75-10.74,5.8-22,6.67-32.46l-19.57,19.57L205.76,906.73z"/>
	<path class="seaster9" d="M102.92,901.97l-21.08,21.08c7.92,13.32,19.38,24.59,35.57,29.98l18.29-18.29L102.92,901.97z"/>
	
		<rect x="120.65" y="870.66" transform="matrix(0.7071 -0.7071 0.7071 0.7071 -589.9107 363.5007)" class="seaster9" width="46.35" height="46.35"/>
	<path class="seaster9" d="M151.96,934.74l16.16,16.16c15.39-6.66,25.89-18.72,32.84-32.7l-16.23-16.23L151.96,934.74z"/>
	<path class="seaster9" d="M130.76,955.93c2.79,0.32,5.69,0.49,8.72,0.49c5.85,0,11.26-0.58,16.27-1.63l-11.93-11.93L130.76,955.93z"/>
	<path class="seaster7" d="M212.82,857.61l-28.09,28.09l-32.77-32.77l32.77-32.77l27.14,27.14c-0.9-6.71-2.36-13.65-4.33-20.59
		l-14.68-14.68l6.93-6.93c-1.64-3.74-3.42-7.4-5.31-10.95l-9.74,9.74l-32.77-32.77l12.9-12.9c-3.38-2.37-6.88-4.33-10.48-5.78
		l-10.55,10.55l-12.62-12.62c-4.02,0.9-7.95,2.43-11.75,4.51l16.24,16.24l-32.77,32.77l-15.31-15.31
		c-2.02,3.41-3.92,6.94-5.69,10.57l12.87,12.87l-26.17,26.17c-1.69,8.34-2.59,16.49-2.59,24.06c0,0.93,0.01,1.88,0.04,2.86
		l28.72,28.72l-18.45,18.45c1.61,3.68,3.43,7.3,5.49,10.77l21.08-21.08l32.77,32.77l-18.29,18.29c4.13,1.38,8.58,2.36,13.35,2.91
		l13.06-13.06l11.93,11.93c4.43-0.94,8.55-2.25,12.37-3.9l-16.16-16.16l32.77-32.77l16.23,16.23c1.84-3.71,3.44-7.55,4.8-11.46
		l-12.9-12.9l19.57-19.57c0.34-4.16,0.5-8.2,0.5-12.02C212.93,860.73,212.89,859.18,212.82,857.61z M143.83,779.25l32.77,32.77
		l-32.77,32.77l-32.77-32.77L143.83,779.25z M70.15,852.93l32.77-32.77l32.77,32.77l-32.77,32.77L70.15,852.93z M143.83,926.61
		l-32.77-32.77l32.77-32.77l32.77,32.77L143.83,926.61z"/>
</g>
<g>
	<path class="seaster6" d="M1341.42,198.36l1.5,8.74l-7.85-4.13l-7.85,4.13l1.5-8.74l-6.35-6.19l8.77-1.27l3.92-7.95l3.92,7.95l7.84,1.14
		c1.24-7.89,1.76-15.58,1.76-22.57c0-5.47-0.48-11.24-1.37-17.17l-5.8,5.65l1.5,8.74l-7.85-4.13l-7.85,4.13l1.5-8.74l-6.35-6.19
		l8.77-1.27l3.92-7.95l3.92,7.95l8.13,1.18c-1.37-8.74-3.65-17.8-6.73-26.71l-5.33-2.8l-7.85,4.13l1.5-8.74l-6.35-6.19l8.77-1.27
		l1.69-3.43c-6.67-13.73-15.17-26.15-24.9-35.17l-5.81,5.66l1.5,8.74l-7.85-4.13l-7.85,4.13l1.5-8.74l-6.35-6.19l8.77-1.27
		l3.65-7.39c-6.47-3.61-13.3-5.65-20.37-5.65c-22.83,0-43.22,21.25-56.69,47.98l2.7,5.46l8.77,1.27l-6.35,6.19l1.5,8.74l-7.85-4.13
		l-7.77,4.09c-4.96,14.76-7.76,29.9-7.76,43.22c0,15.28,3.48,38.01,13.84,57.31l1.69-3.42l3.92,7.95l8.77,1.27l-6.35,6.19l0.07,0.44
		c11.29,14.24,27.81,24.44,51.5,24.44c25.02,0,42.05-10.35,53.35-25.1l-6.12-5.97l8.77-1.27l3.92-7.95l1.28,2.59
		c5.2-10.28,8.45-21.63,10.28-32.66L1341.42,198.36z M1264.35,85.89l-7.85-4.13l-7.85,4.13l1.5-8.74l-6.35-6.19l8.77-1.27l3.92-7.95
		l3.92,7.95l8.77,1.27l-6.35,6.19L1264.35,85.89z"/>
	<polygon class="seaster5" points="1256.5,102.14 1260.43,110.09 1269.2,111.37 1262.85,117.56 1264.35,126.29 1256.5,122.17 
		1248.66,126.29 1250.15,117.56 1243.81,111.37 1252.58,110.09 	"/>
	<polygon class="seaster7" points="1295.79,102.14 1299.71,110.09 1308.48,111.37 1302.14,117.56 1303.63,126.29 1295.79,122.17 
		1287.94,126.29 1289.44,117.56 1283.09,111.37 1291.86,110.09 	"/>
	<polygon class="seaster5" points="1217.22,142.55 1221.14,150.5 1229.92,151.77 1223.57,157.96 1225.07,166.7 1217.22,162.57 
		1209.37,166.7 1210.87,157.96 1204.52,151.77 1213.29,150.5 	"/>
	<polygon class="seaster7" points="1256.5,142.55 1260.43,150.5 1269.2,151.77 1262.85,157.96 1264.35,166.7 1256.5,162.57 
		1248.66,166.7 1250.15,157.96 1243.81,151.77 1252.58,150.5 	"/>
	<polygon class="seaster5" points="1295.79,142.55 1299.71,150.5 1308.48,151.77 1302.14,157.96 1303.63,166.7 1295.79,162.57 
		1287.94,166.7 1289.44,157.96 1283.09,151.77 1291.86,150.5 	"/>
	<polygon class="seaster7" points="1217.22,182.95 1221.14,190.9 1229.92,192.18 1223.57,198.36 1225.07,207.1 1217.22,202.98 
		1209.37,207.1 1210.87,198.36 1204.52,192.18 1213.29,190.9 	"/>
	<polygon class="seaster5" points="1256.5,182.95 1260.43,190.9 1269.2,192.18 1262.85,198.36 1264.35,207.1 1256.5,202.98 
		1248.66,207.1 1250.15,198.36 1243.81,192.18 1252.58,190.9 	"/>
	<polygon class="seaster7" points="1295.79,182.95 1299.71,190.9 1308.48,192.18 1302.14,198.36 1303.63,207.1 1295.79,202.98 
		1287.94,207.1 1289.44,198.36 1283.09,192.18 1291.86,190.9 	"/>
	<polygon class="seaster7" points="1256.5,223.35 1260.43,231.3 1269.2,232.58 1262.85,238.77 1264.35,247.51 1256.5,243.38 
		1248.66,247.51 1250.15,238.77 1243.81,232.58 1252.58,231.3 	"/>
	<polygon class="seaster5" points="1295.79,223.35 1299.71,231.3 1308.48,232.58 1302.14,238.77 1303.63,247.51 1295.79,243.38 
		1287.94,247.51 1289.44,238.77 1283.09,232.58 1291.86,231.3 	"/>
	<path class="seaster6" d="M1307.17,70.77c-3.48-3.15-7.12-5.85-10.89-8.03l3.43,6.95L1307.17,70.77z"/>
	<polygon class="seaster7" points="1260.43,69.69 1256.5,61.74 1252.58,69.69 1243.81,70.96 1250.15,77.15 1248.66,85.89 1256.5,81.76 
		1264.35,85.89 1262.85,77.15 1269.2,70.96 	"/>
	<path class="seaster5" d="M1283.09,70.96l6.35,6.19l-1.5,8.74l7.85-4.13l7.85,4.13l-1.5-8.74l5.81-5.66c-0.26-0.24-0.52-0.48-0.78-0.72
		l-7.46-1.08l-3.43-6.95c-0.26-0.15-0.51-0.3-0.77-0.44l-3.65,7.39L1283.09,70.96z"/>
	<path class="seaster7" d="M1225.07,126.29l-1.5-8.74l6.35-6.19l-8.77-1.27l-2.7-5.46c-3.49,6.93-6.52,14.23-9,21.62l7.77-4.09
		L1225.07,126.29z"/>
	<path class="seaster5" d="M1322.37,111.37l6.35,6.19l-1.5,8.74l7.85-4.13l5.33,2.8c-2.15-6.24-4.69-12.39-7.56-18.31l-1.69,3.43
		L1322.37,111.37z"/>
	<path class="seaster7" d="M1335.07,142.55l-3.92,7.95l-8.77,1.27l6.35,6.19l-1.5,8.74l7.85-4.13l7.85,4.13l-1.5-8.74l5.8-5.65
		c-0.03-0.21-0.06-0.42-0.09-0.63l-8.13-1.18L1335.07,142.55z"/>
	<path class="seaster5" d="M1335.07,182.95l-3.92,7.95l-8.77,1.27l6.35,6.19l-1.5,8.74l7.85-4.13l7.85,4.13l-1.5-8.74l5.21-5.08
		c0.07-0.42,0.14-0.83,0.2-1.25l-7.84-1.14L1335.07,182.95z"/>
	<path class="seaster5" d="M1229.92,232.58l-8.77-1.27l-3.92-7.95l-1.69,3.42c2.34,4.36,5.03,8.54,8.11,12.43l-0.07-0.44L1229.92,232.58z
		"/>
	<path class="seaster7" d="M1331.15,231.3l-8.77,1.27l6.12,5.97c3.01-3.93,5.61-8.16,7.85-12.6l-1.28-2.59L1331.15,231.3z"/>
</g>
<g>
	<path class="seaster5" d="M1275.14,930.21c39.16,0,58.74-25.35,67.45-53.23h-134.08C1217.61,903.99,1237.17,930.21,1275.14,930.21z"/>
	<path class="seaster5" d="M1348.59,836.03c0-4.61-0.34-9.44-0.98-14.39h-144.94c-0.64,4.95-0.98,9.78-0.98,14.39c0,0.14,0,0.28,0,0.41
		h146.9C1348.59,836.31,1348.59,836.17,1348.59,836.03z"/>
	<path class="seaster5" d="M1342.71,798.76c-1.32,0.79-2.86,1.26-4.51,1.26c-4.84,0-8.77-3.93-8.77-8.77c0-4.44,3.3-8.1,7.58-8.68
		c-13.06-31.81-35.89-59.36-61.88-59.36c-26.19,0-49.17,27.97-62.18,60.1c1.13-0.53,2.38-0.83,3.71-0.83c4.84,0,8.77,3.93,8.77,8.77
		c0,4.84-3.93,8.77-8.77,8.77c-3.51,0-6.53-2.07-7.93-5.05c-1.41,4.4-2.63,8.81-3.63,13.2h140.07
		C1344.46,805.04,1343.64,801.9,1342.71,798.76z"/>
	
		<ellipse transform="matrix(0.9735 -0.2289 0.2289 0.9735 -148.003 306.4475)" class="seaster9" cx="1247.05" cy="791.25" rx="8.77" ry="8.77"/>
	
		<ellipse transform="matrix(0.9735 -0.2289 0.2289 0.9735 -147.1964 313.4022)" class="seaster9" cx="1277.44" cy="791.25" rx="8.77" ry="8.77"/>
	
		<ellipse transform="matrix(0.889 -0.4579 0.4579 0.889 -217.1465 686.6553)" class="seaster9" cx="1307.82" cy="791.25" rx="8.77" ry="8.77"/>
	<path class="seaster10" d="M1201.69,836.45c0.04,11.07,1.9,25.91,6.82,40.53h134.08c4.31-13.81,5.96-28.24,6-40.53H1201.69z"/>
	<path class="seaster6" d="M1345.18,808.16H1205.1c-1.04,4.55-1.86,9.06-2.43,13.48h144.94C1347.04,817.23,1346.22,812.72,1345.18,808.16
		z"/>
	<path class="seaster9" d="M1216.67,800.01c4.84,0,8.77-3.93,8.77-8.77c0-4.84-3.93-8.77-8.77-8.77c-1.33,0-2.58,0.3-3.71,0.83
		c-1.55,3.84-2.97,7.74-4.22,11.66C1210.14,797.95,1213.16,800.01,1216.67,800.01z"/>
	<path class="seaster9" d="M1329.44,791.25c0,4.84,3.93,8.77,8.77,8.77c1.65,0,3.19-0.46,4.51-1.26c-1.6-5.44-3.51-10.88-5.69-16.19
		C1332.74,783.15,1329.44,786.81,1329.44,791.25z"/>
</g>
</svg>
