<?xml version="1.0" encoding="utf-8"?>
<!-- Generator: Adobe Illustrator 24.3.0, SVG Export Plug-In . SVG Version: 6.00 Build 0)  -->
<svg version="1.1" id="Layer_1" xmlns="http://www.w3.org/2000/svg" xmlns:xlink="http://www.w3.org/1999/xlink" x="0px" y="0px"
	 viewBox="0 0 1400 980" style="enable-background:new 0 0 1400 980;" xml:space="preserve">
<style type="text/css">
	.eeaster0{fill:#A8CF3B;}
	.eeaster1{fill:#E8962C;}
	.eeaster2{fill:#FFE76D;}
	.eeaster3{fill:#FFD800;}
	.eeaster4{fill:#FFE242;}
	.eeaster5{fill:#1FBBF8;}
	.eeaster6{fill:#A4B534;}
	.eeaster7{fill:#E7F288;}
	.eeaster8{opacity:0.1;fill:#072936;}
	.eeaster9{fill:#FFFFFF;stroke:#BFADA2;stroke-width:5;stroke-linecap:round;stroke-miterlimit:10;}
	.eeaster10{fill:#BFADA2;stroke:#BFADA2;stroke-width:5;stroke-linecap:round;stroke-miterlimit:10;}
	.eeaster11{fill:none;stroke:#BFADA2;stroke-width:5;stroke-linecap:round;stroke-miterlimit:10;}
	.eeaster12{fill:#FCF8C4;stroke:#BFADA2;stroke-width:5;stroke-linecap:round;stroke-miterlimit:10;}
	.eeaster13{fill:#EDCCB6;stroke:#BFADA2;stroke-width:5;stroke-miterlimit:10;}
</style>
<rect class="eeaster0" width="100%" height="100%"/>
<g>
	<g>
		<path id="orange" class="eeaster1" d="M824.82,530.56c1.81-5.59,6.49-9.6,12.38-11.39c-4.65-4.04-7.29-9.6-6.67-15.44
			c0.61-5.84,4.35-10.74,9.74-13.72c-5.39-2.98-9.13-7.87-9.74-13.72c-0.61-5.84,2.02-11.41,6.67-15.45
			c-5.89-1.8-10.56-5.81-12.38-11.39c-1.82-5.59-0.39-11.58,3.32-16.5c-6.13-0.53-11.54-3.48-14.48-8.57
			c-2.94-5.09-2.79-11.24-0.18-16.83c-6.11,0.75-12.01-1.01-15.94-5.37c-3.93-4.37-5.07-10.42-3.68-16.42
			c-5.82,2.01-11.96,1.51-16.71-1.94c-4.75-3.45-7.12-9.14-7.01-15.3c-5.28,3.17-11.38,3.97-16.75,1.58
			c-5.37-2.39-8.87-7.46-10.04-13.5c-4.5,4.2-10.31,6.25-16.06,5.02c-5.75-1.22-10.22-5.45-12.63-11.12
			c-3.53,5.05-8.79,8.25-14.66,8.25c-5.88,0-11.13-3.21-14.66-8.25c-2.4,5.67-6.88,9.9-12.63,11.12
			c-5.75,1.22-11.56-0.82-16.06-5.02c-1.17,6.05-4.67,11.11-10.04,13.5c-5.37,2.39-11.47,1.6-16.75-1.58
			c0.11,6.16-2.26,11.84-7.01,15.3c-4.75,3.45-10.89,3.95-16.71,1.94c1.39,6,0.26,12.05-3.68,16.42c-3.93,4.37-9.83,6.13-15.94,5.37
			c2.61,5.58,2.75,11.74-0.18,16.82c-2.94,5.09-8.34,8.04-14.48,8.57c3.71,4.92,5.13,10.91,3.32,16.49
			c-1.82,5.59-6.49,9.6-12.38,11.39c4.65,4.04,7.29,9.6,6.68,15.44c-0.61,5.84-4.35,10.74-9.74,13.72
			c5.39,2.98,9.13,7.88,9.74,13.72c0.62,5.84-2.02,11.41-6.68,15.45c5.89,1.8,10.57,5.81,12.38,11.39
			c1.82,5.59,0.39,11.58-3.32,16.5c6.14,0.53,11.54,3.48,14.48,8.57c2.94,5.09,2.79,11.24,0.18,16.82
			c6.11-0.75,12.01,1.01,15.94,5.37c3.93,4.37,5.07,10.42,3.68,16.42c5.82-2.01,11.96-1.51,16.71,1.94
			c4.75,3.45,7.12,9.14,7.01,15.3c5.28-3.18,11.38-3.97,16.75-1.58c5.37,2.39,8.87,7.46,10.04,13.5c4.5-4.2,10.31-6.25,16.06-5.02
			c5.75,1.22,10.22,5.45,12.63,11.12c3.53-5.05,8.79-8.25,14.66-8.25c5.88,0,11.13,3.21,14.66,8.25c2.4-5.67,6.88-9.9,12.63-11.12
			c5.75-1.22,11.56,0.82,16.06,5.02c1.17-6.05,4.67-11.11,10.04-13.5c5.37-2.39,11.48-1.6,16.75,1.58
			c-0.11-6.16,2.26-11.84,7.01-15.3c4.75-3.45,10.89-3.95,16.71-1.94c-1.39-6-0.25-12.05,3.68-16.42c3.93-4.37,9.83-6.13,15.94-5.38
			c-2.61-5.58-2.75-11.74,0.18-16.82c2.94-5.09,8.34-8.04,14.48-8.57C824.43,542.13,823.01,536.14,824.82,530.56z"/>
		
			<ellipse transform="matrix(0.9996 -0.0293 0.0293 0.9996 -14.0701 20.7411)" class="eeaster2" cx="700" cy="490" rx="117.89" ry="117.89"/>
		
			<ellipse transform="matrix(0.1946 -0.9809 0.9809 0.1946 83.1226 1081.2378)" class="eeaster3" cx="700" cy="490" rx="101.25" ry="101.25"/>
		<path class="eeaster4" d="M628.84,512.96c0-55.92,45.33-101.25,101.25-101.25c16.26,0,31.63,3.84,45.25,10.66
			c-18.54-20.63-45.42-33.62-75.34-33.62c-55.92,0-101.25,45.33-101.25,101.25c0,39.65,22.8,73.98,56,90.6
			C638.65,562.67,628.84,538.96,628.84,512.96z"/>
	</g>
	<g class="earth">
		<path class="eeaster5" d="M802.93,490c0,56.85-46.08,102.93-102.93,102.93c-56.84,0-102.93-46.08-102.93-102.93
			c0-56.85,46.08-102.93,102.93-102.93C756.85,387.07,802.93,433.16,802.93,490z"/>
		<path class="eeaster6" d="M598.06,475.74c6.46,4.96,15.69,8,21.13,12.8c2.48,2.19,2.36,5.77,4.29,7.94c2.29,2.57,8.16,1.27,6.67,5.2
			c-2.59,6.81-3.22,10.06,7.26,26.3c1.57,2.43,7.82,7.62,4.62,22.35c-1.32,6.09,2.67,8.64,4.68,14.33
			c2.85,8.04,0.98,13.65,9.6,10.97c-0.8-6.74,2.93-10.22,3.66-13.83c1.02-5.05,5.43-9.1,7.43-13.94c1.83-4.44-0.68-8,4.34-10.62
			c4.75-2.48,6.09-4.53,7.77-11.54c1.55-6.5,8.66-10.43,2.26-15.32c-4.23-3.23-9.13-6.52-13.88-9.05
			c-9.19-4.9-22.16-16.48-31.34-11.73c-4.72,2.44-5.94,0.91-5.94,0.91c-1.04-1.43-4.02-4.18-3.52-5.99c0.53-1.9,4.1-1.83,4.38-4.06
			c0.13-1.02-1.53-3.66-1.68-5.6c-1.02-13.38,7.93-15.84,11.55-19.78c4.26-4.62,11.48-8.11,16.22-11.2c4.09-2.66,11.9-4.24,11-10.04
			c-0.77-5-4.95-6.27-10.09-5.5c-2.89,0.43-14.17,1.33-13.25-6.4c0.35-2.92,6.19-0.32,7.98-2.25c1.87-2.01,2.34-5.24,4.45-6.85
			c-2.1,2.36-16.54-2.32-23.47,3.16c-2.19,1.73-3.87,1.11-5.6-0.12C612.39,431.5,601.3,452.37,598.06,475.74z"/>
		<path class="eeaster6" d="M771.15,415.63c-0.41,0.32-0.85,0.67-1.36,1.06c-1.93,1.45-5.23,2.69-7.68,2.27
			c-0.06-1.48-0.14-2.98,0.17-4.43c-1.6-0.05-3.35-0.2-4.95-0.02c-2.25,0.24-4.21,1.56-6.28,2c-5.5,1.18-8.21-1.13-13,3.66
			c-2.73,2.73-5.19,8.33-0.83,9.86c1.2,0.42,5.27,0.95,6.51,0.33c2.19-1.11,0.59-4.14,2.49-5.18c1.02-0.56,3.82,0.97,4.28,1.8
			c1.64,2.94-1.47,3.98-3.45,5.1c-3.69,2.09-7.13,1.9-11.43,1.92c-4.27,0.02-9.39,2.02-10.99,6.38c-0.74,2.03-0.6,3.12-1.56,4.79
			c-0.14,0.24-2,2.98-2.09,3.03c-0.97,0.58-2.46-0.34-3.44,0.11c-6.04,2.76,0.31,8.96,5.23,7.62c2.48-0.68,2.22-2.37,4.54-3.89
			c2.09-1.37,4.68-1.29,7.16-1.29c6.46,0.02,10.89,2.05,16.35,5.12c4.79,2.7,10.17,3.72,14.62,6.53c-0.89,2.38-9.09,1.87-11.58,1.46
			c-4.08-0.66-8.14-3.5-12.13-4.8c-3.52-1.15-8.52-1.89-11.99-0.08c-4.47,2.34-8.37,6.46-12.29,9.55c-4,3.15-8.12,5.03-9.22,9.94
			c-0.55,2.45-1.78,5.34-2.61,7.88c-1,3.03-0.92,3.27,1.89,5.29c1.92,1.38,3.97,2.31,5.52,4.2c1.48,1.82,2.26,5.21,4.53,6.36
			c2.94,1.48,7.97,0.05,11.22,0.35c2.24,0.21,6.37,0.51,7.86,2.49c0.66,0.88,0.31,2.2,0.79,3.07c0.84,1.57,1.59,1.32,2.09,3.29
			c0.72,2.84,0.61,5.39,1.73,8.27c1.1,2.8,3.27,5.83,3.06,8.94c-0.25,3.72-3.15,6.8-2,10.81c0.74,2.59,3.05,2.84,4.55,4.72
			c1.59,1.99,2,5.26,2.98,7.65c2.26,5.46,4.33,1.85,5.93-2.07c2.02-4.95,5.91-9.29,9.03-13.52c3.28-4.43,7.95-7.87,11.36-12.26
			c2.58-3.33,2.66-6.45,3.39-10.49c0.71-3.94,0.59-8.16,2.16-11.79c1.63-3.78,3.61-6.61,4.4-10.68c-1.39,0.37-3.03,0.86-4.5,0.59
			c-2.49-0.45-1.7-0.46-2.5-2.36c-1.25-3-1.4-5.34-3.3-8.32c-1.44-2.27-1.84-4.72-3.02-6.98c-1.24-2.38-3.94-3.9-4.31-6.67
			c2.53-0.54,5.14,3.64,6.12,5.46c1.6,2.95,2.36,3.73,4.87,6.07c1.4,1.31,1.71,6.45,3.26,7.29c1.84,1,6.87-2.05,8.25-3.16
			c3.02-2.43,6.42-4.46,7.42-8.19c0.43-1.62,0.46-2.99,1.18-4.45c0.28-0.58,0.67-1.12,1.08-1.67
			C796.33,447.99,785.81,429.66,771.15,415.63z"/>
		<path class="eeaster7" d="M700,592.93c13.1,0,25.62-2.45,37.14-6.91c-2.86-0.33-5.83-0.3-8.5-0.3c-3.54,0-7.48,0.46-11.01,0
			c-3.64-0.48-7.11-1.95-10.93-2.49c-6.77-0.95-14.34-1.53-20.43,1.66c-3.02,1.59-5.84,3.21-8.77,4.87
			c-0.26,0.15-0.59,0.31-0.96,0.48C684.09,592,691.94,592.93,700,592.93z"/>
		<path class="eeaster7" d="M700,387.07c-15.88,0-30.91,3.6-44.33,10.02c1.82,0.73,3.79,1.31,5.15,1.98c4.64,2.27,6.67-1.21,10.06-0.67
			c3.26,0.53,7.64,3.66,11.07,4.82c4.68,1.59,8.5,1.35,13.28,2.12c4.09,0.65,7.48,2.36,11.34,3.65c3.31,1.1,9.7,2.01,12.61-1.16
			c1.19-1.3,1.83-4.18,0.36-5.9c-1.34-1.56-4.07-0.67-4.29-3c5.03-2.42,13.25-0.79,18.5-1.59c2.93-0.45,6.1-0.21,9.02-0.98
			C729.74,390.4,715.26,387.07,700,387.07z"/>
		<path class="eeaster8" d="M649.94,509.5c0-56.85,46.08-102.93,102.93-102.93c2.63,0,5.24,0.1,7.82,0.29
			c-17.02-12.44-37.99-19.79-60.68-19.79c-56.84,0-102.93,46.08-102.93,102.93c0,54.22,41.92,98.64,95.11,102.63
			C666.58,573.91,649.94,543.65,649.94,509.5z"/>
	</g>
</g>
<g class="rabbit">
	<path class="eeaster9" d="M1329.37,894.9c-1.6-7.75-3.92-15.43-5.89-23.1c-3.55-13.88-6.13-29.16-14.97-40.84
		c-6.56-8.66-17.38-15.02-28.31-14.59c-0.53-0.54-1.08-1.07-1.63-1.58c11.12-4.84,20.38-12.85,25.32-25.53
		c7.42-19.05,1.41-39.36-11.22-54.17c3.76-8.05,7.25-16.23,10.42-24.53c2.88-5.64,5.39-11.47,7.42-17.55
		c1.84-5.52,3.21-11.26,4.03-17.06c2.16-7.24,4.04-14.76,3.98-21.94c-0.08-9.5-5.2-17.73-13.61-20.78
		c-5.01-3.14-11.46-3.44-17.12-0.03c-8,4.82-11.47,14.67-14.89,22.82c-7.5,17.9-12.17,36.68-14.41,55.94
		c-0.06,0.5-0.1,0.99-0.15,1.48c-3.78-1.16-7.63-2.08-11.52-2.79c-8.35-2.62-17.07-3.87-25.42-3.15c-3.9-15.23-9.66-30-17.18-43.81
		c-6.64-12.2-19.32-36.48-36.9-27.26c-14.84,7.78-8.63,29.88-4.8,42.28c4.82,15.58,12.68,29.67,22.94,42.3
		c0.08,0.09,0.16,0.17,0.24,0.26c-0.39,0.34-0.78,0.67-1.15,1.03c-5.35,5.18-7.92,12.2-9.65,19.28
		c-3.42,13.98-5.78,29.64-1.09,43.62c4.07,12.14,12.13,20.43,22.1,25.97c-1.76,6.14-3.38,12.33-4.85,18.55
		c-0.25,1.08-0.5,2.16-0.75,3.25c-1.21,0.25-2.42,0.52-3.65,0.79c-5.29,1.17-8.41,1.12-11.47-3.63c-4.41-6.85-8.26-14.1-12.35-21.14
		c-3.73-6.42-7.3-13.56-13.84-17.59c-7.02-4.33-16.43-3.03-19.56,5.31c-2.55,6.8-0.19,15.43,1.56,22.21
		c3.7,14.34,10.79,27.59,20.28,38.9c6.34,7.55,13.34,12.66,23.63,10.16c3.82-0.93,7.62-2.09,11.4-3.33
		c0.06,2.01,0.19,4.02,0.42,6.02c1.53,13.05,6.45,25.3,13.35,36.44c0.64,9.62,0.6,19.27-0.27,28.88
		c-0.79,8.73-3.47,17.99,0.44,26.36c3.77,8.08,12.63,11.91,21.18,9.54c9.41-2.6,14.9-11.07,16.28-20.3
		c0.82-5.48,0.72-11.16,0.11-16.79c8.37,0.99,16.63-0.55,24.19-3.91c0.81,5.78,1.87,11.52,3.17,17.21
		c1.43,6.27,2.83,12.98,6.79,18.2c4.42,5.82,11.61,8.48,18.7,6.32c6.48-1.98,11.67-7.9,13.29-14.41c1.88-7.54-0.45-15.03-2.88-22.12
		c-3.61-10.56-7.24-21.12-10.86-31.68c0-0.01,0.01-0.01,0.01-0.02c2.52-4.68,4.52-9.63,6-14.73c1.23,2.99,2.43,6,3.57,9.03
		c0.73,1.94,2.04,3.63,3.65,4.87c3.25,6.26,7.75,12.34,15.89,10.48C1328.22,911.98,1331.03,902.97,1329.37,894.9z"/>
	<path class="eeaster10" d="M1232.71,767.23h9.15c0.31,0,0.5,0.34,0.33,0.6l-4.57,7.31c-0.15,0.25-0.51,0.25-0.67,0l-4.57-7.31
		C1232.22,767.57,1232.41,767.23,1232.71,767.23z"/>
	<path class="eeaster11" d="M1237.62,775.14v9.33c0,0-11.73,1.98-14.63-4.66"/>
	<path class="eeaster11" d="M1237.62,784.47c0,0,10.44,3.97,14.98-3.67"/>
	<path class="eeaster12" d="M1262.72,833.83c-6.69-5.38-14.58-10.06-23.29-10.84c-1.45-0.13-9.39-3.54-13.32-2.23
		c-16.34,5.43-23.38,26.39-22.64,42.13c0.37,7.78,2.25,15.64,5.25,23.1c2.29,11.05,7.95,21.16,16.76,27.15
		c11.75,10.54,28.68,12.35,41.98,2.9C1295.38,896.21,1286.5,852.96,1262.72,833.83z"/>
	<path class="eeaster11" d="M1214.62,815.03c0,0,25.14,9.41,45.36,5.38"/>
	<path class="eeaster9" d="M1292.66,858.78c0,0-3.68,16.97,3.54,30.86"/>
	<line class="eeaster9" x1="1186.29" y1="864.64" x2="1198.74" y2="857.23"/>
	<path class="eeaster9" d="M1216.11,922.97c0,0,11.81,11.8,21.69,11.82"/>
	<path class="eeaster9" d="M1261.99,930.88c0,0,10.08-4.59,16.13-11.54"/>
	<path class="eeaster13" d="M1262.93,718.1c0,0,20.17-78.03,37.87-71.06s-3.72,54.12-12.06,83.76"/>
	<path class="eeaster9" d="M1258.32,713.45c0,0,3.93,1.63,9.22,4.66"/>
	<path class="eeaster9" d="M1284.81,728.03c0,0,3.65,1.57,7.85,7.07"/>
	<path class="eeaster13" d="M1190.24,717.67c0,0-36.94-64.52-19.67-73.46c17.27-8.93,32.69,40.67,43.56,64.34"/>
	<path class="eeaster9" d="M1185.69,721.27c0,0,7.01-6.43,13.05-7.82"/>
	<line class="eeaster9" x1="1210.84" y1="709.03" x2="1221.38" y2="707.51"/>
	<circle class="eeaster10" cx="1205.21" cy="750.24" r="6.47"/>
	<circle class="eeaster10" cx="1267.53" cy="750.24" r="6.47"/>
</g>
</svg>
